<svg xmlns="http://www.w3.org/2000/svg" width="384" height="429" viewBox="0 0 384 429">
  <defs>
    <style>
      .cls-1 {
        fill: #fcdb1e;
      }

      .cls-1, .cls-2, .cls-3 {
        fill-rule: evenodd;
      }

      .cls-2 {
        fill: #fcd320;
      }

      .cls-3 {
        fill: #fbc91d;
      }
    </style>
  </defs>
  <path id="Ellipse_1_copy_12_копия_3" data-name="Ellipse 1 copy 12 копия 3" class="cls-1" d="M369,414H340v-0.26H16.241V286.082l21.224-9.7,15.15-31.31-12.12-39.39-24.254-9.555V62.26H125V62h15.68L162,21,192,8l34,12,14.509,42H265v0.26H368.731V386H369v28Z"/>
  <path id="Rectangle_1766_copy_17" data-name="Rectangle 1766 copy 17" class="cls-2" d="M83.454,114.512c0.537,5.325,1.29,8.75,3.371,12.256q0.651,1.048,1.4,2.109a56.833,56.833,0,0,0,5.156,5.9c8.059,8.262,18.163,15.1,20.105,26.77h-0.03c0.974,5.595.069,12.3-3.863,20.82-11.672,25.287-29.861,41.847-27.057,69.683,0.536,5.326,1.289,8.751,3.371,12.257q0.652,1.048,1.405,2.108a56.571,56.571,0,0,0,5.155,5.9c8.06,8.262,18.164,15.106,20.1,26.77h-0.029c0.974,5.6.068,12.3-3.864,20.82-11.672,25.287-29.861,41.849-27.057,69.684,0.536,5.325,1.29,8.751,3.371,12.256q0.651,1.049,1.4,2.11a56.788,56.788,0,0,0,5.155,5.9l-28.119,1.8a56.708,56.708,0,0,1-5.156-5.9q-0.754-1.059-1.4-2.109c-2.082-3.505-2.835-6.931-3.371-12.256-2.8-27.836,15.385-44.4,27.057-69.684,3.932-8.518,4.838-15.225,3.863-20.82h0.03c-1.942-11.664-12.045-18.507-20.105-26.769a56.761,56.761,0,0,1-5.156-5.9q-0.754-1.059-1.4-2.108c-2.082-3.506-2.835-6.932-3.372-12.257-2.8-27.835,15.385-44.4,27.057-69.683,3.932-8.518,4.838-15.225,3.863-20.821h0.03c-1.942-11.666-12.046-18.508-20.105-26.771a56.709,56.709,0,0,1-5.156-5.9q-0.754-1.06-1.4-2.109c-2.082-3.5-2.835-6.931-3.371-12.256-2.187-21.712,8.4-36.565,18.7-54.049h27.054C91.138,78.978,81.343,93.548,83.454,114.512ZM212.326,45.5c-11.673,25.287-29.862,41.848-27.057,69.683,0.536,5.325,1.29,8.751,3.372,12.257q0.65,1.047,1.4,2.109a56.8,56.8,0,0,0,5.155,5.9c8.06,8.263,18.164,15.1,20.105,26.771h-0.03c0.975,5.595.069,12.3-3.863,20.82-11.672,25.287-29.861,41.848-27.057,69.683,0.537,5.326,1.29,8.752,3.372,12.257q0.651,1.049,1.4,2.109a56.808,56.808,0,0,0,5.156,5.9c8.06,8.262,18.163,15.1,20.1,26.77h-0.03c0.974,5.6.068,12.3-3.863,20.82-11.673,25.286-29.862,41.848-27.057,69.684,0.536,5.325,1.289,8.75,3.371,12.256q0.651,1.048,1.405,2.109a56.9,56.9,0,0,0,5.155,5.9l-28.119,1.8a56.683,56.683,0,0,1-5.155-5.9q-0.756-1.06-1.406-2.109c-2.081-3.506-2.834-6.932-3.371-12.257-2.8-27.835,15.385-44.4,27.057-69.683,3.932-8.518,4.838-15.225,3.863-20.82h0.031c-1.942-11.665-12.046-18.508-20.106-26.77a56.8,56.8,0,0,1-5.155-5.9q-0.755-1.059-1.405-2.108c-2.082-3.506-2.835-6.931-3.371-12.256-2.8-27.836,15.384-44.4,27.057-69.684,3.931-8.518,4.837-15.224,3.863-20.82h0.03c-1.942-11.665-12.045-18.508-20.105-26.77a56.562,56.562,0,0,1-5.155-5.9q-0.754-1.059-1.405-2.109c-2.082-3.505-2.835-6.931-3.372-12.256-2.8-27.836,15.385-44.4,27.057-69.684,3.932-8.518,4.838-15.224,3.864-20.82h0.03c-0.9-5.423-3.58-9.8-6.985-13.764L192,8l20.474,7.226a24.974,24.974,0,0,1,3.745,9.457h-0.03C217.164,30.279,216.257,36.986,212.326,45.5Zm77.413,70.376c0.537,5.325,1.29,8.751,3.372,12.257q0.651,1.047,1.4,2.109a56.706,56.706,0,0,0,5.156,5.9c8.059,8.263,18.163,15.105,20.105,26.77h-0.03c0.974,5.595.069,12.3-3.863,20.82-11.673,25.287-29.862,41.848-27.057,69.683,0.536,5.326,1.289,8.752,3.371,12.257q0.651,1.048,1.4,2.109a56.785,56.785,0,0,0,5.155,5.9c8.06,8.262,18.163,15.105,20.105,26.77h-0.03c0.975,5.6.069,12.3-3.863,20.82-11.672,25.286-29.861,41.848-27.057,69.684,0.537,5.325,1.29,8.75,3.372,12.256q0.651,1.048,1.4,2.109a56.808,56.808,0,0,0,5.156,5.9l-28.12,1.8a56.8,56.8,0,0,1-5.155-5.9q-0.755-1.06-1.405-2.109c-2.082-3.506-2.835-6.932-3.371-12.257-2.805-27.836,15.384-44.4,27.057-69.683,3.931-8.518,4.838-15.225,3.863-20.82h0.03c-1.942-11.665-12.045-18.508-20.105-26.77a56.823,56.823,0,0,1-5.156-5.9q-0.753-1.059-1.4-2.108c-2.082-3.506-2.835-6.931-3.372-12.256-2.8-27.836,15.385-44.4,27.057-69.684,3.932-8.518,4.838-15.224,3.864-20.82h0.029c-1.941-11.665-12.045-18.508-20.105-26.77a56.8,56.8,0,0,1-5.155-5.9q-0.755-1.059-1.405-2.109c-2.082-3.5-2.835-6.931-3.371-12.256-2.244-22.275,8.954-37.333,19.5-55.417h27.065C297.964,79.558,287.57,94.347,289.739,115.88Z"/>
  <path id="Line" class="cls-3" d="M383.986,389a40,40,0,0,1-40,40h-344V281H0v-5.014H11v-0.012A36.491,36.491,0,0,0,11,203v-0.013H0V196H-0.014V47H139.477a53.976,53.976,0,0,1,107.046,0H383.986V389Zm-17-325h-137V53h-0.012A36.491,36.491,0,0,0,157,53h-0.013V64h-139V185.619a53.971,53.971,0,0,1,0,106.762V412h324a25,25,0,0,0,25-25V64Z"/>
</svg>
