<svg xmlns="http://www.w3.org/2000/svg" width="430" height="382" viewBox="0 0 430 382">
  <defs>
    <style>
      .cls-1 {
        fill: #ff7da5;
      }

      .cls-1, .cls-2, .cls-3, .cls-4, .cls-5 {
        fill-rule: evenodd;
      }

      .cls-2 {
        fill: #ff749f;
      }

      .cls-3 {
        fill: #fb6895;
      }

      .cls-4 {
        fill: #ffe740;
      }

      .cls-5 {
        fill: #9ada3e;
      }
    </style>
  </defs>
  <path id="Ellipse_1_copy_12_копия_3" data-name="Ellipse 1 copy 12 копия 3" class="cls-1" d="M416.476,52V368.48H280.882l-7.192-25.5L240,328l-39,14s-3.926,18.892-5.439,26.48H60.5V325H30L7,300l2-25,23-34H60.5V141H30L7,116,9,91,32,57H60.5V13.52H391V13h26V52h-0.524Z"/>
  <path id="Rectangle_1766_copy_14" data-name="Rectangle 1766 copy 14" class="cls-2" d="M397.192,74.06l0.015,0.026c-5.4,1.94-10.845,6.086-16.368,13.8-16.394,22.885-21.865,47.134-47.727,58.58-4.948,2.189-8.334,3.239-12.454,3.162q-1.247-.048-2.554-0.18a57.365,57.365,0,0,1-7.757-1.581c-11.285-2.95-22.343-8.405-33.564-4.282l0.015,0.026c-5.4,1.94-10.845,6.086-16.367,13.8-16.394,22.885-21.866,47.134-47.727,58.579-4.948,2.189-8.335,3.24-12.455,3.163q-1.246-.048-2.554-0.18a57.292,57.292,0,0,1-7.757-1.582c-11.285-2.95-22.342-8.405-33.563-4.282l0.015,0.026c-5.4,1.94-10.846,6.086-16.368,13.8-16.393,22.885-21.866,47.134-47.727,58.579-4.947,2.189-8.334,3.239-12.454,3.162q-1.247-.048-2.555-0.18A57.227,57.227,0,0,1,69.53,286.9c-11.285-2.95-22.343-8.405-33.564-4.282l0.015,0.026c-5.4,1.94-10.845,6.086-16.367,13.8-3.022,4.219-5.908,6.779-8.507,8.024L7,300l2-25,11.1-16.411a25.045,25.045,0,0,1,3.418-1.538l-0.015-.026c11.22-4.123,22.279,1.332,33.564,4.282a57.249,57.249,0,0,0,7.756,1.581q1.308,0.133,2.555.181c4.119,0.077,7.506-.974,12.454-3.163,25.861-11.445,31.333-35.694,47.727-58.579,5.523-7.709,10.964-11.856,16.367-13.795l-0.015-.027c11.221-4.122,22.279,1.332,33.564,4.283a57.416,57.416,0,0,0,7.756,1.581q1.309,0.132,2.555.18c4.12,0.077,7.507-.973,12.454-3.163,25.862-11.444,31.334-35.694,47.728-58.579,5.522-7.709,10.963-11.855,16.367-13.795l-0.015-.026c11.221-4.123,22.279,1.332,33.564,4.282a57.261,57.261,0,0,0,7.756,1.581q1.308,0.133,2.555.181c4.12,0.076,7.506-.974,12.454-3.163,25.862-11.445,31.334-35.694,47.727-58.579,5.523-7.709,10.964-11.855,16.368-13.795l-0.015-.026c10.617-3.9,21.089.77,31.745,3.783V74.16C410.052,72.491,403.649,71.688,397.192,74.06ZM302.6,368.4c25.861-11.444,31.334-35.694,47.727-58.579,5.523-7.709,10.964-11.855,16.368-13.8L366.681,296c11.221-4.123,22.279,1.332,33.564,4.282A57.385,57.385,0,0,0,408,301.866q1.308,0.134,2.555.18a20.859,20.859,0,0,0,5.92-.732v25.464c-1.166-.248-2.4-0.542-3.77-0.9-11.285-2.951-22.343-8.405-33.564-4.282l0.015,0.026c-5.4,1.94-10.845,6.086-16.367,13.8-8.062,11.254-13.485,22.834-19.987,33.062H302.422C302.484,368.453,302.539,368.431,302.6,368.4ZM338.348,208.09c2.8,0.826,5.6,1.735,8.416,2.551q1.024,0.293,2.051.562a57.406,57.406,0,0,0,7.756,1.582q1.308,0.133,2.554.18c4.12,0.077,7.507-.973,12.455-3.163,24.313-10.759,30.607-32.836,44.9-54.457v47.722c-7.786,13.479-15.98,25.415-31.934,32.475-4.948,2.19-8.334,3.24-12.454,3.163q-1.247-.048-2.554-0.18a57.262,57.262,0,0,1-7.757-1.582c-0.848-.221-1.695-0.46-2.541-0.705-2.821-.8-5.629-1.718-8.43-2.555-7.536-2.224-15.028-3.8-22.593-1.022l0.015,0.027c-5.4,1.939-10.845,6.085-16.367,13.8-16.394,22.885-21.866,47.134-47.727,58.578-4.948,2.19-8.335,3.24-12.455,3.163q-1.246-.048-2.555-0.18a57.405,57.405,0,0,1-7.755-1.581c-0.844-.221-1.686-0.458-2.527-0.7-2.828-.805-5.642-1.721-8.45-2.56-7.535-2.224-15.024-3.8-22.587-1.02l0.015,0.026c-5.4,1.94-10.845,6.086-16.368,13.8a36.266,36.266,0,0,1-3.475,4.189c-11.926,18.116-18.319,36.512-34.442,48.289H60.5V357.622c5.115-6.687,10.163-10.394,15.179-12.194l-0.015-.026c11.221-4.123,22.279,1.332,33.564,4.282a57.261,57.261,0,0,0,7.756,1.581q1.31,0.134,2.555.181c4,0.074,7.32-.923,12.037-2.984,25.158-11.592,30.7-35.559,46.919-58.2,5.522-7.709,10.964-11.855,16.367-13.8l-0.015-.026c7.729-2.84,15.38-1.136,23.082,1.164,2.805,0.828,5.617,1.741,8.442,2.558q1.018,0.291,2.04.56a57.23,57.23,0,0,0,7.756,1.581q1.308,0.134,2.555.18c4.12,0.078,7.506-.973,12.454-3.162,25.862-11.445,31.334-35.694,47.727-58.579,5.523-7.709,10.964-11.855,16.368-13.795l-0.015-.027C322.984,204.08,330.641,205.788,338.348,208.09ZM283.471,60.478c-4.948,2.189-8.334,3.24-12.455,3.163q-1.245-.048-2.554-0.18a57.314,57.314,0,0,1-7.756-1.581c-11.285-2.95-22.343-8.4-33.564-4.282l0.015,0.026c-5.4,1.94-10.845,6.086-16.367,13.8C194.4,94.3,188.924,118.552,163.062,130c-4.947,2.189-8.334,3.24-12.454,3.163q-1.247-.048-2.555-0.18A57.251,57.251,0,0,1,140.3,131.4c-11.285-2.95-22.343-8.405-33.563-4.282l0.014,0.026c-5.4,1.94-10.845,6.087-16.367,13.8C78.652,157.311,72.511,174.38,60.5,186.961V144.229c5.439-9.147,10.442-19.138,17.424-28.885,5.523-7.709,10.964-11.856,16.367-13.795l-0.015-.026c11.221-4.123,22.279,1.331,33.564,4.282a57.416,57.416,0,0,0,7.756,1.581q1.308,0.132,2.555.18c4.12,0.077,7.507-.973,12.454-3.163,25.861-11.444,31.334-35.694,47.727-58.579,5.523-7.709,10.964-11.855,16.368-13.8L214.681,32c11.221-4.123,22.279,1.332,33.564,4.282A57.362,57.362,0,0,0,256,37.866q1.308,0.133,2.555.18c4.12,0.077,7.506-.973,12.454-3.163,11.39-5.04,18.823-12.566,24.978-21.363h27.7C312.384,32.595,304.973,50.962,283.471,60.478ZM111.632,40.915c-4.947,2.19-8.334,3.24-12.454,3.163q-1.247-.048-2.555-0.18a57.329,57.329,0,0,1-7.756-1.581c-9.541-2.495-18.92-6.756-28.371-5.53V13.52h5.136c3.577,1.061,7.164,2.259,10.774,3.2A57.321,57.321,0,0,0,84.162,18.3q1.308,0.133,2.555.18c4.12,0.077,7.506-.974,12.454-3.162,1.281-.567,2.5-1.174,3.684-1.8h37.693C133.56,24.887,125.55,34.757,111.632,40.915Z"/>
  <path id="Line" class="cls-3" d="M293,382H275.986V371h-0.012A36.491,36.491,0,0,0,203,371h-0.013v11h-157V336.377a53.971,53.971,0,0,1,0-106.754V153.377a53.971,53.971,0,0,1,0-106.754V0h344a40,40,0,0,1,40,40V382H293ZM412.986,42a25,25,0,0,0-25-25h-324V46H64V63.014H53v0.013A36.491,36.491,0,0,0,53,136v0.013H64V154H63.986v75H64v17.014H53v0.012A36.491,36.491,0,0,0,53,319v0.013H64V337H63.986v28H185.477a53.976,53.976,0,0,1,107.046,0H412.986V42Z"/>
  <path id="Фигура_2" data-name="Фигура 2" class="cls-4" d="M190.848,272.511c-11.631,16.961-27.176,13.642-34.621,13.1-0.137-.01-0.275-0.028-0.415-0.05a14.383,14.383,0,0,0-4.108,1.3c-2.072,1.108-3.392-.258-4.522-1.4-1.085-1.1-.724-1.72.331-6.959-4.383-7.432-6.025-19.894,3.567-33.589,11.24-14.128,32.258-13.914,36.8-8.889S202.48,255.55,190.848,272.511Z"/>
  <path id="Фигура_3" data-name="Фигура 3" class="cls-5" d="M144.156,232.16c-2.791-4.732,32.741-19.777,46.407,3.057C194.577,248.726,156.407,252.931,144.156,232.16Z"/>
  <path id="Фигура_2-2" data-name="Фигура 2" class="cls-4" d="M143.848,190.511c-11.631,16.961-27.176,13.642-34.621,13.1-0.137-.01-0.275-0.028-0.415-0.05a14.383,14.383,0,0,0-4.108,1.3c-2.072,1.108-3.392-.258-4.522-1.4-1.085-1.1-.724-1.72.331-6.959-4.383-7.432-6.025-19.894,3.567-33.589,11.24-14.128,32.258-13.914,36.8-8.889S155.48,173.55,143.848,190.511Z"/>
  <path id="Фигура_3-2" data-name="Фигура 3" class="cls-5" d="M97.156,150.16c-2.791-4.732,32.741-19.777,46.407,3.057C147.577,166.726,109.407,170.931,97.156,150.16Z"/>
  <path id="Фигура_2-3" data-name="Фигура 2" class="cls-4" d="M224.848,190.511c-11.631,16.961-27.176,13.642-34.621,13.1-0.137-.01-0.275-0.028-0.415-0.05a14.383,14.383,0,0,0-4.108,1.3c-2.072,1.108-3.392-.258-4.522-1.4-1.085-1.1-.724-1.72.331-6.959-4.383-7.432-6.025-19.894,3.567-33.589,11.24-14.128,32.258-13.914,36.8-8.889S236.48,173.55,224.848,190.511Z"/>
  <path id="Фигура_3-3" data-name="Фигура 3" class="cls-5" d="M178.156,150.16c-2.791-4.732,32.741-19.777,46.407,3.057C228.577,166.726,190.407,170.931,178.156,150.16Z"/>
  <path id="Фигура_2-4" data-name="Фигура 2" class="cls-4" d="M307.848,190.511c-11.631,16.961-27.176,13.642-34.621,13.1-0.137-.01-0.275-0.028-0.415-0.05a14.383,14.383,0,0,0-4.108,1.3c-2.072,1.108-3.392-.258-4.522-1.4-1.085-1.1-.724-1.72.331-6.959-4.383-7.432-6.025-19.894,3.567-33.589,11.24-14.128,32.258-13.914,36.805-8.889S319.48,173.55,307.848,190.511Z"/>
  <path id="Фигура_3-4" data-name="Фигура 3" class="cls-5" d="M261.156,150.16c-2.791-4.732,32.741-19.777,46.407,3.057C311.577,166.726,273.407,170.931,261.156,150.16Z"/>
  <path id="Фигура_2-5" data-name="Фигура 2" class="cls-4" d="M389.848,190.511c-11.631,16.961-27.176,13.642-34.621,13.1-0.137-.01-0.275-0.028-0.415-0.05a14.383,14.383,0,0,0-4.108,1.3c-2.072,1.108-3.392-.258-4.522-1.4-1.085-1.1-.724-1.72.331-6.959-4.383-7.432-6.025-19.894,3.567-33.589,11.24-14.128,32.258-13.914,36.805-8.889S401.48,173.55,389.848,190.511Z"/>
  <path id="Фигура_3-5" data-name="Фигура 3" class="cls-5" d="M343.156,150.16c-2.791-4.732,32.741-19.777,46.407,3.057C393.577,166.726,355.407,170.931,343.156,150.16Z"/>
  <path id="Фигура_2-6" data-name="Фигура 2" class="cls-4" d="M267.848,272.511c-11.631,16.961-27.176,13.642-34.621,13.1-0.137-.01-0.275-0.028-0.415-0.05a14.383,14.383,0,0,0-4.108,1.3c-2.072,1.108-3.392-.258-4.522-1.4-1.085-1.1-.724-1.72.331-6.959-4.383-7.432-6.025-19.894,3.567-33.589,11.24-14.128,32.258-13.914,36.8-8.889S279.48,255.55,267.848,272.511Z"/>
  <path id="Фигура_3-6" data-name="Фигура 3" class="cls-5" d="M221.156,232.16c-2.791-4.732,32.741-19.777,46.407,3.057C271.577,248.726,233.407,252.931,221.156,232.16Z"/>
  <path id="Фигура_2-7" data-name="Фигура 2" class="cls-4" d="M343.848,272.511c-11.631,16.961-27.176,13.642-34.621,13.1-0.137-.01-0.275-0.028-0.415-0.05a14.383,14.383,0,0,0-4.108,1.3c-2.072,1.108-3.392-.258-4.522-1.4-1.085-1.1-.724-1.72.331-6.959-4.383-7.432-6.025-19.894,3.567-33.589,11.24-14.128,32.258-13.914,36.805-8.889S355.48,255.55,343.848,272.511Z"/>
  <path id="Фигура_3-7" data-name="Фигура 3" class="cls-5" d="M297.156,232.16c-2.791-4.732,32.741-19.777,46.407,3.057C347.577,248.726,309.407,252.931,297.156,232.16Z"/>
  <path id="Фигура_2-8" data-name="Фигура 2" class="cls-4" d="M190.848,114.511c-11.631,16.961-27.176,13.642-34.621,13.1-0.137-.01-0.275-0.028-0.415-0.05a14.383,14.383,0,0,0-4.108,1.3c-2.072,1.108-3.392-.258-4.522-1.4-1.085-1.1-.724-1.72.331-6.959-4.383-7.432-6.025-19.894,3.567-33.589,11.24-14.128,32.258-13.914,36.8-8.889S202.48,97.55,190.848,114.511Z"/>
  <path id="Фигура_3-8" data-name="Фигура 3" class="cls-5" d="M144.156,74.16c-2.791-4.732,32.741-19.777,46.407,3.057C194.577,90.726,156.407,94.931,144.156,74.16Z"/>
  <path id="Фигура_2-9" data-name="Фигура 2" class="cls-4" d="M267.848,114.511c-11.631,16.961-27.176,13.642-34.621,13.1-0.137-.01-0.275-0.028-0.415-0.05a14.383,14.383,0,0,0-4.108,1.3c-2.072,1.108-3.392-.258-4.522-1.4-1.085-1.1-.724-1.72.331-6.959-4.383-7.432-6.025-19.894,3.567-33.589,11.24-14.128,32.258-13.914,36.8-8.889S279.48,97.55,267.848,114.511Z"/>
  <path id="Фигура_3-9" data-name="Фигура 3" class="cls-5" d="M221.156,74.16c-2.791-4.732,32.741-19.777,46.407,3.057C271.577,90.726,233.407,94.931,221.156,74.16Z"/>
  <path id="Фигура_2-10" data-name="Фигура 2" class="cls-4" d="M343.848,114.511c-11.631,16.961-27.176,13.642-34.621,13.1-0.137-.01-0.275-0.028-0.415-0.05a14.383,14.383,0,0,0-4.108,1.3c-2.072,1.108-3.392-.258-4.522-1.4-1.085-1.1-.724-1.72.331-6.959-4.383-7.432-6.025-19.894,3.567-33.589,11.24-14.128,32.258-13.914,36.805-8.889S355.48,97.55,343.848,114.511Z"/>
  <path id="Фигура_3-10" data-name="Фигура 3" class="cls-5" d="M297.156,74.16c-2.791-4.732,32.741-19.777,46.407,3.057C347.577,90.726,309.407,94.931,297.156,74.16Z"/>
</svg>
