<svg xmlns="http://www.w3.org/2000/svg" width="383" height="429" viewBox="0 0 383 429">
  <defs>
    <style>
      .cls-1 {
        fill: #ff7da5;
      }

      .cls-1, .cls-2, .cls-3 {
        fill-rule: evenodd;
      }

      .cls-2 {
        fill: #ff749f;
      }

      .cls-3 {
        fill: #fb6895;
      }
    </style>
  </defs>
  <path id="Ellipse_1_copy_12_копия_3" data-name="Ellipse 1 copy 12 копия 3" class="cls-1" d="M366.74,325v41.74h-42.6L317,406l-35,16-36-18-5.323-37.26H141.138L134,406,99,422,63,404l-5.323-37.26H15.26V15.26H366.74V57H351L328,91l-2,25,23,25h17.74V241H351l-23,34-2,25,23,25h17.74Z"/>
  <path id="Rectangle_1766_copy_12" data-name="Rectangle 1766 copy 12" class="cls-2" d="M25.4,15.26a1.52,1.52,0,0,1-1.889,0H25.4ZM53.865,79.748c5.523-7.709,10.964-11.855,16.368-13.8l-0.015-.026c0.385-.141.769-0.245,1.153-0.364A30.623,30.623,0,0,1,83.5,57.011l-0.015-.026c11.221-4.123,22.279,1.331,33.564,4.282a57.38,57.38,0,0,0,7.756,1.581q1.308,0.133,2.555.18c4.119,0.077,7.506-.973,12.454-3.163,0.569-.252,1.117-0.518,1.667-0.782,12.67-11.562,18.93-27.77,29.374-43.823H281.68c-4.893,3.121-10.949,6.668-18.352,10.7-0.731.4-18.049,2-18.921,1.908a57.362,57.362,0,0,1-7.756-1.581c-10.9-2.849-21.585-8.008-32.411-4.646a55.575,55.575,0,0,0-4.233,5.244c-16.033,22.382-21.632,46.061-46.062,57.8A54.692,54.692,0,0,1,139.007,94.4c-4.948,2.19-8.334,3.24-12.454,3.163q-1.246-.049-2.554-0.18a57.371,57.371,0,0,1-7.757-1.581c-10.9-2.849-21.585-8.007-32.41-4.647A55.565,55.565,0,0,0,79.6,96.4c-5,6.985-9.636,9.437-13.2,8.844-0.025.035-.049,0.063-0.074,0.1C49.932,128.227,44.46,152.476,18.6,163.92c-1.194.529-2.294,0.988-3.339,1.384V133.236C33.6,120.59,39.6,99.655,53.865,79.748Zm31.051,335.21c0.339-.516.675-1.031,1.043-1.544,5.522-7.71,10.963-11.856,16.367-13.8l-0.015-.026c10.75-3.95,21.352.886,32.147,3.894L134,406,99,422ZM366.74,54.112q-0.9,1.445-1.77,2.888H351L328,91l-1.01,12.628c-0.4.2-.794,0.414-1.2,0.611a54.655,54.655,0,0,1-14.939,9.724c-4.948,2.189-8.334,3.24-12.454,3.163q-1.247-.048-2.555-0.18a57.251,57.251,0,0,1-7.756-1.582c-10.9-2.849-21.585-8.007-32.411-4.646a55.552,55.552,0,0,0-4.233,5.244c-5,6.986-9.636,9.437-13.2,8.844-0.024.034-.049,0.063-0.073,0.1-16.394,22.886-21.866,47.135-47.728,58.58-4.948,2.189-8.333,3.239-12.454,3.162q-1.247-.048-2.554-0.18a57.365,57.365,0,0,1-7.757-1.581c-11.285-2.951-22.343-8.4-33.563-4.282l0.014,0.026c-5.4,1.94-10.844,6.086-16.367,13.8C101.362,217.308,95.891,241.557,70.029,253c-4.948,2.189-8.334,3.24-12.454,3.163q-1.247-.048-2.555-0.18a57.258,57.258,0,0,1-7.756-1.582c-10.761-2.813-21.317-7.883-32-4.774V223.508c6.488,1.033,12.977,3.585,19.542,5.3a57.393,57.393,0,0,0,7.756,1.581q1.308,0.132,2.555.18c4.12,0.077,7.507-.973,12.454-3.163C83.429,215.964,88.9,191.714,105.3,168.829c5.522-7.708,10.964-11.855,16.368-13.8l-0.016-.026c11.221-4.123,22.279,1.332,33.564,4.282a57.4,57.4,0,0,0,7.757,1.581q1.308,0.133,2.554.18c4.12,0.078,7.506-.973,12.454-3.162C203.838,146.444,209.31,122.2,225.7,99.31c5.522-7.709,10.963-11.855,16.367-13.795l-0.015-.026c0.385-.141.769-0.245,1.153-0.364a30.614,30.614,0,0,1,12.134-8.551l-0.015-.026c11.22-4.123,22.278,1.332,33.564,4.282a57.367,57.367,0,0,0,7.756,1.582q1.308,0.132,2.555.18c4.12,0.077,7.507-.973,12.454-3.163,0.569-.252,1.116-0.518,1.666-0.782,14-12.772,20.153-31.216,32.789-48.855,5.522-7.709,10.964-11.856,16.368-13.8l-0.015-.026a7.337,7.337,0,0,1,1.1-.306c0.13-.141.258-0.265,0.387-0.4h2.792V54.112ZM206.366,343.894c5.522-7.709,10.964-11.855,16.368-13.8l-0.016-.027c11.221-4.123,22.279,1.332,33.565,4.283a57.51,57.51,0,0,0,7.756,1.581q1.308,0.132,2.554.18c4.12,0.077,7.507-.973,12.455-3.163,25.861-11.445,31.333-35.694,47.727-58.579a49.028,49.028,0,0,1,7.1-8.057L328,275l-2,25,7.685,8.353c-12.473,20.21-19.46,40.142-42.177,50.194-4.947,2.19-8.333,3.24-12.454,3.163q-1.245-.048-2.554-0.18a57.262,57.262,0,0,1-7.757-1.582c-11.285-2.95-22.343-8.4-33.563-4.282l0.015,0.027c-4.722,1.695-9.474,5.076-14.282,11.047H192.435C196.639,359.323,200.894,351.534,206.366,343.894ZM15.26,356.252c6.189-9.943,11.5-21.084,19.268-31.92,5.523-7.709,10.964-11.856,16.367-13.8l-0.015-.026c11.221-4.123,22.278,1.331,33.564,4.282a57.386,57.386,0,0,0,7.756,1.581q1.308,0.132,2.555.18c4.12,0.077,7.506-.973,12.453-3.163,25.862-11.444,31.335-35.694,47.728-58.579,5.522-7.709,10.964-11.855,16.368-13.8l-0.015-.026c11.22-4.123,22.278,1.332,33.563,4.282a57.241,57.241,0,0,0,7.757,1.581q1.308,0.133,2.554.181c4.12,0.076,7.507-.974,12.454-3.163,25.862-11.445,31.334-35.694,47.728-58.579,5.522-7.709,10.964-11.856,16.367-13.8l-0.015-.026c11.221-4.124,22.279,1.331,33.564,4.281a57.251,57.251,0,0,0,7.756,1.582q1.308,0.132,2.555.18c4.12,0.077,7.506-.973,12.454-3.163a55.1,55.1,0,0,0,18.714-13.5V196.7a56.629,56.629,0,0,1-6.253,3.247c-4.948,2.19-8.334,3.24-12.454,3.163q-1.247-.048-2.555-0.18a57.406,57.406,0,0,1-7.756-1.582c-11.285-2.95-22.343-8.405-33.564-4.282l0.016,0.026c-5.4,1.94-10.846,6.087-16.368,13.795-16.394,22.886-21.866,47.135-47.728,58.58-4.947,2.189-8.333,3.239-12.454,3.162q-1.245-.048-2.554-0.18a57.4,57.4,0,0,1-7.757-1.581c-11.285-2.95-22.343-8.405-33.564-4.282l0.016,0.026c-5.4,1.94-10.845,6.086-16.368,13.8C151,303.291,145.532,327.541,119.67,338.985c-4.947,2.19-8.334,3.24-12.454,3.163q-1.246-.048-2.555-0.18a57.261,57.261,0,0,1-7.756-1.582c-11.285-2.95-22.343-8.405-33.564-4.282l0.015,0.026c-5.4,1.94-10.845,6.087-16.367,13.8A188.54,188.54,0,0,0,36.472,366.74H15.26V356.252Z"/>
  <path id="Line" class="cls-3" d="M372,319v0.013h11V326h0v56H335.523a53.976,53.976,0,0,1-107.046,0H153.523a53.975,53.975,0,0,1-107.046,0H0V40A40,40,0,0,1,40,0H383V55h0v8.014H372v0.013A36.491,36.491,0,0,0,372,136v0.013h11V143h0v97h0v6.014H372v0.012A36.491,36.491,0,0,0,372,319Zm-7-89.38V153.379a53.971,53.971,0,0,1,0-106.758V17H42A25,25,0,0,0,17,42V365H63.014v11h0.013A36.491,36.491,0,0,0,136,376h0.013V365h109v11h0.012A36.491,36.491,0,0,0,318,376h0.013V365H365V336.379A53.971,53.971,0,0,1,365,229.621Z"/>
</svg>
