<svg xmlns="http://www.w3.org/2000/svg" width="384" height="429" viewBox="0 0 384 429">
  <defs>
    <style>
      .cls-1 {
        fill: #ff839d;
      }

      .cls-1, .cls-2, .cls-3 {
        fill-rule: evenodd;
      }

      .cls-2 {
        fill: #ff7c97;
      }

      .cls-3 {
        fill: #fc7192;
      }
    </style>
  </defs>
  <path id="Ellipse_1_copy_12_копия_3" data-name="Ellipse 1 copy 12 копия 3" class="cls-1" d="M369,414H340v-0.26H16.241V286.082l21.224-9.7,15.15-31.31-12.12-39.39-24.254-9.555V62.26H125V62h15.68L162,21,192,8l34,12,14.509,42H265v0.26H368.731V386H369v28Z"/>
  <path id="Rectangle_1766_copy_17" data-name="Rectangle 1766 copy 17" class="cls-2" d="M87.454,116.513c0.537,5.325,1.29,8.751,3.371,12.257q0.651,1.047,1.4,2.108a56.638,56.638,0,0,0,5.156,5.9c8.059,8.263,18.163,15.1,20.105,26.77h-0.03c0.975,5.595.069,12.3-3.863,20.82-11.672,25.287-29.861,41.848-27.057,69.684,0.536,5.325,1.289,8.751,3.371,12.256q0.652,1.049,1.405,2.109a56.768,56.768,0,0,0,5.155,5.9c8.06,8.262,18.164,15.105,20.1,26.77h-0.029c0.974,5.595.068,12.3-3.864,20.82-11.672,25.286-29.861,41.848-27.056,69.684,0.536,5.324,1.29,8.75,3.371,12.256q0.651,1.048,1.4,2.109a56.89,56.89,0,0,0,5.155,5.9l-28.119,1.8a56.809,56.809,0,0,1-5.155-5.9q-0.755-1.06-1.4-2.109c-2.082-3.506-2.835-6.932-3.371-12.257-2.8-27.835,15.385-44.4,27.057-69.683,3.932-8.518,4.838-15.225,3.863-20.82h0.03c-1.942-11.665-12.045-18.508-20.1-26.77a56.842,56.842,0,0,1-5.156-5.9q-0.754-1.06-1.4-2.109c-2.082-3.506-2.835-6.931-3.372-12.256-2.8-27.836,15.385-44.4,27.057-69.684,3.932-8.518,4.838-15.224,3.863-20.82h0.03c-1.942-11.665-12.046-18.508-20.105-26.77a56.708,56.708,0,0,1-5.156-5.9q-0.754-1.059-1.4-2.109c-2.082-3.5-2.835-6.931-3.372-12.256-2.27-22.535,9.218-37.682,19.87-56.05h27.07C95.935,79.833,85.259,94.717,87.454,116.513ZM164.1,408.422q-0.756-1.059-1.405-2.109c-2.082-3.5-2.835-6.931-3.372-12.257-2.8-27.835,15.385-44.4,27.057-69.683,3.932-8.518,4.838-15.224,3.863-20.82h0.031c-1.942-11.665-12.046-18.507-20.106-26.77a56.8,56.8,0,0,1-5.155-5.9q-0.755-1.059-1.405-2.108c-2.082-3.506-2.835-6.932-3.371-12.257-2.8-27.835,15.385-44.4,27.057-69.683,3.931-8.518,4.837-15.225,3.863-20.821h0.03c-1.942-11.665-12.045-18.507-20.105-26.77a56.564,56.564,0,0,1-5.155-5.9q-0.754-1.06-1.405-2.11c-2.082-3.505-2.835-6.93-3.372-12.255-2.8-27.836,15.385-44.4,27.057-69.684,3.932-8.518,4.838-15.224,3.864-20.82h0.03c-1.11-6.667-4.89-11.758-9.427-16.44L192,8l23.959,8.456a25.382,25.382,0,0,1,4.26,10.229h-0.03c0.975,5.6.068,12.3-3.863,20.82-11.673,25.287-29.862,41.848-27.057,69.684,0.536,5.325,1.29,8.75,3.372,12.256q0.65,1.049,1.4,2.109a56.9,56.9,0,0,0,5.155,5.9c8.06,8.262,18.164,15.105,20.106,26.77h-0.031c0.975,5.6.069,12.3-3.863,20.82-11.672,25.287-29.861,41.848-27.057,69.684,0.537,5.325,1.29,8.751,3.372,12.257q0.651,1.048,1.4,2.108a56.705,56.705,0,0,0,5.156,5.9c8.06,8.263,18.163,15.105,20.1,26.77h-0.03c0.974,5.6.069,12.3-3.863,20.82-11.673,25.287-29.862,41.849-27.057,69.684,0.536,5.325,1.289,8.751,3.371,12.256q0.651,1.048,1.405,2.109a56.8,56.8,0,0,0,5.155,5.9l-19.06,1.218H168.7A53.93,53.93,0,0,1,164.1,408.422Zm129.64-290.54c0.537,5.325,1.29,8.75,3.372,12.256q0.651,1.048,1.405,2.109a56.665,56.665,0,0,0,5.155,5.9c8.059,8.262,18.163,15.1,20.105,26.77h-0.03c0.974,5.595.069,12.3-3.863,20.819-11.673,25.287-29.861,41.848-27.057,69.684,0.536,5.325,1.289,8.751,3.371,12.256q0.651,1.05,1.4,2.109a56.785,56.785,0,0,0,5.155,5.9c8.06,8.262,18.164,15.105,20.105,26.77h-0.03c0.975,5.6.069,12.3-3.863,20.82-11.672,25.287-29.861,41.849-27.057,69.684,0.537,5.325,1.29,8.751,3.372,12.256q0.651,1.049,1.4,2.109a56.705,56.705,0,0,0,5.156,5.9l-8.216.525H272.51a49.947,49.947,0,0,1-3.941-4.625q-0.755-1.059-1.405-2.109c-2.082-3.5-2.835-6.931-3.371-12.256-2.805-27.836,15.384-44.4,27.057-69.684,3.931-8.518,4.838-15.225,3.863-20.82h0.03c-1.942-11.665-12.045-18.507-20.105-26.77a56.825,56.825,0,0,1-5.156-5.9q-0.753-1.059-1.4-2.108c-2.082-3.506-2.835-6.931-3.372-12.257-2.8-27.835,15.385-44.4,27.057-69.684,3.932-8.517,4.838-15.224,3.864-20.82h0.029c-1.941-11.665-12.045-18.507-20.105-26.77a56.8,56.8,0,0,1-5.155-5.9q-0.755-1.061-1.405-2.11c-2.082-3.5-2.835-6.93-3.371-12.255-2.326-23.092,9.792-38.428,20.655-57.419h27.083C302.778,80.436,291.487,95.523,293.739,117.882Z"/>
  <path id="Line" class="cls-3" d="M383.986,389a40,40,0,0,1-40,40h-344V281H0v-5.014H11v-0.012A36.491,36.491,0,0,0,11,203v-0.013H0V196H-0.014V47H139.477a53.976,53.976,0,0,1,107.046,0H383.986V389Zm-17-325h-137V53h-0.012A36.491,36.491,0,0,0,157,53h-0.013V64h-139V185.619a53.971,53.971,0,0,1,0,106.762V412h324a25,25,0,0,0,25-25V64Z"/>
</svg>
