<svg xmlns="http://www.w3.org/2000/svg" width="430" height="382" viewBox="0 0 430 382">
  <defs>
    <style>
      .cls-1 {
        fill: #ff839d;
      }

      .cls-1, .cls-10, .cls-2, .cls-3, .cls-4, .cls-5, .cls-6, .cls-7, .cls-8, .cls-9 {
        fill-rule: evenodd;
      }

      .cls-2 {
        fill: #ff7c97;
      }

      .cls-3 {
        fill: #fc7192;
      }

      .cls-4 {
        fill: #bbe1f6;
      }

      .cls-5 {
        fill: #dff2fa;
      }

      .cls-6 {
        fill: #f2fdff;
      }

      .cls-7 {
        fill: #e8f8ff;
      }

      .cls-8 {
        fill: #ffafc9;
      }

      .cls-9 {
        fill: #90909e;
      }

      .cls-10 {
        fill: #fb8875;
      }
    </style>
  </defs>
  <path id="Ellipse_1_copy_12_копия_3" data-name="Ellipse 1 copy 12 копия 3" class="cls-1" d="M416.476,52V368.48H280.882l-7.192-25.5L240,328l-39,14s-3.926,18.892-5.439,26.48H60.5V325H30L7,300l2-25,23-34H60.5V141H30L7,116,9,91,32,57H60.5V13.52H391V13h26V52h-0.524Z"/>
  <path id="Rectangle_1766_copy_17" data-name="Rectangle 1766 copy 17" class="cls-2" d="M366.8,84.21c-11.672,25.287-29.861,41.848-27.057,69.684,0.537,5.325,1.29,8.75,3.372,12.256q0.651,1.048,1.405,2.109a56.665,56.665,0,0,0,5.155,5.9c8.059,8.262,18.163,15.1,20.105,26.77h-0.03c0.974,5.595.069,12.3-3.863,20.82-11.673,25.287-29.861,41.848-27.057,69.683,0.536,5.326,1.289,8.751,3.371,12.257q0.651,1.049,1.4,2.109a56.683,56.683,0,0,0,5.155,5.9c8.06,8.263,18.164,15.106,20.105,26.771h-0.03c0.975,5.6.069,12.3-3.863,20.819-1.473,3.192-3.051,6.245-4.677,9.2H333.146c1.281-2.393,2.527-4.851,3.7-7.4,3.931-8.518,4.838-15.224,3.863-20.819h0.03c-1.942-11.665-12.045-18.508-20.105-26.771a56.721,56.721,0,0,1-5.156-5.9q-0.753-1.059-1.4-2.108c-2.082-3.506-2.835-6.931-3.372-12.257-2.8-27.835,15.385-44.4,27.057-69.683,3.932-8.518,4.838-15.225,3.864-20.82h0.029c-1.941-11.666-12.045-18.508-20.105-26.77a56.9,56.9,0,0,1-5.155-5.9q-0.755-1.061-1.405-2.109c-2.082-3.506-2.835-6.931-3.371-12.256-2.8-27.836,15.385-44.4,27.057-69.684,3.931-8.517,4.838-15.224,3.863-20.82h0.03c-1.942-11.665-12.046-18.508-20.105-26.77a56.737,56.737,0,0,1-5.156-5.9q-0.753-1.061-1.4-2.109c-2.082-3.506-2.836-6.932-3.372-12.257l28.12-1.8c0.536,5.325,1.289,8.751,3.371,12.256q0.651,1.049,1.4,2.109a56.692,56.692,0,0,0,5.155,5.9c8.06,8.263,18.163,15.105,20.105,26.77h-0.03C371.634,68.986,370.728,75.692,366.8,84.21Zm-104.47-.693c-6.839,14.815-15.909,26.636-21.689,39.483h-27.29c5.792-12.163,14.341-23.564,20.859-37.686,3.932-8.518,4.838-15.224,3.864-20.82h0.03c-1.942-11.665-12.046-18.508-20.106-26.77a56.874,56.874,0,0,1-5.155-5.9q-0.754-1.061-1.405-2.109c-2.081-3.505-2.835-6.931-3.371-12.257l28.119-1.8c0.537,5.325,1.29,8.751,3.372,12.256q0.651,1.049,1.4,2.109a56.8,56.8,0,0,0,5.156,5.9c8.059,8.262,18.163,15.1,20.1,26.77h-0.03C267.164,68.293,266.257,75,262.326,83.517Zm-101.815-.675c-11.672,25.287-29.861,41.848-27.057,69.683,0.537,5.326,1.29,8.751,3.372,12.257q0.651,1.047,1.4,2.109a56.826,56.826,0,0,0,5.156,5.9c8.059,8.263,18.163,15.106,20.105,26.771h-0.03c0.975,5.6.069,12.3-3.863,20.821-11.672,25.286-29.861,41.847-27.057,69.683,0.536,5.325,1.29,8.751,3.371,12.256q0.651,1.048,1.405,2.109a56.9,56.9,0,0,0,5.155,5.9c8.06,8.262,18.164,15.105,20.1,26.77h-0.029c0.974,5.6.068,12.3-3.864,20.82-1.7,3.689-3.545,7.188-5.44,10.567H126.121c1.543-2.821,3.041-5.731,4.444-8.77,3.932-8.518,4.837-15.225,3.863-20.82h0.03c-1.942-11.665-12.045-18.507-20.105-26.77a56.705,56.705,0,0,1-5.156-5.9q-0.753-1.06-1.4-2.108c-2.082-3.506-2.835-6.932-3.372-12.257-2.8-27.835,15.385-44.4,27.057-69.684,3.932-8.518,4.838-15.224,3.863-20.82h0.031c-1.942-11.665-12.046-18.508-20.105-26.77a56.6,56.6,0,0,1-5.156-5.9q-0.754-1.059-1.405-2.109c-2.082-3.5-2.834-6.931-3.371-12.256-2.8-27.836,15.385-44.4,27.057-69.684,3.932-8.518,4.838-15.224,3.863-20.82h0.03c-1.942-11.665-12.045-18.508-20.1-26.77a56.757,56.757,0,0,1-5.156-5.9q-0.753-1.061-1.4-2.109c-2.082-3.505-2.835-6.931-3.372-12.257l28.12-1.8c0.536,5.325,1.29,8.751,3.371,12.256q0.653,1.049,1.405,2.109a56.833,56.833,0,0,0,5.155,5.9c8.06,8.263,18.164,15.105,20.1,26.77h-0.03C165.349,67.617,164.443,74.324,160.511,82.842ZM234.314,280a54.935,54.935,0,0,0,.041,10.736c0.537,5.326,1.29,8.751,3.372,12.257q0.651,1.049,1.4,2.108a56.6,56.6,0,0,0,5.156,5.9c8.06,8.263,18.163,15.105,20.1,26.771h-0.03c0.064,0.367.1,0.752,0.144,1.128L240,328l-7.187,2.58c-4.125-6.713-10.9-11.892-16.646-17.784a56.8,56.8,0,0,1-5.155-5.9q-0.755-1.059-1.405-2.108c-2.082-3.506-2.835-6.931-3.371-12.257A54.574,54.574,0,0,1,206.389,280h27.925Z"/>
  <path id="Line" class="cls-3" d="M293,382H275.986V371h-0.012A36.491,36.491,0,0,0,203,371h-0.013v11h-157V336.377a53.971,53.971,0,0,1,0-106.754V153.377a53.971,53.971,0,0,1,0-106.754V0h344a40,40,0,0,1,40,40V382H293ZM412.986,42a25,25,0,0,0-25-25h-324V46H64V63.014H53v0.013A36.491,36.491,0,0,0,53,136v0.013H64V154H63.986v75H64v17.014H53v0.012A36.491,36.491,0,0,0,53,319v0.013H64V337H63.986v28H185.477a53.976,53.976,0,0,1,107.046,0H412.986V42Z"/>
  <path id="Ellipse_1126_copy" data-name="Ellipse 1126 copy" class="cls-4" d="M273.5,283.4c-6.96,0-14.646,1.247-19.606-.4H224.306c-4.959,1.646-12.645.4-19.606,0.4a20.947,20.947,0,0,1-20.723-21.164c0-11.625,11.637-25.98,23.023-26.137V236h63v0.166a7.392,7.392,0,0,1,1.017-.075c11.446,0,23.211,14.455,23.211,26.144A20.948,20.948,0,0,1,273.5,283.4Z"/>
  <path class="cls-5" d="M268.089,223c6.939,13.014,11.208,28.372,11.208,39.054,0,15.755-9.269,21.166-22.736,22.972-5.395.723-11.456-2.457-17.873-2.457-6.876,0-13.36,3.159-19.036,2.292-12.843-1.96-21.589-7.5-21.589-22.807,0-10.682,4.268-26.04,11.208-39.054h58.818Z"/>
  <path class="cls-4" d="M250.293,275.086a93.122,93.122,0,0,1-.39,9.41c-3.561-.759-7.322-1.927-11.215-1.927-3.867,0-7.61,1-11.156,1.719a77.652,77.652,0,0,1-.449-9.2c0-9.618,5.195-17.416,11.6-17.416S250.293,265.468,250.293,275.086Z"/>
  <path id="Shape_1102_copy_3" data-name="Shape 1102 copy 3" class="cls-6" d="M229.663,267.126c-5.1-6-13.965-4.32-15.308-4.041-5.173,1.075-12.092,4.967-12.908,11.389a11.642,11.642,0,0,0,2.725,8.6c3.288,3.749,8.138,4.052,11.992,4.293,4.352,0.271,9.212.575,12.732-2.569C233.462,280.721,234.1,272.337,229.663,267.126Zm18.878,0c5.1-6,13.966-4.32,15.308-4.041,5.174,1.075,12.093,4.967,12.908,11.389a11.634,11.634,0,0,1-2.725,8.6c-3.288,3.749-8.137,4.052-11.992,4.293-4.351.271-9.211,0.575-12.731-2.569C244.743,280.721,244.107,272.337,248.541,267.126Z"/>
  <path id="Фигура_17_copy" data-name="Фигура 17 copy" class="cls-7" d="M280.262,113.658A120.056,120.056,0,0,1,268.177,133h-27.7a18.963,18.963,0,0,1,3.105-6.605c2.471-3.54,5.462-16.778,6.981-30.5,2.064-18.652,3.1-30.5,11.953-40.221,2.506-2.752,9-8.68,15.934-6.787,6.032,1.646,10.052,8.688,12.371,15.3C293.2,70.962,291.667,91.194,280.262,113.658ZM209.959,133a120.126,120.126,0,0,1-12.085-19.342c-11.4-22.464-12.934-42.7-10.562-49.463,2.319-6.616,6.339-13.659,12.371-15.3,6.939-1.893,13.427,4.035,15.934,6.787,8.854,9.72,9.889,21.569,11.953,40.221,1.519,13.719,4.51,26.957,6.981,30.5a13.43,13.43,0,0,1,2,6.605H209.959Z"/>
  <path id="Фигура_17_копия_3_copy" data-name="Фигура 17 копия 3 copy" class="cls-8" d="M260.472,133H248.636c-0.891-1.455-.94-3.394.541-5.687,1.508-2.334,6.052-14.875,7.689-24.553,2.419-14.3,1.012-21.523,8.123-29.2,3.075-3.32,6.524-5.458,9.658-4.52,3.366,1.008,5.654,5.343,7.079,10.736,2.559,9.693-2.057,20.7-10.847,37.313A92.471,92.471,0,0,1,260.472,133Zm-42.808,0a92.469,92.469,0,0,1-10.406-15.91c-8.79-16.613-13.407-27.62-10.847-37.313,1.424-5.393,3.713-9.728,7.078-10.736,3.134-.938,6.584,1.2,9.659,4.52,7.111,7.676,5.7,14.895,8.123,29.2,1.636,9.678,6.181,22.219,7.689,24.553,1.022,1.582,1.095,3.267.84,5.687H217.664Z"/>
  <path id="Фигура_1_копия" data-name="Фигура 1 копия" class="cls-6" d="M282.636,222.482c-17.8,7.756-31.225,10.113-39.126,10.759l-1.034.633s-17.6,2.074-47.357-10.888-24.083-40.759-13.974-60.4a117,117,0,0,1,25.36-33.7C218.054,118.324,237.638,118.009,238.8,118l0.239-.25s20.381,0,32.249,10.861a116.7,116.7,0,0,1,25.282,33.618C306.645,181.821,312.305,209.552,282.636,222.482Z"/>
  <path id="Фигура_1" data-name="Фигура 1" class="cls-9" d="M257.708,203.874c-0.163.25-4.076,6.122-10.209,6.122a11.547,11.547,0,0,1-8.591-3.962C237.169,207.8,234.252,210,230.5,210c-6.849,0-10.154-6-10.292-6.26a1.823,1.823,0,0,1,.935-2.533,2.144,2.144,0,0,1,2.754.852c0.045,0.08,2.358,4.158,6.6,4.158,3.257,0,5.822-3.129,6.5-4.041V196h4v6.226c0.486,0.774,2.728,3.987,6.5,3.987,3.793,0,6.655-4.251,6.683-4.293a2.167,2.167,0,0,1,2.826-.637A1.8,1.8,0,0,1,257.708,203.874Z"/>
  <path id="Фигура_18_копия_2" data-name="Фигура 18 копия 2" class="cls-10" d="M247.756,192.122c-1.9,2.681-2.167,4.733-4.7,6.269a8.063,8.063,0,0,1-3.515,1.044c0,0.011,0,.022-0.007.033a8.228,8.228,0,0,1-1.175,0,8.035,8.035,0,0,1-3.522-1.049c-2.529-1.543-2.8-3.6-4.7-6.3a4.49,4.49,0,0,1-1.174-3.148,4.887,4.887,0,0,1,2.348-3.148,7.313,7.313,0,0,1,4.7-1.05h7.045l0,0a7.065,7.065,0,0,1,3.524,1.072,4.874,4.874,0,0,1,2.348,3.135A4.458,4.458,0,0,1,247.756,192.122Z"/>
</svg>
