<svg xmlns="http://www.w3.org/2000/svg" width="383" height="429" viewBox="0 0 383 429">
  <defs>
    <style>
      .cls-1 {
        fill: #ff839d;
      }

      .cls-1, .cls-2, .cls-3 {
        fill-rule: evenodd;
      }

      .cls-2 {
        fill: #ff7c97;
      }

      .cls-3 {
        fill: #fc7192;
      }
    </style>
  </defs>
  <path id="Ellipse_1_copy_12_копия_3" data-name="Ellipse 1 copy 12 копия 3" class="cls-1" d="M366.74,325v41.74h-42.6L317,406l-35,16-36-18-5.323-37.26H141.138L134,406,99,422,63,404l-5.323-37.26H15.26V15.26H366.74V57H351L328,91l-2,25,23,25h17.74V241H351l-23,34-2,25,23,25h17.74Z"/>
  <path id="Rectangle_1766_copy_14" data-name="Rectangle 1766 copy 14" class="cls-2" d="M291.807,26.615q0.649,1.049,1.4,2.109a56.812,56.812,0,0,0,5.155,5.9c8.06,8.263,18.164,15.105,20.105,26.77h-0.029c0.974,5.6.068,12.3-3.864,20.82-11.672,25.287-29.861,41.848-27.057,69.684,0.537,5.325,1.29,8.751,3.372,12.256q0.651,1.048,1.405,2.109a56.665,56.665,0,0,0,5.155,5.9c8.06,8.262,18.163,15.1,20.105,26.77h-0.03c0.975,5.595.069,12.3-3.863,20.82-11.672,25.287-29.861,41.848-27.057,69.683,0.537,5.326,1.289,8.751,3.371,12.257q0.651,1.049,1.405,2.109a56.785,56.785,0,0,0,5.155,5.9c8.06,8.262,18.164,15.105,20.105,26.77h-0.029c0.974,5.6.068,12.3-3.864,20.82-10.729,23.243-26.951,39.121-27.326,63.152L282,422l-23.19-11.6c4.321-17.922,16.949-32.1,25.822-51.327,3.931-8.518,4.838-15.224,3.863-20.819h0.03c-1.942-11.665-12.045-18.508-20.1-26.77a56.823,56.823,0,0,1-5.156-5.9q-0.753-1.059-1.4-2.108c-2.082-3.506-2.835-6.931-3.372-12.257-2.8-27.835,15.385-44.4,27.058-69.683,3.931-8.518,4.837-15.225,3.863-20.82h0.03c-1.942-11.666-12.046-18.508-20.106-26.77a56.9,56.9,0,0,1-5.155-5.9q-0.755-1.061-1.4-2.109c-2.082-3.5-2.835-6.931-3.371-12.256-2.8-27.836,15.385-44.4,27.057-69.684,3.932-8.518,4.838-15.224,3.863-20.82h0.03c-1.942-11.665-12.045-18.508-20.1-26.77a56.856,56.856,0,0,1-5.156-5.9q-0.753-1.06-1.4-2.109c-2.082-3.506-2.835-6.932-3.372-12.257l14.009-.9h14.212C289.068,20.067,289.847,23.316,291.807,26.615Zm-104.471-.693q0.651,1.049,1.4,2.109a56.8,56.8,0,0,0,5.156,5.9c8.06,8.262,18.163,15.1,20.105,26.77h-0.03c0.975,5.6.069,12.3-3.863,20.82-11.672,25.287-29.861,41.848-27.057,69.684,0.537,5.325,1.29,8.751,3.372,12.257q0.649,1.047,1.4,2.108a56.9,56.9,0,0,0,5.155,5.9c8.06,8.262,18.164,15.105,20.106,26.77h-0.031c0.975,5.595.069,12.3-3.863,20.82-11.672,25.287-29.861,41.848-27.057,69.683,0.537,5.326,1.29,8.751,3.372,12.257q0.651,1.049,1.4,2.109a56.826,56.826,0,0,0,5.156,5.9c8.06,8.263,18.163,15.106,20.105,26.771h-0.03c0.975,5.6.069,12.3-3.863,20.821-1.633,3.537-3.4,6.9-5.208,10.151H175.942c1.463-2.692,2.885-5.464,4.219-8.354,3.932-8.519,4.838-15.225,3.864-20.821h0.03c-1.942-11.665-12.046-18.508-20.106-26.77a56.8,56.8,0,0,1-5.155-5.9q-0.755-1.059-1.4-2.108c-2.083-3.506-2.836-6.931-3.372-12.256-2.8-27.836,15.385-44.4,27.057-69.684,3.932-8.518,4.838-15.225,3.863-20.821h0.03c-1.942-11.666-12.045-18.508-20.1-26.77a56.785,56.785,0,0,1-5.155-5.9q-0.754-1.059-1.405-2.109c-2.082-3.5-2.835-6.931-3.371-12.256-2.8-27.836,15.384-44.4,27.056-69.684,3.932-8.518,4.838-15.224,3.864-20.82h0.03c-1.942-11.665-12.045-18.508-20.106-26.77a56.874,56.874,0,0,1-5.155-5.9q-0.755-1.061-1.4-2.109c-2.082-3.505-2.836-6.931-3.372-12.257l3.16-.2h25.137C184.674,19.694,185.471,22.782,187.336,25.921ZM63.962,35.049a56.8,56.8,0,0,1-5.156-5.9q-0.754-1.061-1.4-2.109c-2.018-3.4-2.785-6.735-3.319-11.783H82.414a24.426,24.426,0,0,0,3.107,9.986q0.652,1.049,1.4,2.109a56.711,56.711,0,0,0,5.155,5.9c8.059,8.263,18.163,15.105,20.1,26.77h-0.029c0.974,5.6.068,12.3-3.864,20.82-11.672,25.287-29.86,41.848-27.057,69.684,0.537,5.325,1.29,8.75,3.372,12.256q0.651,1.048,1.4,2.109a56.835,56.835,0,0,0,5.156,5.9c8.06,8.262,18.163,15.1,20.1,26.77h-0.03c0.975,5.595.069,12.3-3.863,20.82-11.672,25.286-29.861,41.847-27.057,69.683,0.536,5.325,1.289,8.751,3.371,12.256q0.651,1.05,1.405,2.109a56.78,56.78,0,0,0,5.155,5.9c8.06,8.262,18.163,15.105,20.1,26.77H110.33c0.974,5.6.068,12.3-3.864,20.82-9.7,21-23.876,36-26.8,56.421L63,404l-2.156-15.094c5.439-9.85,12.154-19.606,17.5-31.2,3.932-8.518,4.838-15.225,3.863-20.82h0.03c-1.942-11.665-12.045-18.507-20.105-26.77a56.762,56.762,0,0,1-5.156-5.9q-0.754-1.059-1.4-2.108c-2.082-3.506-2.835-6.932-3.372-12.257-2.8-27.835,15.385-44.4,27.057-69.684,3.932-8.517,4.838-15.224,3.863-20.82h0.03c-1.942-11.665-12.046-18.508-20.105-26.77a56.593,56.593,0,0,1-5.156-5.9q-0.754-1.059-1.4-2.109c-2.082-3.5-2.835-6.93-3.372-12.255-2.8-27.837,15.385-44.4,27.057-69.684,3.932-8.518,4.838-15.224,3.863-20.82h0.03C82.125,50.154,72.022,43.311,63.962,35.049Z"/>
  <path id="Line" class="cls-3" d="M372,319v0.013h11V326h0v56H335.523a53.976,53.976,0,0,1-107.046,0H153.523a53.975,53.975,0,0,1-107.046,0H0V40A40,40,0,0,1,40,0H383V55h0v8.014H372v0.013A36.491,36.491,0,0,0,372,136v0.013h11V143h0v97h0v6.014H372v0.012A36.491,36.491,0,0,0,372,319Zm-7-89.38V153.379a53.971,53.971,0,0,1,0-106.758V17H42A25,25,0,0,0,17,42V365H63.014v11h0.013A36.491,36.491,0,0,0,136,376h0.013V365h109v11h0.012A36.491,36.491,0,0,0,318,376h0.013V365H365V336.379A53.971,53.971,0,0,1,365,229.621Z"/>
</svg>
