<svg xmlns="http://www.w3.org/2000/svg" width="429" height="382" viewBox="0 0 429 382">
  <defs>
    <style>
      .cls-1 {
        fill: #ff839d;
      }

      .cls-1, .cls-2, .cls-3 {
        fill-rule: evenodd;
      }

      .cls-2 {
        fill: #ff7c97;
      }

      .cls-3 {
        fill: #fc7192;
      }
    </style>
  </defs>
  <path id="Ellipse_1_copy_12_копия_3" data-name="Ellipse 1 copy 12 копия 3" class="cls-1" d="M403,227l-35.974,10.716v129.31H14.974V14.974H55.906L68,44,99,57l30-12,16.681-30.026h91.225L249,44l31,13,30-12,16.681-30.026h40.345V145.582L402,156l18,36Z"/>
  <path id="Rectangle_1766_copy_16" data-name="Rectangle 1766 copy 16" class="cls-2" d="M107.38,136.365c-11.672,25.287-29.861,41.848-27.057,69.684,0.536,5.325,1.289,8.751,3.371,12.256q0.651,1.048,1.405,2.109a56.78,56.78,0,0,0,5.155,5.9c8.06,8.262,18.163,15.1,20.1,26.77H110.33c0.974,5.595.068,12.3-3.864,20.82-11.672,25.287-29.861,41.848-27.056,69.684,0.536,5.324,1.29,8.75,3.371,12.256q0.651,1.048,1.4,2.109a56.878,56.878,0,0,0,5.155,5.9l-28.119,1.8a56.8,56.8,0,0,1-5.156-5.9q-0.754-1.06-1.4-2.109c-2.082-3.506-2.835-6.932-3.372-12.257-2.8-27.835,15.385-44.4,27.057-69.683,3.932-8.518,4.838-15.225,3.863-20.82h0.03c-1.942-11.665-12.045-18.508-20.105-26.77a56.866,56.866,0,0,1-5.156-5.9q-0.754-1.061-1.4-2.109c-2.082-3.506-2.835-6.931-3.372-12.256-2.8-27.836,15.385-44.4,27.057-69.684,3.932-8.518,4.838-15.224,3.863-20.82h0.03c-1.942-11.665-12.046-18.508-20.105-26.77a56.706,56.706,0,0,1-5.156-5.9q-0.754-1.06-1.4-2.109c-2.082-3.505-2.835-6.931-3.372-12.256-1.53-15.191,3.2-27.025,9.7-38.751L68,44l14.491,6.077a54.057,54.057,0,0,0-1.254,18.437c0.537,5.325,1.29,8.751,3.372,12.257q0.651,1.048,1.4,2.109a56.763,56.763,0,0,0,5.156,5.9c8.06,8.262,18.163,15.1,20.1,26.77h-0.03C112.218,121.14,111.312,127.847,107.38,136.365Zm101.814,0.675c-11.672,25.287-29.861,41.848-27.057,69.684,0.537,5.325,1.29,8.751,3.372,12.257q0.651,1.049,1.4,2.108a56.825,56.825,0,0,0,5.156,5.9c8.06,8.263,18.163,15.105,20.105,26.77h-0.03c0.975,5.6.069,12.3-3.863,20.82-11.673,25.287-29.861,41.849-27.057,69.684,0.536,5.325,1.289,8.751,3.371,12.256q0.651,1.048,1.405,2.11a56.81,56.81,0,0,0,5.156,5.9l-28.12,1.8a56.681,56.681,0,0,1-5.155-5.9q-0.755-1.059-1.405-2.109c-2.082-3.5-2.835-6.931-3.371-12.257-2.8-27.835,15.384-44.4,27.056-69.683,3.932-8.518,4.838-15.224,3.864-20.82h0.03c-1.942-11.665-12.046-18.507-20.106-26.769a56.8,56.8,0,0,1-5.155-5.9q-0.755-1.059-1.4-2.108c-2.083-3.506-2.836-6.932-3.372-12.257-2.8-27.835,15.385-44.4,27.057-69.683,3.932-8.518,4.838-15.225,3.863-20.821h0.03c-1.942-11.665-12.045-18.507-20.1-26.77a56.682,56.682,0,0,1-5.155-5.9q-0.754-1.06-1.405-2.109c-2.082-3.505-2.835-6.931-3.371-12.256-2.269-22.519,9.2-37.661,19.846-56.012h27.071c-10.334,17.556-20.992,32.434-18.8,54.215,0.537,5.325,1.29,8.751,3.372,12.257q0.649,1.048,1.4,2.109a56.853,56.853,0,0,0,5.155,5.9c8.06,8.263,18.164,15.105,20.106,26.77h-0.031C214.032,121.816,213.126,128.522,209.194,137.04Zm104.471,0.693c-11.672,25.287-29.861,41.848-27.057,69.684,0.537,5.326,1.289,8.751,3.371,12.257q0.651,1.048,1.405,2.108a56.785,56.785,0,0,0,5.155,5.9c8.06,8.262,18.164,15.1,20.105,26.77h-0.029c0.974,5.6.068,12.3-3.864,20.82-11.672,25.287-29.861,41.849-27.057,69.684,0.537,5.325,1.29,8.751,3.372,12.256q0.651,1.049,1.405,2.109a56.562,56.562,0,0,0,5.155,5.9l-28.12,1.8a56.9,56.9,0,0,1-5.155-5.9q-0.755-1.059-1.4-2.109c-2.082-3.5-2.835-6.931-3.371-12.256-2.8-27.836,15.385-44.4,27.057-69.684,3.931-8.518,4.838-15.225,3.863-20.819h0.03c-1.942-11.666-12.045-18.508-20.1-26.771a56.721,56.721,0,0,1-5.156-5.9q-0.753-1.059-1.4-2.108c-2.082-3.506-2.835-6.931-3.372-12.257-2.8-27.835,15.385-44.4,27.058-69.684,3.931-8.517,4.837-15.224,3.863-20.82h0.03c-1.942-11.665-12.046-18.507-20.106-26.769a56.843,56.843,0,0,1-5.155-5.9q-0.755-1.06-1.4-2.109c-2.082-3.505-2.835-6.931-3.371-12.256a54.408,54.408,0,0,1,2.344-22.334L280,57l8.28-3.312a54.122,54.122,0,0,0-.759,16.194c0.537,5.325,1.29,8.751,3.372,12.256q0.651,1.048,1.405,2.109a56.614,56.614,0,0,0,5.155,5.9c8.06,8.263,18.163,15.105,20.105,26.77h-0.03C318.5,122.509,317.6,129.216,313.665,137.733Z"/>
  <path id="Line" class="cls-3" d="M429,192a53.986,53.986,0,0,1-46,53.379V382H40A40,40,0,0,1,0,342V0H63.014V11h0.013A36.491,36.491,0,0,0,136,11h0.013V0h109V11h0.012A36.491,36.491,0,0,0,318,11h0.013V0H383V138.621A53.986,53.986,0,0,1,429,192Zm-53-36v-0.013H365V17H335.523a53.976,53.976,0,0,1-107.046,0H153.523A53.975,53.975,0,0,1,46.477,17H17V340a25,25,0,0,0,25,25H365V228.986h11v-0.012A36.491,36.491,0,0,0,376,156Z"/>
</svg>
