<svg xmlns="http://www.w3.org/2000/svg" width="429" height="382" viewBox="0 0 429 382">
  <defs>
    <style>
      .cls-1 {
        fill: #b2e121;
      }

      .cls-1, .cls-2, .cls-3 {
        fill-rule: evenodd;
      }

      .cls-2 {
        fill: #a9dd1d;
      }

      .cls-3 {
        fill: #9fd311;
      }
    </style>
  </defs>
  <path id="Ellipse_1_copy_12_копия_3" data-name="Ellipse 1 copy 12 копия 3" class="cls-1" d="M403,227l-35.974,10.716v129.31H14.974V14.974H55.906L68,44,99,57l30-12,16.681-30.026h91.225L249,44l31,13,30-12,16.681-30.026h40.345V145.582L402,156l18,36Z"/>
  <path id="Rectangle_1766_copy_16" data-name="Rectangle 1766 copy 16" class="cls-2" d="M415.156,199.742a59.8,59.8,0,0,0-6.2-5.423q-1.116-.793-2.22-1.477c-3.688-2.191-7.292-2.983-12.9-3.547-29.286-2.95-46.711,16.182-73.316,28.46-8.962,4.136-16.018,5.089-21.905,4.063v0.032c-12.273-2.042-19.473-12.67-28.166-21.148a59.691,59.691,0,0,0-6.2-5.422q-1.115-.793-2.219-1.478c-3.688-2.189-7.292-2.982-12.895-3.546-29.287-2.95-46.711,16.182-73.316,28.46-8.962,4.136-16.018,5.088-21.906,4.063v0.032c-12.273-2.043-19.473-12.67-28.166-21.148a59.691,59.691,0,0,0-6.2-5.422q-1.116-.794-2.218-1.478c-3.689-2.189-7.293-2.982-12.9-3.546-29.287-2.95-46.711,16.182-73.316,28.46-6.214,2.867-11.51,4.2-16.137,4.411V194.53c5.064,0.111,10.949-1.164,18.027-4.431,26.6-12.277,44.029-31.409,73.317-28.459,5.6,0.564,9.206,1.356,12.894,3.546q1.1,0.684,2.219,1.478a59.469,59.469,0,0,1,6.2,5.422c8.694,8.478,15.893,19.1,28.166,21.147V193.2c5.887,1.025,12.944.072,21.906-4.064,26.605-12.277,44.029-31.409,73.316-28.459,5.6,0.564,9.206,1.356,12.9,3.546q1.1,0.684,2.218,1.477a59.713,59.713,0,0,1,6.2,5.423c8.693,8.478,15.892,19.1,28.166,21.148v-0.032c5.887,1.025,12.943.072,21.906-4.064,26.6-12.277,44.029-31.409,73.315-28.459a38.519,38.519,0,0,1,9,1.732l11.418,22.837ZM14.974,304.393c5.226,0.256,11.336-.982,18.756-4.406,26.6-12.278,44.029-31.41,73.317-28.46,5.6,0.564,9.207,1.356,12.894,3.545q1.1,0.687,2.22,1.478a59.818,59.818,0,0,1,6.2,5.423c8.693,8.478,15.892,19.1,28.165,21.148v-0.032c5.887,1.025,12.944.072,21.906-4.063,26.6-12.278,44.029-31.41,73.316-28.46,5.6,0.564,9.207,1.356,12.895,3.546q1.1,0.685,2.218,1.477a59.73,59.73,0,0,1,6.2,5.423c8.693,8.478,15.893,19.105,28.166,21.148v-0.032c5.886,1.025,12.942.072,21.905-4.063,16.484-7.607,29.445-17.841,43.885-23.828v28.825c-15.211,5.849-28.577,16.643-45.776,24.58-8.962,4.136-16.018,5.089-21.9,4.064v0.031c-12.273-2.042-19.473-12.67-28.166-21.147a59.6,59.6,0,0,0-6.2-5.423q-1.115-.793-2.219-1.477c-3.688-2.19-7.292-2.982-12.895-3.547-29.287-2.949-46.711,16.182-73.316,28.46-8.962,4.136-16.018,5.089-21.9,4.063V332.7c-12.273-2.043-19.472-12.67-28.166-21.148a59.691,59.691,0,0,0-6.2-5.422q-1.116-.793-2.219-1.478c-3.688-2.189-7.292-2.981-12.895-3.546-29.286-2.95-46.711,16.182-73.316,28.46C25.3,332.584,19.772,333.9,14.974,334v-29.6ZM367.026,56.68V85.546c-15.815,5.7-29.476,16.929-47.216,25.115-8.961,4.136-16.018,5.089-21.905,4.064v0.031c-12.273-2.041-19.473-12.669-28.165-21.147a59.7,59.7,0,0,0-6.2-5.423q-1.115-.794-2.218-1.478c-3.689-2.189-7.293-2.981-12.9-3.546-29.286-2.95-46.711,16.182-73.316,28.459-8.962,4.136-16.018,5.089-21.9,4.064v0.031c-12.273-2.042-19.472-12.67-28.165-21.147a59.687,59.687,0,0,0-6.2-5.423q-1.114-.793-2.218-1.477c-3.689-2.19-7.293-2.982-12.9-3.546C74.43,81.174,57.005,100.306,30.4,112.583a44.354,44.354,0,0,1-15.426,4.367v-29.5c4.9-.019,10.569-1.327,17.317-4.442,22.658-10.456,38.663-25.874,61-28.4L99,57l6.212-2.485c0.133,0.013.262,0.018,0.395,0.031,5.6,0.565,9.207,1.356,12.895,3.546q1.1,0.685,2.219,1.477a59.744,59.744,0,0,1,6.2,5.423c8.693,8.477,15.892,19.105,28.166,21.147V86.108c5.888,1.025,12.944.072,21.906-4.063,26.6-12.278,44.03-31.41,73.316-28.46,5.6,0.564,9.207,1.356,12.895,3.546q1.1,0.684,2.219,1.477a59.707,59.707,0,0,1,6.2,5.423c8.694,8.478,15.893,19.1,28.166,21.147V85.148c5.886,1.025,12.943.072,21.905-4.064C338.73,73.226,352,62.567,367.026,56.68Z"/>
  <path id="Line" class="cls-3" d="M429,192a53.986,53.986,0,0,1-46,53.379V382H40A40,40,0,0,1,0,342V0H63.014V11h0.013A36.491,36.491,0,0,0,136,11h0.013V0h109V11h0.012A36.491,36.491,0,0,0,318,11h0.013V0H383V138.621A53.986,53.986,0,0,1,429,192Zm-53-36v-0.013H365V17H335.523a53.976,53.976,0,0,1-107.046,0H153.523A53.975,53.975,0,0,1,46.477,17H17V340a25,25,0,0,0,25,25H365V228.986h11v-0.012A36.491,36.491,0,0,0,376,156Z"/>
</svg>
