<svg xmlns="http://www.w3.org/2000/svg" width="430" height="382" viewBox="0 0 430 382">
  <defs>
    <style>
      .cls-1 {
        fill: #b2e121;
      }

      .cls-1, .cls-10, .cls-2, .cls-3, .cls-4, .cls-5, .cls-6, .cls-7, .cls-8, .cls-9 {
        fill-rule: evenodd;
      }

      .cls-2 {
        fill: #a9dd1d;
      }

      .cls-3 {
        fill: #f15e7d;
      }

      .cls-4 {
        fill: #fff;
      }

      .cls-5 {
        fill: #ffb6d7;
        opacity: 0.74;
      }

      .cls-6 {
        fill: #fdfcfd;
      }

      .cls-7 {
        fill: #ff9ac7;
      }

      .cls-8 {
        fill: #f7ebaa;
      }

      .cls-9 {
        fill: #b4956b;
      }

      .cls-10 {
        fill: #9fd311;
      }
    </style>
  </defs>
  <path id="Ellipse_1_copy_12_копия_3" data-name="Ellipse 1 copy 12 копия 3" class="cls-1" d="M416.476,52V368.48H280.882l-7.192-25.5L240,328l-39,14s-3.926,18.892-5.439,26.48H60.5V325H30L7,300l2-25,23-34H60.5V141H30L7,116,9,91,32,57H60.5V13.52H391V13h26V52h-0.524Z"/>
  <path id="Rectangle_1766_copy_17" data-name="Rectangle 1766 copy 17" class="cls-2" d="M401.163,328.311c-26.605-12.277-44.03-31.409-73.316-28.459-5.6.564-9.207,1.356-12.9,3.546q-1.1.684-2.218,1.478a59.793,59.793,0,0,0-6.2,5.422c-8.693,8.478-15.892,19.105-28.165,21.147v-0.031c-5.887,1.025-12.943.072-21.9-4.063-26.605-12.278-44.029-31.41-73.316-28.46-5.6.564-9.207,1.356-12.895,3.546q-1.1.685-2.219,1.477a59.715,59.715,0,0,0-6.2,5.423c-8.693,8.478-15.893,19.105-28.166,21.148v-0.032c-5.888,1.025-12.944.073-21.9-4.063-26.6-12.278-44.03-31.41-73.317-28.46-5.6.564-9.207,1.356-12.895,3.546q-1.1.685-2.219,1.478a59.722,59.722,0,0,0-6.2,5.422L15.228,278.8a59.616,59.616,0,0,1,6.2-5.423q1.115-.793,2.219-1.478c3.688-2.189,7.292-2.981,12.9-3.545,29.287-2.95,46.711,16.182,73.316,28.459,8.962,4.136,16.019,5.089,21.905,4.064v0.031c12.273-2.042,19.473-12.67,28.166-21.147a59.61,59.61,0,0,1,6.205-5.423q1.114-.793,2.218-1.478c3.688-2.189,7.292-2.982,12.9-3.546,29.286-2.95,46.711,16.183,73.316,28.46,8.962,4.136,16.018,5.089,21.906,4.064v0.031c12.273-2.042,19.472-12.67,28.165-21.147a59.7,59.7,0,0,1,6.2-5.423q1.116-.793,2.219-1.478c3.688-2.19,7.292-2.981,12.9-3.546,29.287-2.949,46.712,16.183,73.317,28.46,6.7,3.09,12.327,4.4,17.2,4.441v29.5A44.481,44.481,0,0,1,401.163,328.311ZM328.576,189.964c-5.6.565-9.207,1.357-12.9,3.547q-1.1.684-2.218,1.477a59.715,59.715,0,0,0-6.2,5.423c-8.694,8.478-15.893,19.1-28.166,21.148v-0.033A25.944,25.944,0,0,1,275,221.9V192.232q1.128-.1,2.2-0.283v0.032c12.273-2.042,19.472-12.67,28.165-21.148a59.794,59.794,0,0,1,6.2-5.422q1.116-.793,2.219-1.478c3.688-2.19,7.292-2.982,12.895-3.546,29.287-2.949,46.712,16.182,73.317,28.46,6.366,2.938,11.767,4.263,16.474,4.421v29.456a45.491,45.491,0,0,1-14.584-4.3C375.287,206.147,357.862,187.015,328.576,189.964ZM367,91.418V62.852c10.667,5.8,21.169,13.113,33.712,18.9a43.906,43.906,0,0,0,15.764,4.39v29.408a46.444,46.444,0,0,1-13.873-4.22C389.32,105.2,378.325,97.364,367,91.418Zm-87.2,23.047v-0.032c-5.887,1.025-12.943.073-21.906-4.063-26.6-12.277-44.029-31.409-73.315-28.46-4.437.447-7.618,1.049-10.582,2.362V53.951a39.8,39.8,0,0,1,8.691-1.618c29.286-2.95,46.711,16.182,73.316,28.46,8.962,4.136,16.018,5.088,21.906,4.063v0.032C289.2,83.01,296.191,73.881,304,65.833V97.387C296.916,104.892,290.168,112.74,279.8,114.465ZM225,170.9v28.51c-12.455-6.943-24.991-12.027-41.129-10.4-5.6.565-9.207,1.357-12.9,3.547q-1.1.684-2.219,1.477a59.715,59.715,0,0,0-6.2,5.423c-8.693,8.478-15.893,19.105-28.166,21.147v-0.031c-5.887,1.025-12.944.072-21.9-4.063-19.5-9-34.068-21.666-51.986-26.637V160.843c17.065,5.308,31.288,17.4,50.1,26.082,8.962,4.136,16.018,5.089,21.906,4.064v0.031c12.273-2.042,19.473-12.67,28.166-21.148a59.587,59.587,0,0,1,6.2-5.422q1.115-.793,2.218-1.477c3.689-2.191,7.292-2.983,12.895-3.547C198.935,157.719,211.914,163.415,225,170.9ZM39.876,80.949c-5.6.564-9.207,1.356-12.895,3.546q-1.1.685-2.219,1.477a59.783,59.783,0,0,0-6.2,5.423L17.71,78.125,32,57H60.5V53.525C77.88,58.714,92.233,71.032,111.3,79.832c1.628,0.751,3.191,1.395,4.7,1.943v28.846c-0.916-.371-1.849-0.77-2.808-1.212C86.588,97.132,69.163,78,39.876,80.949Z"/>
  <path class="cls-3" d="M264.785,281.211s8.19-1.854,7.445-6.7-0.5-9.792,4.355-10.984c1.161-.233,1.1-0.3,1.035-2.258s0.551-5.96,5.671-4.914,4.2,5.433,4.4,6.8a3.615,3.615,0,0,0,2.088,2.6c0.581,0.151,3.078,2.494,2.054,6.544s-6.414,21.331-27.774,11.993C262.846,281.971,264.785,281.211,264.785,281.211Z"/>
  <path class="cls-3" d="M204.064,270.458s0.638-5.287-5.753-4.8-13.364-1.83-14.28-6.574,0.406-4.093,1.813-4.55,5.252-.329,3.753-6.2-5.268-38.159,13.852-46.2c10.112,18.6,17.815,34.315,17.815,34.315l-3.683,30.783Z"/>
  <path id="Rounded_Rectangle_12" data-name="Rounded Rectangle 12" class="cls-4" d="M228.374,254.828h21.965a18,18,0,0,1,18,18v19.8a3.6,3.6,0,0,1-3.6,3.6h-50.77a3.6,3.6,0,0,1-3.6-3.6v-19.8A18,18,0,0,1,228.374,254.828Z"/>
  <path id="Rounded_Rectangle_12_copy" data-name="Rounded Rectangle 12 copy" class="cls-5" d="M239.629,272.232c4.822,0,8.731,5.191,8.731,11.6V296.37H230.9V283.828C230.9,277.423,234.807,272.232,239.629,272.232Z"/>
  <path id="Rounded_Rectangle_12_copy_3" data-name="Rounded Rectangle 12 copy 3" class="cls-3" d="M219.732,282.468h1.8a9.722,9.722,0,0,1,9.722,9.722v4.32H212.891a2.88,2.88,0,0,1-2.881-2.88v-1.44A9.722,9.722,0,0,1,219.732,282.468Zm37.808,0h1.8a9.721,9.721,0,0,1,9.722,9.722v1.44a2.879,2.879,0,0,1-2.88,2.88H247.818v-4.32A9.722,9.722,0,0,1,257.54,282.468Z"/>
  <path class="cls-6" d="M269.428,189c10.4,14.036,12.6,34.452,12.6,44.919,0,16.9-19.023,30.606-42.489,30.606s-42.488-13.7-42.488-30.606c0-10.467,2.2-30.883,12.6-44.919h59.783Z"/>
  <path id="Ellipse_11_copy" data-name="Ellipse 11 copy" class="cls-6" d="M198.955,178.744c4.368-.833,8.307,1.465,9.848,7.959s0.1,14.721-4.268,15.555-10.01-6.045-11.55-12.538S194.587,179.577,198.955,178.744Zm78.739,0c-4.372-.834-8.313,1.466-9.855,7.962s-0.1,14.729,4.271,15.563,10.017-6.048,11.558-12.544S282.065,179.578,277.694,178.744Z"/>
  <path class="cls-3" d="M199.841,202.092s5.962,0.624,9.1-1.713,5.794-2.761,6.652-.343,1.9,7.123,4.9,8.909,4.476,0.576,4.9-1.371-1.836-9.78,16.455-10.621a27.016,27.016,0,0,1,12.954,2.4c5.337,2.277,22.908,4.309,17.505-19.187-1.456-5.015-3.682-9.659-5.952-6.51s-7.566,8.285-13.3,1.028c-5.737-8.222-26.07-18.571-36.41,3.084,0,0,.36.749-2.1,0.685s-10.344-.3-12.6,11.992c-0.427,4.979.173,6.573-2.1,8.223S198.431,201.954,199.841,202.092Z"/>
  <path class="cls-7" d="M239.458,169c4.826,0,9,16.453,9,27.981s-5.934,10.437-9,10.437-9,1.091-9-10.437S234.631,169,239.458,169Z"/>
  <path class="cls-8" d="M269.366,255.712c-7.672,5.449-18.2,8.813-29.83,8.813s-22.158-3.364-29.829-8.813a18.2,18.2,0,0,1-.777-5.229c0-12.926,13.7-23.4,30.606-23.4s30.606,10.479,30.606,23.405A18.232,18.232,0,0,1,269.366,255.712Z"/>
  <path id="Фигура_535" data-name="Фигура 535" class="cls-9" d="M239,254c-8.479,0-12.571-8.006-12.741-8.346a2.51,2.51,0,0,1,1.157-3.379,2.562,2.562,0,0,1,3.41,1.136c0.056,0.108,2.919,5.544,8.174,5.544,4.7,0,8.24-5.667,8.275-5.724a2.568,2.568,0,0,1,3.5-.849,2.5,2.5,0,0,1,.867,3.454C251.437,246.165,246.592,254,239,254Z"/>
  <path class="cls-3" d="M358.785,155.211s8.19-1.854,7.445-6.7-0.5-9.792,4.355-10.984c1.161-.233,1.1-0.3,1.035-2.258s0.551-5.96,5.671-4.914,4.2,5.433,4.4,6.8a3.615,3.615,0,0,0,2.088,2.6c0.581,0.151,3.078,2.494,2.054,6.544s-6.414,21.331-27.774,11.993C356.846,155.971,358.785,155.211,358.785,155.211Z"/>
  <path class="cls-3" d="M298.064,144.458s0.638-5.287-5.753-4.8-13.364-1.83-14.28-6.574,0.406-4.093,1.813-4.55,5.252-.329,3.753-6.2-5.268-38.159,13.852-46.2c10.112,18.6,17.815,34.315,17.815,34.315l-3.683,30.783Z"/>
  <path id="Rounded_Rectangle_12-2" data-name="Rounded Rectangle 12" class="cls-4" d="M322.374,128.828h21.965a18,18,0,0,1,18,18v19.8a3.6,3.6,0,0,1-3.6,3.6h-50.77a3.6,3.6,0,0,1-3.6-3.6v-19.8A18,18,0,0,1,322.374,128.828Z"/>
  <path id="Rounded_Rectangle_12_copy-2" data-name="Rounded Rectangle 12 copy" class="cls-5" d="M333.629,146.232c4.822,0,8.731,5.191,8.731,11.6V170.37H324.9V157.828C324.9,151.423,328.807,146.232,333.629,146.232Z"/>
  <path id="Rounded_Rectangle_12_copy_3-2" data-name="Rounded Rectangle 12 copy 3" class="cls-3" d="M313.732,156.468h1.8a9.722,9.722,0,0,1,9.722,9.722v4.32H306.891a2.88,2.88,0,0,1-2.881-2.88v-1.44A9.722,9.722,0,0,1,313.732,156.468Zm37.808,0h1.8a9.721,9.721,0,0,1,9.722,9.722v1.44a2.879,2.879,0,0,1-2.88,2.88H341.818v-4.32A9.722,9.722,0,0,1,351.54,156.468Z"/>
  <path class="cls-6" d="M363.428,63c10.4,14.036,12.6,34.452,12.6,44.919,0,16.9-19.023,30.606-42.489,30.606s-42.488-13.7-42.488-30.606c0-10.467,2.2-30.883,12.6-44.919h59.783Z"/>
  <path id="Ellipse_11_copy-2" data-name="Ellipse 11 copy" class="cls-6" d="M292.955,52.744c4.368-.833,8.307,1.465,9.848,7.958s0.1,14.722-4.268,15.555-10.01-6.044-11.55-12.537S288.587,53.577,292.955,52.744Zm78.739,0c-4.372-.834-8.313,1.466-9.855,7.962s-0.1,14.729,4.271,15.562,10.017-6.047,11.558-12.543S376.065,53.578,371.694,52.744Z"/>
  <path class="cls-3" d="M293.841,76.092s5.962,0.624,9.1-1.713,5.794-2.761,6.652-.343,1.9,7.123,4.9,8.908,4.476,0.576,4.9-1.371-1.836-9.78,16.455-10.621a27.011,27.011,0,0,1,12.954,2.4c5.337,2.276,22.908,4.309,17.5-19.187-1.456-5.016-3.682-9.659-5.952-6.51s-7.566,8.285-13.3,1.028c-5.737-8.222-26.07-18.572-36.41,3.084,0,0,.36.749-2.1,0.685s-10.344-.3-12.6,11.992c-0.427,4.979.173,6.574-2.1,8.223S292.431,75.954,293.841,76.092Z"/>
  <path class="cls-7" d="M333.458,43c4.826,0,9,16.453,9,27.981s-5.934,10.437-9,10.437-9,1.091-9-10.437S328.631,43,333.458,43Z"/>
  <path class="cls-8" d="M363.366,129.712c-7.672,5.449-18.2,8.813-29.83,8.813s-22.158-3.364-29.829-8.813a18.2,18.2,0,0,1-.777-5.229c0-12.926,13.7-23.4,30.606-23.4s30.606,10.479,30.606,23.405A18.232,18.232,0,0,1,363.366,129.712Z"/>
  <path id="Фигура_535-2" data-name="Фигура 535" class="cls-9" d="M333,128c-8.479,0-12.571-8.006-12.741-8.346a2.51,2.51,0,0,1,1.157-3.379,2.562,2.562,0,0,1,3.41,1.136c0.056,0.108,2.919,5.544,8.174,5.544,4.7,0,8.24-5.667,8.275-5.724a2.568,2.568,0,0,1,3.5-.849,2.5,2.5,0,0,1,.867,3.454C345.437,120.165,340.592,128,333,128Z"/>
  <path class="cls-3" d="M173.785,155.211s8.19-1.854,7.445-6.7-0.5-9.792,4.355-10.984c1.161-.233,1.095-0.3,1.035-2.258s0.551-5.96,5.671-4.914,4.2,5.433,4.4,6.8a3.615,3.615,0,0,0,2.088,2.6c0.581,0.151,3.078,2.494,2.054,6.544s-6.414,21.331-27.774,11.993C171.846,155.971,173.785,155.211,173.785,155.211Z"/>
  <path class="cls-3" d="M113.064,144.458s0.638-5.287-5.753-4.8-13.364-1.83-14.28-6.574,0.406-4.093,1.813-4.55,5.252-.329,3.753-6.2-5.268-38.159,13.852-46.2c10.112,18.6,17.815,34.315,17.815,34.315l-3.683,30.783Z"/>
  <path id="Rounded_Rectangle_12-3" data-name="Rounded Rectangle 12" class="cls-4" d="M137.374,128.828h21.965a18,18,0,0,1,18,18v19.8a3.6,3.6,0,0,1-3.6,3.6h-50.77a3.6,3.6,0,0,1-3.6-3.6v-19.8A18,18,0,0,1,137.374,128.828Z"/>
  <path id="Rounded_Rectangle_12_copy-3" data-name="Rounded Rectangle 12 copy" class="cls-5" d="M148.629,146.232c4.822,0,8.731,5.191,8.731,11.6V170.37H139.9V157.828C139.9,151.423,143.807,146.232,148.629,146.232Z"/>
  <path id="Rounded_Rectangle_12_copy_3-3" data-name="Rounded Rectangle 12 copy 3" class="cls-3" d="M128.732,156.468h1.8a9.722,9.722,0,0,1,9.722,9.722v4.32H121.891a2.88,2.88,0,0,1-2.881-2.88v-1.44A9.722,9.722,0,0,1,128.732,156.468Zm37.808,0h1.8a9.721,9.721,0,0,1,9.722,9.722v1.44a2.879,2.879,0,0,1-2.88,2.88H156.818v-4.32A9.722,9.722,0,0,1,166.54,156.468Z"/>
  <path class="cls-6" d="M178.428,63c10.4,14.036,12.6,34.452,12.6,44.919,0,16.9-19.023,30.606-42.489,30.606s-42.488-13.7-42.488-30.606c0-10.467,2.2-30.883,12.6-44.919h59.783Z"/>
  <path id="Ellipse_11_copy-3" data-name="Ellipse 11 copy" class="cls-6" d="M107.955,52.744c4.368-.833,8.307,1.465,9.848,7.958s0.1,14.722-4.268,15.555-10.01-6.044-11.55-12.537S103.587,53.577,107.955,52.744Zm78.739,0c-4.372-.834-8.313,1.466-9.855,7.962s-0.1,14.729,4.271,15.562,10.017-6.047,11.558-12.543S191.065,53.578,186.694,52.744Z"/>
  <path class="cls-3" d="M108.841,76.092s5.962,0.624,9.1-1.713,5.794-2.761,6.652-.343,1.9,7.123,4.9,8.908,4.476,0.576,4.9-1.371-1.836-9.78,16.455-10.621a27.011,27.011,0,0,1,12.954,2.4c5.337,2.276,22.908,4.309,17.505-19.187-1.456-5.016-3.682-9.659-5.952-6.51s-7.566,8.285-13.3,1.028c-5.737-8.222-26.07-18.572-36.41,3.084,0,0,.36.749-2.1,0.685s-10.344-.3-12.6,11.992c-0.427,4.979.173,6.574-2.1,8.223S107.431,75.954,108.841,76.092Z"/>
  <path class="cls-7" d="M148.458,43c4.826,0,9,16.453,9,27.981s-5.934,10.437-9,10.437-9,1.091-9-10.437S143.631,43,148.458,43Z"/>
  <path class="cls-8" d="M178.366,129.712c-7.672,5.449-18.2,8.813-29.83,8.813s-22.158-3.364-29.829-8.813a18.2,18.2,0,0,1-.777-5.229c0-12.926,13.7-23.4,30.606-23.4s30.606,10.479,30.606,23.405A18.232,18.232,0,0,1,178.366,129.712Z"/>
  <path id="Фигура_535-3" data-name="Фигура 535" class="cls-9" d="M148,128c-8.479,0-12.571-8.006-12.741-8.346a2.51,2.51,0,0,1,1.157-3.379,2.562,2.562,0,0,1,3.41,1.136c0.056,0.108,2.919,5.544,8.174,5.544,4.7,0,8.24-5.667,8.275-5.724a2.568,2.568,0,0,1,3.5-.849,2.5,2.5,0,0,1,.867,3.454C160.437,120.165,155.592,128,148,128Z"/>
  <path id="Line" class="cls-10" d="M293,382H275.986V371h-0.012A36.491,36.491,0,0,0,203,371h-0.013v11h-157V336.377a53.971,53.971,0,0,1,0-106.754V153.377a53.971,53.971,0,0,1,0-106.754V0h344a40,40,0,0,1,40,40V382H293ZM412.986,42a25,25,0,0,0-25-25h-324V46H64V63.014H53v0.013A36.491,36.491,0,0,0,53,136v0.013H64V154H63.986v75H64v17.014H53v0.012A36.491,36.491,0,0,0,53,319v0.013H64V337H63.986v28H185.477a53.976,53.976,0,0,1,107.046,0H412.986V42Z"/>
</svg>
