<svg id="Bell" xmlns="http://www.w3.org/2000/svg" width="218.125" height="308.94" viewBox="0 0 218.125 308.94">
  <defs>
    <style>
      .cls-1 {
        fill: #6cb4eb;
      }

      .cls-1, .cls-2, .cls-3 {
        fill-rule: evenodd;
      }

      .cls-2 {
        fill: #6ca8cc;
      }

      .cls-3 {
        fill: #6eaecf;
      }
    </style>
  </defs>
  <path class="cls-1" d="M350.733,1348.82s-0.427-58.98-49.729-51.18c-8.356,2.23-48.15,13.14-20.3,69.41-2.785,2.79-13.389,17.29-8.653,34.01-4.457,6.96-26.722,45.76-5.831,123.75-3.343,3.62-16.991,22.29-4.457,46.24,6.964,11.98,23.988,30.66,70.226,11.44,6.406,9.47,20.89,30.64,59.329,20.89,10.027-1.95,32.112-16.62,32.112-47.26,25.9-7.24,55.708-14.21,50.694-48.75-1.949-12.25-6.79-28.7-27.4-33.99-10.027-25.35-23.682-61.43-44.851-83.15-11.42-11.42-22-17.55-28.689-19.5C367.336,1361.26,367.074,1355.29,350.733,1348.82Z" transform="translate(-256.563 -1296.94)"/>
  <path id="Shape_1555_copy_2" data-name="Shape 1555 copy 2" class="cls-2" d="M365.735,1532.12a26.91,26.91,0,1,1-18.252,33.4A26.913,26.913,0,0,1,365.735,1532.12Zm-55.3-151.27c-6.43-20.17-24.406-42.49-15.16-54.87,4.349-9.55,18.436-6.72,20.111-5.55,13.977,5.85,11.71,33.69,17.068,53.96Z" transform="translate(-256.563 -1296.94)"/>
  <path id="Shape_1555_copy" data-name="Shape 1555 copy" class="cls-3" d="M440.91,1528.84L300.9,1569.54c-9.261,2.69-19.053-2.98-21.874-12.68-2.684-9.23,1.929-18.76,10.367-21.98-9-50.09-18.822-101.74,7.3-128.78a6.552,6.552,0,0,1-1.921-3.02l-1.126-3.83a18.051,18.051,0,0,1,12.23-22.4l26.262-7.71a18.048,18.048,0,0,1,22.393,12.23l1.126,3.84a6.461,6.461,0,0,1,.183,2.78c38.263,7.45,56.649,57.61,75.64,105.55,9.025-2.17,18.356,3.43,21.1,12.86C455.393,1516.1,450.17,1526.14,440.91,1528.84Z" transform="translate(-256.563 -1296.94)"/>
</svg>
