<svg id="Fife" xmlns="http://www.w3.org/2000/svg" width="315.19" height="352.156" viewBox="0 0 315.19 352.156">
  <defs>
    <style>
      .cls-1 {
        fill: #6cb4eb;
      }

      .cls-1, .cls-2, .cls-3, .cls-4 {
        fill-rule: evenodd;
      }

      .cls-2 {
        fill: #6eaecf;
      }

      .cls-3 {
        fill: #6eb1d1;
      }

      .cls-4 {
        fill: #5fa1d7;
      }
    </style>
  </defs>
  <path class="cls-1" d="M2570.03,454.581s-18.7,14.02-14.02,45.4c-0.67,8.011-8.68,35.383-32.72,70.766-13.36,18.025-49.08,49.914-53.76,95.311-1.33,12.017.67,21.363-16.69,30.042s-62.11,24.7-38.07,76.107c8.02,14.687,38.07,39.389,70.12,20.028,8.68-8.679,14.03-13.352,16.7-22.031,12.69,11.35,58.2,58.536,137,3.125,18.03-13.352,52.76-57.414,32.06-116.831-6.68-16.69-22.71-36.051-38.07-39.389,10.02-6.676,18.7-9.346,40.07-6.676,16.69,1.335,44.07,2,49.42-24.034,2-11.349,6.2-30.522-49.9-81.928C2620.75,457.068,2599.77,435.354,2570.03,454.581Z" transform="translate(-2407.84 -447.594)"/>
  <path id="Фигура_946" data-name="Фигура 946" class="cls-2" d="M2608.7,479.18s59.69,46.1,84.62,85.16c3.06,7.057,21.23,29.487-22.27,22.144S2549.93,644.4,2540.6,657.626s-13.13,25.194-10.81,33.077c-22.68,24.656-32.82,32.426-32.82,32.426s-28.15-50.177,20.17-109.77c11.13-13.782,59.41-75.524,60.22-116.3C2574.75,483.313,2578.12,457.546,2608.7,479.18Z" transform="translate(-2407.84 -447.594)"/>
  <path id="Фигура_947" data-name="Фигура 947" class="cls-3" d="M2486.46,739.307s3.31-6.03,11.71-13.827c36.65,69.579,84.48,54.5,117.34,37.015s40.84-59.58,38.42-81.585c-11.21-58.051-69.12-56.106-80.91-56.494-49.68,11.428-107.13,93.794-107.13,93.794C2468.06,734.22,2486.46,739.307,2486.46,739.307Zm44.12-49s31.09-31.416,50.91-29.784c14.09,0.558,38.23,9.937,34.79,33.586-2.11,9.939-18.2,59.951-63.86,33.4C2541.12,716.162,2530.25,706.546,2530.58,690.305Z" transform="translate(-2407.84 -447.594)"/>
  <path id="Эллипс_946" data-name="Эллипс 946" class="cls-4" d="M2433.21,761.11c6.76,13.31,22.57,20.044,35.78,14.247a23.808,23.808,0,0,0,12.04-11.749l0.01,0.006,0.04-.108c0.31-.649.58-1.313,0.83-1.989l15.43-32.744s-19.38-9.266-23.51-19.416l-29.89,15.955c-0.64.3-1.27,0.63-1.89,0.994-0.06.035-.12,0.074-0.18,0.11l-0.12.063,0.01,0.006C2430.45,733.329,2426.77,748.412,2433.21,761.11Z" transform="translate(-2407.84 -447.594)"/>
</svg>
