<svg id="Notes" xmlns="http://www.w3.org/2000/svg" width="2945" height="1572.219" viewBox="0 0 2945 1572.219">
  <defs>
    <style>
      .cls-1 {
        fill: #66b8ed;
      }

      .cls-1, .cls-2 {
        fill-rule: evenodd;
      }

      .cls-2 {
        fill: #4fa1e8;
      }
    </style>
  </defs>
  <path id="Shape_46_copy_3" data-name="Shape 46 copy 3" class="cls-1" d="M439.625,1065.25s35.811,85.54,35.778,86.65,16.141,35.85-26.53,49.44c-36.778,11.71-49.156-6.48-52.676-26.29s26-44.15,49.886-37.17c-31-70.29-43.48-100.01-43.48-100.01s-6.12-9.14,16.112-22.2c15.69-9.22,82.408-49.335,82.408-49.335s10.7-7.449,18.62,10.306c9.7,21.744,52.315,120.239,52.541,121.449s8.739,33.7-25.654,46.05-50.365-3.14-54.058-22.98c-3.875-20.79,16.758-33.87,27.563-35.54a29.911,29.911,0,0,1,18.947,3.44l-28.065-71.76s-0.891-7.31-9.266-4.01-56.171,34.37-57.418,35.5C441.6,1051.26,435.8,1052.92,439.625,1065.25Z" transform="translate(0 -88.781)"/>
  <path id="Shape_46_copy_5" data-name="Shape 46 copy 5" class="cls-1" d="M2864.74,1508.19s-12.36,91.9-12.94,92.84-4.21,39.09-47.89,29.24c-37.65-8.49-39.14-30.44-32.15-49.31s44.75-24.95,61.83-6.85c8.79-76.32,13.06-108.27,13.06-108.27s-0.66-10.97,25.12-11c18.2-.02,96.05-0.9,96.05-0.9s12.99-1.01,10.85,18.31c-2.63,23.66-15.66,130.19-16.08,131.34s-9.5,33.5-45.42,26.77-41.86-28.18-35.02-47.16c7.17-19.91,31.59-20.75,41.75-16.73a29.891,29.891,0,0,1,14.61,12.55l12.07-76.1s2.93-6.76-5.96-8.15-65.85,1.26-67.49,1.6C2873.52,1497.11,2867.68,1495.61,2864.74,1508.19Z" transform="translate(0 -88.781)"/>
  <path id="Shape_47_copy_2" data-name="Shape 47 copy 2" class="cls-1" d="M121.6,504.342c-2.11-.247,12.612,82.782,12.442,84.559s7.092,25.442-24.347,38.752S61.785,616.31,60.148,606.525C57.91,593.139,64.129,577.307,82.388,568c14.356-6.695,29.531-.787,28.9-1.452-0.457-.479-10.67-56.9-17.021-88.16-2.859-14.077-2.57-20.846,11.994-15.045,11.838,4.715,27.7,12.885,38.37,23.094,18.5,17.7,18.675,48.553,12.041,58.362S148.261,507.461,121.6,504.342Z" transform="translate(0 -88.781)"/>
  <path id="Shape_47_copy_7" data-name="Shape 47 copy 7" class="cls-1" d="M551.091,1535.34c-1.373-.68-11.572,59.27-12.119,60.44s-1.372,19-25.957,20.39-29.769-19.35-28.5-26.4c1.736-9.63,9.809-18.87,24.47-20.74,11.376-1.06,20.242,6.64,19.973,6.04-0.194-.44,6.594-41.23,9.885-64,1.483-10.26,3.325-14.78,11.8-7.3,6.892,6.08,15.677,15.49,20.437,25.01,8.255,16.52.871,37.51-6.019,42.56S568.437,1543.94,551.091,1535.34Z" transform="translate(0 -88.781)"/>
  <path id="Shape_47_copy_3" data-name="Shape 47 copy 3" class="cls-2" d="M392.888,734.546c-1.25-.786-16.848,55.69-17.485,56.754s-3.161,18.077-26.859,17.022-26.653-21.441-24.753-28.067c2.6-9.064,11.234-17.134,25.468-17.51,11.006,0.1,18.756,8.338,18.557,7.731-0.144-.437,10.324-38.876,15.69-60.381,2.417-9.684,4.623-13.843,12.022-5.848,6.014,6.5,13.521,16.365,17.158,25.958,6.307,16.636-2.809,36.036-9.9,40.2S408.678,744.477,392.888,734.546Z" transform="translate(0 -88.781)"/>
  <path id="Shape_46_copy_4" data-name="Shape 46 copy 4" class="cls-2" d="M18.776,139.788s-24.646,58.408-25.2,58.92-9.79,25.034-36.838,10.694c-23.313-12.358-20.351-27.1-12.358-38.3s34-8.422,42.017,6.583c19.5-48.763,28.045-69.074,28.045-69.074s1.533-7.358,18.547-2.749C44.994,109.114,96.5,122.507,96.5,122.507s8.756,1.663,3.873,14.023C94.4,151.668,66.678,219.6,66.2,220.284s-12.281,20.39-34.764,9.5S8.876,203.683,16.8,192.392c8.3-11.841,24.561-8.02,30.546-3.542a20.425,20.425,0,0,1,7.379,10.9L76.343,151.72s3.148-3.936-2.47-6.448-43.659-10.988-44.806-11.059C26.552,134.058,22.97,132.019,18.776,139.788Z" transform="translate(0 -88.781)"/>
  <path id="Shape_46_copy_6" data-name="Shape 46 copy 6" class="cls-1" d="M528.389,291.567s21.946,59.475,21.891,60.228,9.97,24.962-19.572,32.99c-25.463,6.92-33.383-5.867-35.2-19.5s19.055-29.392,35.163-23.923c-19.11-48.915-26.758-69.583-26.758-69.583s-3.912-6.417,11.656-14.685c10.987-5.835,57.733-31.277,57.733-31.277s7.527-4.773,12.414,7.586c5.985,15.136,32.2,83.658,32.318,84.489s4.979,23.277-18.874,30.7-34.306-3.627-36.247-17.281c-2.035-14.32,12.441-22.645,19.87-23.469a20.423,20.423,0,0,1,12.839,2.911l-17.06-49.835s-0.394-5.025-6.21-3.018-39.374,21.831-40.259,22.563C530.146,282.069,526.138,283.029,528.389,291.567Z" transform="translate(0 -88.781)"/>
  <path id="Shape_46_copy_7" data-name="Shape 46 copy 7" class="cls-1" d="M2734.62,189.251s35.82,85.542,35.78,86.645,16.14,35.855-26.53,49.444c-36.78,11.713-49.15-6.476-52.67-26.29s26-44.153,49.88-37.172c-31-70.287-43.48-100.011-43.48-100.011s-6.12-9.132,16.11-22.195c15.69-9.218,82.41-49.337,82.41-49.337s10.7-7.449,18.62,10.307c9.7,21.744,52.32,120.238,52.54,121.445s8.74,33.7-25.65,46.056-50.36-3.144-54.06-22.978c-3.87-20.8,16.76-33.876,27.57-35.548a29.86,29.86,0,0,1,18.94,3.448l-28.06-71.759s-0.89-7.319-9.27-4.02-56.17,34.379-57.42,35.5C2736.6,175.26,2730.8,176.916,2734.62,189.251Z" transform="translate(0 -88.781)"/>
  <path id="Shape_47_copy_4" data-name="Shape 47 copy 4" class="cls-2" d="M2831.66,649.89c-1.64.322,29.31,58.862,29.61,60.231s11.41,17.318-8.9,34.819-38.54,3.025-42.11-3.9c-4.89-9.47-4.04-22.8,7.37-34.143,9.13-8.453,21.89-7.68,21.26-8.025-0.46-.248-21.65-39.977-33.9-61.824-5.52-9.837-6.93-14.968,5.35-14.128,9.98,0.681,23.81,2.979,34.23,8.05,18.09,8.793,25.63,31.815,23.02,40.742S2852.34,645.818,2831.66,649.89Z" transform="translate(0 -88.781)"/>
  <path id="Shape_47_copy_10" data-name="Shape 47 copy 10" class="cls-2" d="M2424.66,1569.89c-1.64.32,29.31,58.86,29.61,60.23s11.41,17.32-8.9,34.82-38.54,3.03-42.11-3.9c-4.89-9.47-4.04-22.8,7.37-34.14,9.13-8.45,21.89-7.68,21.26-8.03-0.46-.24-21.65-39.97-33.9-61.82-5.52-9.84-6.93-14.97,5.35-14.13,9.98,0.68,23.81,2.98,34.23,8.05,18.09,8.8,25.63,31.82,23.02,40.74S2445.34,1565.82,2424.66,1569.89Z" transform="translate(0 -88.781)"/>
  <path id="Shape_47_copy_5" data-name="Shape 47 copy 5" class="cls-2" d="M2501.61,158.85c-1.62-.415,1.08,65.747.76,67.111s2.83,20.546-23.04,27.585-36.08-13.882-36.32-21.669c-0.33-10.652,6.18-22.315,21.37-27.629,11.88-3.695,23.06,2.5,22.64,1.919-0.31-.421-2.3-45.4-3.94-70.4-0.74-11.255.2-16.493,10.92-10.441,8.71,4.918,20.2,12.949,27.42,22.019,12.53,15.729,9.41,39.753,3.21,46.685S2522.03,164.091,2501.61,158.85Z" transform="translate(0 -88.781)"/>
  <path id="Shape_47_copy_9" data-name="Shape 47 copy 9" class="cls-1" d="M2393.37,1060.2c-1.4-.9-19.88,62.68-20.62,63.88s-3.84,20.38-30.6,18.83-29.8-24.63-27.55-32.09c3.07-10.21,12.95-19.2,29.04-19.41,12.44,0.28,21.07,9.71,20.86,9.02-0.16-.5,12.25-43.78,18.64-68,2.87-10.9,5.43-15.57,13.67-6.43,6.7,7.44,15.03,18.7,19,29.6,6.88,18.89-3.72,40.68-11.8,45.28S2411.06,1071.67,2393.37,1060.2Z" transform="translate(0 -88.781)"/>
  <path id="Shape_46_copy_7-2" data-name="Shape 46 copy 7" class="cls-1" d="M2380.78,438.788s-24.65,58.408-25.21,58.92-9.79,25.034-36.83,10.694c-23.32-12.359-20.35-27.1-12.36-38.3s34-8.423,42.02,6.582c19.49-48.763,28.04-69.074,28.04-69.074s1.53-7.358,18.55-2.749c12,3.254,63.51,16.647,63.51,16.647s8.76,1.663,3.88,14.023c-5.98,15.138-33.7,83.066-34.18,83.753s-12.28,20.391-34.77,9.5-22.55-26.1-14.63-37.393c8.3-11.841,24.56-8.02,30.54-3.542a20.391,20.391,0,0,1,7.38,10.9l21.62-48.032s3.15-3.936-2.47-6.448-43.66-10.988-44.8-11.059C2388.55,433.058,2384.97,431.019,2380.78,438.788Z" transform="translate(0 -88.781)"/>
  <path id="Shape_46_copy_7-3" data-name="Shape 46 copy 7" class="cls-2" d="M2632.89,932.11s-26.1,68.31-26.71,68.92-10.3,29.25-42.05,13.79c-27.37-13.32-24.54-30.438-15.76-43.664s38.86-11.056,48.7,5.924c20.54-56.989,29.59-80.743,29.59-80.743s1.48-8.543,21.27-3.9c13.97,3.275,73.89,16.675,73.89,16.675s10.16,1.57,5.02,16.013c-6.3,17.688-35.56,97.1-36.09,97.909s-13.35,23.99-39.7,12.33-27.04-29.2-18.35-42.527c9.1-13.98,27.99-10.219,35.07-5.294a23.542,23.542,0,0,1,8.94,12.276l23.02-56.23s3.48-4.663-3.1-7.336-50.77-10.937-52.09-10.973C2641.63,925.2,2637.42,922.987,2632.89,932.11Z" transform="translate(0 -88.781)"/>
  <path id="Shape_46_copy_8" data-name="Shape 46 copy 8" class="cls-2" d="M114.894,1336.11s-26.1,68.31-26.719,68.92-10.3,29.25-42.045,13.79c-27.366-13.32-24.535-30.44-15.764-43.66s38.864-11.06,48.7,5.92c20.545-56.99,29.6-80.74,29.6-80.74s1.475-8.55,21.272-3.91c13.971,3.28,73.883,16.68,73.883,16.68s10.161,1.57,5.021,16.01c-6.295,17.69-35.557,97.1-36.085,97.91s-13.349,23.99-39.7,12.33-27.038-29.2-18.356-42.53c9.105-13.98,28-10.22,35.075-5.29a23.543,23.543,0,0,1,8.939,12.27l23.023-56.22s3.473-4.67-3.1-7.34-50.768-10.94-52.092-10.97C123.631,1329.2,119.421,1326.99,114.894,1336.11Z" transform="translate(0 -88.781)"/>
</svg>
