<svg id="Pipe" xmlns="http://www.w3.org/2000/svg" width="286.281" height="253.499" viewBox="0 0 286.281 253.499">
  <defs>
    <style>
      .cls-1 {
        fill: #6cb4eb;
      }

      .cls-1, .cls-2, .cls-3 {
        fill-rule: evenodd;
      }

      .cls-2 {
        fill: #7fb3d6;
      }

      .cls-3 {
        fill: #7aabec;
      }
    </style>
  </defs>
  <path class="cls-1" d="M44.237,1047.19s8.108-28.86,46.375-37.62c3.243-8.11,20.755-31.779,50.268-35.022a76.967,76.967,0,0,1,6.81-4.54l20.618-79.956s6.811-27.24,43.781-18.16c12,5.837,36.229,13.8,76.442,73.146,14.27,24.322,31.966,62.952,14.778,91.492-3.243,4.21-14.27,11.67-44.43,9.08s-66.482-5.84-66.482-5.84l-105.089,77.8s-23.054,18.13-52.242-8.79C27.932,1100.02,10.308,1072.74,44.237,1047.19Z" transform="translate(-24.094 -870.031)"/>
  <path id="Многоугольник_2" data-name="Многоугольник 2" class="cls-2" d="M288.549,1012.92c0.585,8.94-8.425,12.54-14.328,11.46-28.475-2.65-64.887-6.03-89.258-8.3L75.345,1097.94a16.511,16.511,0,0,1-23.114-3.35l-3.3-4.41a16.51,16.51,0,0,1,3.352-23.11l113.953-85.1c5.8-22.84,13.7-53.906,20.013-78.756,1.874-10.867,9.882-14.7,17.011-11.29C233.6,905.739,286.9,957.468,288.549,1012.92Z" transform="translate(-24.094 -870.031)"/>
  <path id="Эллипс_1736_копия" data-name="Эллипс 1736 копия" class="cls-3" d="M78.133,1038.08c9.769-7.29,20.055-10.04,22.973-6.13s-2.636,12.99-12.406,20.28-20.054,10.04-22.972,6.14S68.363,1045.38,78.133,1038.08Z" transform="translate(-24.094 -870.031)"/>
  <path id="Эллипс_1736_копия_2" data-name="Эллипс 1736 копия 2" class="cls-3" d="M123.417,1004.26c9.769-7.292,20.054-10.038,22.974-6.131s-2.637,12.991-12.406,20.281-20.054,10.05-22.973,6.14S113.648,1011.56,123.417,1004.26Z" transform="translate(-24.094 -870.031)"/>
</svg>
