<svg id="Violin" xmlns="http://www.w3.org/2000/svg" width="264.25" height="418.188" viewBox="0 0 264.25 418.188">
  <defs>
    <style>
      .cls-1 {
        fill: #6cb4eb;
      }

      .cls-1, .cls-2, .cls-3, .cls-4 {
        fill-rule: evenodd;
      }

      .cls-2 {
        fill: #6ea9d2;
      }

      .cls-3 {
        fill: #5ea1d4;
      }

      .cls-4 {
        fill: #6eb6ed;
      }
    </style>
  </defs>
  <path class="cls-1" d="M348.51,243.5s-10.665-15.766-41.27-6.956c-13.447,4.637-21.33,12.52-21.794,21.794-8.811,2.319-36.169,4.174-31.532,36.169,4.637,17.158,9.274,31.533,9.274,31.533s6.028,18.084,32,14.374c-12.52,10.666-38.529,37.895-38.993,81.947,0.464,16.693,2.319,36.633,28.75,44.516,5.1,12.984,12.056,19.939,2.782,23.649s-28.3,6.692-32.473,34.514c-2.318,17.157-.154,81.353,65.692,113.812,28.75,12.984,61.395,20.774,114.257,2.226C460.7,631.8,523.674,610.2,517.183,515.6c-4.174-26.431-18.075-74.527-53.316-69.426-6.956,2.318-14.375,6.028-17.158-8.347-2.782-9.274-3.709-12.057,3.246-20.4,4.174-7.42,17.3-28.694-20.722-70.428-11.129-10.665-29.214-20.867-50.544-25.04,6.492-5.565,25.04-12.984,18.548-38.024-7.883-25.5-10.2-29.678-10.2-29.678S378.393,234.56,348.51,243.5Z" transform="translate(-253.406 -233.875)"/>
  <path id="Прямоугольник_скругл._углы_6_копия" data-name="Прямоугольник, скругл. углы 6 копия" class="cls-2" d="M482.678,581.419c-11.247,17.06-31.373,33.936-69.943,44.1-34.95,9.211-62.537,6.115-87.921-8.735-24.547-14.36-41.2-37.916-46.177-64.8-3.428-21.874-4.49-36.7,13.515-40.042S324.81,493.922,301.1,452.1c-10.729-10.564-22.69-4.231-22.8-26.3-0.114-21.738,4.54-64.788,60.571-79.4,55.822-15.36,79.537,20.089,90.756,38.851,11.387,19.045-2.2,19.558-5.935,34,1.369,47.813,19.085,55.835,36.322,49.74s21.709,8.241,28.891,26.661C504.556,535.81,489.866,570.516,482.678,581.419Zm-111.01-282-8.676,2.325a5.734,5.734,0,0,1-7.023-4.055l-1.325-4.943-19.556,5.24a5.052,5.052,0,0,1-6.189-3.573l-2.038-7.605a5.053,5.053,0,0,1,3.574-6.188l19.556-5.24-0.934-3.486a5.734,5.734,0,0,1,4.055-7.023l8.676-2.325a5.735,5.735,0,0,1,7.024,4.055l6.911,25.8A5.734,5.734,0,0,1,371.668,299.414Zm-51.125,1.733-19.484,5.221,0.959,3.578a5.735,5.735,0,0,1-4.055,7.024l-8.645,2.316a5.735,5.735,0,0,1-7.024-4.055l-6.936-25.887a5.735,5.735,0,0,1,4.055-7.024L288.058,280a5.733,5.733,0,0,1,7.023,4.055L296.406,289l19.484-5.22a5.062,5.062,0,0,1,6.2,3.58l2.033,7.585A5.063,5.063,0,0,1,320.543,301.147Z" transform="translate(-253.406 -233.875)"/>
  <path id="Прямоугольник_скругл._углы_4" data-name="Прямоугольник, скругл. углы 4" class="cls-3" d="M420.527,572.8l-34.077,9.13a10.2,10.2,0,0,1-12.488-7.21L361.184,526.2a10.2,10.2,0,0,1,3.7-10.771l-50.338-187.86a10.766,10.766,0,0,1,3.573-11.105l-12.486-46.6a9.36,9.36,0,0,1,6.619-11.464l10.293-2.758a9.36,9.36,0,0,1,11.464,6.619l12.341,46.056a10.767,10.767,0,0,1,10.28,7.974l50.41,188.135a10.186,10.186,0,0,1,7.915,7.363l12.779,48.531A10.2,10.2,0,0,1,420.527,572.8Z" transform="translate(-253.406 -233.875)"/>
  <path id="Прямоугольник_скругл._углы_3_копия" data-name="Прямоугольник, скругл. углы 3 копия" class="cls-4" d="M406.044,550.693l-2.073.555a1.9,1.9,0,0,1-2.323-1.341L337.931,312.113a1.9,1.9,0,0,1,1.341-2.323l2.073-.555a1.9,1.9,0,0,1,2.323,1.341L407.385,548.37A1.9,1.9,0,0,1,406.044,550.693Zm-14.9,3.993-2.071.555a1.881,1.881,0,0,1-2.3-1.331L323.041,316.087a1.882,1.882,0,0,1,1.331-2.305l2.071-.555a1.881,1.881,0,0,1,2.3,1.331l63.725,237.823A1.882,1.882,0,0,1,391.141,554.686Z" transform="translate(-253.406 -233.875)"/>
</svg>
