<svg id="Xylophone" xmlns="http://www.w3.org/2000/svg" width="344.41" height="410.09" viewBox="0 0 344.41 410.09">
  <defs>
    <style>
      .cls-1 {
        fill: #6cb4eb;
      }

      .cls-1, .cls-2, .cls-3, .cls-4, .cls-5, .cls-6 {
        fill-rule: evenodd;
      }

      .cls-2 {
        fill: #4da2e2;
      }

      .cls-3 {
        fill: #5eaed5;
      }

      .cls-4 {
        fill: #6eadcc;
      }

      .cls-5 {
        fill: #6ea6cc;
      }

      .cls-6 {
        fill: #6eafe2;
      }

      .cls-7 {
        fill: #6a9de4;
      }
    </style>
  </defs>
  <path class="cls-1" d="M2584.14,1130.53l-155.23,47.76s-31.02,12.79-22.06,46.12c7.96,26.87,12.44,39.8,12.44,39.8s-11.5,15.52-4.54,34.92c6.47,23.88,10.45,35.32,10.45,35.32s-14.56,15-5.6,41.37c7.46,23.88,10.94,33.33,10.94,33.33s-13.71,15.66-3.26,43.02c8.46,24.37,12.94,35.32,12.94,35.32s4.47,16.41,28.36,19.4c1.99,7.46,3.48,27.86,25.37,31.83,12.94,1.5,41.8,3.49,45.78-51.23,46.27-13.43,181.12-55.26,181.12-55.26s34.82-10.94,27.86-47.26c-7.96-30.84-11.45-39.3-11.45-39.3s-8.69-21.98-24.61-23.48c-8.95-27.85-11.94-41.29-11.94-41.29s-6.96-20.39-25.37-21.88c-7.96-31.84-11.45-42.29-11.45-42.29s-8.67-20.53-24.59-21.03c-9.45-29.85-11.94-38.8-11.94-38.8S2617.81,1121.88,2584.14,1130.53Z" transform="translate(-2405.22 -1129.16)"/>
  <path id="Прямоугольник_754" data-name="Прямоугольник 754" class="cls-2" d="M2457.25,1416.03l237.38-73.67a17.238,17.238,0,0,1,21.57,11.36l10.89,35.12a17.218,17.218,0,0,1-11.35,21.56l-237.38,73.67a17.241,17.241,0,0,1-21.57-11.35l-10.89-35.12A17.229,17.229,0,0,1,2457.25,1416.03Z" transform="translate(-2405.22 -1129.16)"/>
  <path id="Прямоугольник_754-2" data-name="Прямоугольник 754" class="cls-3" d="M2450.47,1343.53l208.7-64.76a17.241,17.241,0,0,1,21.57,11.35l10.89,35.12a17.229,17.229,0,0,1-11.35,21.57l-208.69,64.77a17.242,17.242,0,0,1-21.57-11.36l-10.9-35.12A17.237,17.237,0,0,1,2450.47,1343.53Z" transform="translate(-2405.22 -1129.16)"/>
  <path id="Прямоугольник_824" data-name="Прямоугольник 824" class="cls-4" d="M2446.1,1270.29l176.43-54.75a17.246,17.246,0,0,1,21.57,11.36l10.89,35.12a17.229,17.229,0,0,1-11.35,21.57l-176.42,54.75a17.242,17.242,0,0,1-21.57-11.36l-10.9-35.12A17.237,17.237,0,0,1,2446.1,1270.29Z" transform="translate(-2405.22 -1129.16)"/>
  <path id="Прямоугольник_820" data-name="Прямоугольник 820" class="cls-5" d="M2439.37,1197.79l146.44-45.45a17.234,17.234,0,0,1,21.57,11.36l10.9,35.11a17.232,17.232,0,0,1-11.35,21.57l-146.45,45.45a17.226,17.226,0,0,1-21.56-11.35l-10.9-35.12A17.232,17.232,0,0,1,2439.37,1197.79Z" transform="translate(-2405.22 -1129.16)"/>
  <path id="Прямоугольник_822" data-name="Прямоугольник 822" class="cls-6" d="M2532.67,1351.54a10.583,10.583,0,0,0-12.38,8.41l-28.03,145.01a10.586,10.586,0,0,0,20.8,3.95l28.03-145.01A10.558,10.558,0,0,0,2532.67,1351.54Z" transform="translate(-2405.22 -1129.16)"/>
  <circle id="Эллипс_824" data-name="Эллипс 824" class="cls-7" cx="130.89" cy="208.415" r="34.02"/>
  <path id="Прямоугольник_822-2" data-name="Прямоугольник 822" class="cls-6" d="M2561.93,1258.88a10.585,10.585,0,0,1,14.6,3.29l79.33,124.63a10.58,10.58,0,0,1-17.89,11.3l-79.33-124.63A10.566,10.566,0,0,1,2561.93,1258.88Z" transform="translate(-2405.22 -1129.16)"/>
  <circle id="Эллипс_824-2" data-name="Эллипс 824" class="cls-7" cx="148.39" cy="117.985" r="34.02"/>
</svg>
