<svg xmlns="http://www.w3.org/2000/svg" width="323" height="323" viewBox="0 0 323 323">
  <defs>
    <style>
      .cls-1 {
        fill: #fff;
      }

      .cls-2 {
        fill: #fff9c7;
      }

      .cls-10, .cls-11, .cls-2, .cls-3, .cls-4, .cls-5, .cls-6, .cls-7, .cls-8, .cls-9 {
        fill-rule: evenodd;
      }

      .cls-3 {
        fill: #ffec8c;
      }

      .cls-4 {
        fill: #d4fdff;
      }

      .cls-5 {
        fill: #faba86;
      }

      .cls-6 {
        fill: #ffce57;
      }

      .cls-7 {
        fill: #ff9e66;
      }

      .cls-8 {
        fill: #a6f2d5;
      }

      .cls-9 {
        fill: #587bff;
      }

      .cls-10 {
        fill: #ff5959;
      }

      .cls-11 {
        fill: #77a4ed;
      }
    </style>
  </defs>
  <rect id="Icon" class="cls-1" width="323" height="323" rx="42" ry="42"/>
  <path class="cls-2" d="M0,263.578V42A42,42,0,0,1,42,0H281a42,42,0,0,1,42,42V263.578H0Z"/>
  <path class="cls-3" d="M102.285,147.37a5.266,5.266,0,0,1-5.267-5.267V122.891H96.883V25.852A133.361,133.361,0,0,1,99.407,0H281a42,42,0,0,1,42,42V147.37H102.285Z"/>
  <path id="Rectangle_2_copy" data-name="Rectangle 2 copy" class="cls-4" d="M121.133,117.086V30.206A121.132,121.132,0,0,1,124.937,0H281a42,42,0,0,1,42,42v75.086H121.133Z"/>
  <path id="Rectangle_1_copy" data-name="Rectangle 1 copy" class="cls-5" d="M281,323H42A42,42,0,0,1,0,281V261.61H323V281A42,42,0,0,1,281,323Z"/>
  <path class="cls-6" d="M157.248,225.943c-9.2,26.993-25.9,47.765-38.526,58.164-0.48.588-.962,1.174-1.452,1.755a5.367,5.367,0,0,1-2.1.985,29.355,29.355,0,0,1-7.726,4.2L1.2,290.96c-0.027-.11-0.045-0.223-0.071-0.333H1.122c-0.064-.272-0.111-0.55-0.169-0.824-0.1-.477-0.209-0.953-0.3-1.437-0.058-.327-0.1-0.661-0.151-0.991C0.434,286.9.354,286.433,0.3,285.956c-0.051-.427-0.08-0.86-0.118-1.291-0.034-.388-0.08-0.771-0.1-1.161Q0,282.262,0,281H0V267.11H0V190.264L143.48,181.3c1.044-4.468,1.688-7.31,1.688-7.31s2.229-4.157,5.445-4.157H166.1c2.785,0,4.654,4.157,4.654,4.157S167.379,196.23,157.248,225.943Z"/>
  <path id="Прямоугольник_24" data-name="Прямоугольник 24" class="cls-7" d="M202.382,183.868a10.125,10.125,0,0,1,10.126-10.124H323V281a42,42,0,0,1-34.2,41.266H202.382v-138.4Z"/>
  <path class="cls-8" d="M0,190.405V42A42,42,0,0,1,42,0H78.735c-22.022,61.984-65,103.589-65,103.589S42.917,145.327,47.311,187.2Z"/>
  <path id="X" class="cls-9" d="M238.352,190.162a10.508,10.508,0,0,0-4.385,1.124q-6.408,3.541-6.408,9.443a16.74,16.74,0,0,0,.9,4.385c2.81,4.721,10.9,16.638,24.17,35.75l-21.36,31.59c-5.284,6.858-7.869,11.692-7.869,14.5l0.674,3.6q2.867,7.419,10.118,7.42a11.142,11.142,0,0,0,7.42-2.811l23.946-34.738,20.685,30.129c2.7,4.946,6.3,7.42,10.68,7.42h1.349q9.444-2.531,9.444-10.793l-0.675-3.934-28.33-42.158L297.6,212.983c3.934-5.059,5.958-9.106,5.958-12.029l-0.225-2.473c-2.136-5.509-5.621-8.319-10.567-8.319a10.794,10.794,0,0,0-7.195,2.81c-1.574,1.574-8.207,11.13-19.787,28.78L250.83,200.28Q245.6,190.161,238.352,190.162Z"/>
  <path id="F" class="cls-10" d="M13.491,274.184l0.655,4.143c2.434,7.688,7.514,11.913,15.066,12.658l4.109-.3c8.549-2.172,13.142-7.393,13.922-15.3l5.439-55.146,33.369,3.291,2.142-.143c8.725-2.155,13.476-7.183,14.238-14.911l0.1-1.054-0.3-4.108q-3.283-12.561-15.665-13.781l-30.559-3.014,2.841-28.8,39.516,3.9,4.442-.094c8.233-2.558,12.633-7.621,13.395-15.349l-0.321-3.933c-2.154-8.724-7.183-13.476-14.91-14.238L47.4,122.716l-4.074-.047c-10.026.962-15.515,6.272-16.45,15.756Z"/>
  <path class="cls-11" d="M41.076,322.977c1.954-7.691,6.859-14.723,16.9-18.247,13.277-7.782-3.963-41.01,44.761-47.229,51.014-9.582,47.664,32.17,54.948,32.578,2.254,3.51,28.038-2.828,31.157,30.2a6.367,6.367,0,0,1-.525,2.725H42C41.69,323,41.384,322.983,41.076,322.977Z"/>
</svg>
