<svg xmlns="http://www.w3.org/2000/svg" width="327" height="327" viewBox="0 0 327 327">
  <defs>
    <style>
      .cls-1 {
        fill: #53e1ff;
      }

      .cls-2 {
        fill: #ddf7ff;
        fill-rule: evenodd;
      }
    </style>
  </defs>
  <rect id="Фигура_5" data-name="Фигура 5" class="cls-1" width="327" height="327" rx="36" ry="36"/>
  <path id="Shape_1_copy_5" data-name="Shape 1 copy 5" class="cls-2" d="M227.341,18.7a23.766,23.766,0,1,1,2.1,46.154h-97.4A26.729,26.729,0,1,1,128.01,11.7a26.648,26.648,0,0,1,9.655,1.805,26.64,26.64,0,0,1-2.091-10.378,26.868,26.868,0,0,1,.2-3.126h83.362A26.645,26.645,0,0,1,227.341,18.7ZM71.011,134.682a23.767,23.767,0,1,1,2.1,46.155H0V93.079a26.737,26.737,0,0,1,5.972-.694A26.733,26.733,0,0,1,31.65,111.7,26.725,26.725,0,0,1,71.011,134.682ZM327,238.2v50.323H239.79a25.134,25.134,0,0,1-3.745.281,24.827,24.827,0,1,1,8.968-47.977A24.83,24.83,0,1,1,291.751,224.3,24.821,24.821,0,0,1,327,238.2Z"/>
</svg>
