<svg xmlns="http://www.w3.org/2000/svg" xmlns:xlink="http://www.w3.org/1999/xlink" width="327" height="327" viewBox="0 0 327 327">
  <defs>
    <style>
      .cls-1, .cls-2, .cls-3, .cls-4, .cls-5 {
        fill-rule: evenodd;
      }

      .cls-1 {
        fill: url(#linear-gradient);
      }

      .cls-2 {
        fill: #7ee0f0;
      }

      .cls-3 {
        fill: #a3f5f6;
      }

      .cls-4 {
        fill: #39cacc;
      }

      .cls-5 {
        fill: #fff;
      }
    </style>
    <linearGradient id="linear-gradient" x1="210.998" y1="261" x2="116.002" gradientUnits="userSpaceOnUse">
      <stop offset="0" stop-color="#c5f3ff"/>
      <stop offset="0.215" stop-color="#c5f3ff"/>
      <stop offset="1" stop-color="#a6f1ff"/>
    </linearGradient>
  </defs>
  <path id="Wood_1_copy_4" data-name="Wood 1 copy 4" class="cls-1" d="M0,261V36A36,36,0,0,1,36,0H291a36,36,0,0,1,36,36V261H0Z"/>
  <path id="Прямоугольник_скругл._углы_14_копия_2_copy_4" data-name="Прямоугольник, скругл. углы 14 копия 2 copy 4" class="cls-2" d="M0,271V165.987a14.825,14.825,0,0,1,17.18.4l62.563,50.276,130.279-96.8c5.3-3.939,13.9-3.939,19.2,0L327,192.51V271H0Z"/>
  <path class="cls-3" d="M291,327H36A36,36,0,0,1,0,291V260.209l14.451-2.632c69.876-21.69,192.337-21.2,245.9-19.025L327,241.373V291A36,36,0,0,1,291,327Z"/>
  <path id="Ellipse_11_copy_10" data-name="Ellipse 11 copy 10" class="cls-4" d="M90.916,302.255c-46.54,0-69.858.243-88.426,0.243-0.206,0-.4-0.015-0.609-0.017A35.935,35.935,0,0,1,0,291V256.484c2.111-.03,3.456.092,3.456,0.092,0.157-29.41,42.178-30.452,50.978-11.015,10.716-17.1,62.341-22.008,49.979,17.023C136.19,262.637,128.874,302.255,90.916,302.255Z"/>
  <path id="Shape_42_copy_3" data-name="Shape 42 copy 3" class="cls-5" d="M36,0h2.7c6.489,6.446,7.952,15.994,7.952,15.994s16.872-8.623,27.678,5.44,2.135,26.653-14.653,26.653H0V36A36,36,0,0,1,36,0ZM288.827,75.121H230.606c-15.134,0-22.951-11.351-13.209-24.028s24.951-4.9,24.951-4.9,2.993-19.615,20.059-19.615c19.634,0,21.528,20.105,21.528,20.105,15.305-4.134,21.037,6.941,21.037,12.259S304.611,75.121,288.827,75.121Z"/>
</svg>
