<svg id="SVG_SN_BG3_BoxHat" xmlns="http://www.w3.org/2000/svg" width="551.53" height="547.97" viewBox="0 0 551.53 547.97">
  <defs>
    <style>
      .cls-1 {
        fill: #b4f9ff;
      }

      .cls-1, .cls-2, .cls-3, .cls-4, .cls-5, .cls-6, .cls-7 {
        fill-rule: evenodd;
      }

      .cls-2 {
        fill: #1594d4;
      }

      .cls-3 {
        fill: #00a9d4;
      }

      .cls-4 {
        fill: #c95f4d;
      }

      .cls-5 {
        fill: #d17154;
      }

      .cls-6 {
        fill: #456299;
      }

      .cls-7 {
        fill: #6c87b8;
      }
    </style>
  </defs>
  <g>
    <path class="cls-1" d="M3585.01,2680.32s59.8-66.85,105.12-132.91c1.79-2.61,29.25,15.54,31.04,12.92,46.05-67.11,92.64-134.92,97.04-141,8.91-12.3,51.54,5.11,30.21,35.04-16.72,23.46-68.79,96.19-90.57,126.59-6.02,8.4,16.86,26.87,16.86,26.87l-72.5,137.74Z" transform="translate(-3324.69 -2415.34)"/>
    <path class="cls-2" d="M3818.21,2419.33c8.91-12.3,51.54,5.11,30.21,35.04-15.08,21.16-58.91,82.38-83.34,116.5l-34.27-24.58C3773.52,2484.05,3814.12,2424.98,3818.21,2419.33Z" transform="translate(-3324.69 -2415.34)"/>
    <path class="cls-2" d="M3836.33,2451.96c22.75,39.03,22.23,64.9,2.42,93.04-19.01,27-58,7.24-58,7.24l4.84,31.42s55.85,15.75,79.41-26.66c32.27-58.09-15.38-119.54-15.38-119.54S3833.65,2447.35,3836.33,2451.96Z" transform="translate(-3324.69 -2415.34)"/>
    <path class="cls-3" d="M3669.59,2547.41c29.98,17.74,112.68,76.09,125.66,84.58s32.49-53,6.04-70.08-41.15-27.76-65.24-41.08S3639.61,2529.68,3669.59,2547.41Z" transform="translate(-3324.69 -2415.34)"/>
  </g>
  <g>
    <path class="cls-4" d="M3407.39,2963.06c0-107.76,18.07-267.03,42.29-267.03h306.91c23.56,0,42.29,180.85,42.29,267.03" transform="translate(-3324.69 -2415.34)"/>
    <path id="Rectangle_32_copy_2" data-name="Rectangle 32 copy 2" class="cls-5" d="M3594.19,2733.5h19.12a14,14,0,0,1,14,14v215.81h-47.12V2747.5A14,14,0,0,1,3594.19,2733.5Zm-108.75,0h19.12a14,14,0,0,1,14,14v215.81h-47.12V2747.5A14,14,0,0,1,3485.44,2733.5Zm217.5,0h19.09a14,14,0,0,1,14,14v215.81h-47.09V2747.5A14,14,0,0,1,3702.94,2733.5Z" transform="translate(-3324.69 -2415.34)"/>
  </g>
  <path class="cls-6" d="M3700.96,2712.31l-353.86,47.06-6.98-62.63-0.14-.47L3387,2663l35-87,71-34,80,14,57,73,45,13Z" transform="translate(-3324.69 -2415.34)"/>
  <path id="Shape_1525_copy" data-name="Shape 1525 copy" class="cls-7" d="M3716.17,2696.32c0.08,10.47-7.11,14.91-15.21,15.99-4.12.54-8.39,1.11-12.78,1.69-0.62-13.29-1.74-31.3-13.36-48.93-18.25-27.7-67.63,9.86-84.43-60.65-18.13-86.85-170.71-52.79-169.2,11.27-2.06,40.36-27.86,61.76-45.05,66.64-31.22,8.87-24.61,53.53-21.11,75.98-2.78.37-5.43,0.72-7.93,1.06-8.64,1.15-19.98-3.05-20.98-15.63a0.73,0.73,0,0,0-.14-0.47c-4.64-32.21,1.61-74.2,46.35-89.63,35.01-20.28-9.85-107.88,118.33-123.55,134.25-24.48,124.87,85.24,144.01,86.41C3640.55,2625.76,3708.43,2609.46,3716.17,2696.32Z" transform="translate(-3324.69 -2415.34)"/>
</svg>
