<svg xmlns="http://www.w3.org/2000/svg" width="687.47" height="604.93" viewBox="0 0 687.47 604.93">
  <defs>
    <style>
      .cls-1 {
        fill: #3fb547;
        fill-rule: evenodd;
      }
    </style>
  </defs>
  <path id="SVG_SN_BG3_Palm" class="cls-1" d="M2480.39,2423.48c2.8-.95,5.65-1.86,8.62-2.71,128.59-36.76,249.97,45.09,253.32,60.32,2.31,10.28-14.93,13.96-14.93,13.96l-185.25,59.37c151.72-7.46,220.16,79.38,220.32,97.46,0.17,12.44-20.64,12.47-20.64,12.47l-168.56,17.23c5.37,3.55,10.76,7.34,16.17,11.45,125.74,95.41,120,209.56,108,223.52-8.07,9.46-23.74-4.22-23.74-4.22L2466.62,2765.3a256.54,256.54,0,0,1,13.15,33.44c42.22,133.51-20.51,213.32-36.38,217.29-10.71,2.73-15.05-15.2-15.05-15.2L2317.08,2684.3,2075,2488.72" transform="translate(-2075 -2411.38)"/>
</svg>
