<svg id="SVG_SN_BG3_Gun" xmlns="http://www.w3.org/2000/svg" width="499.72" height="604.07" viewBox="0 0 499.72 604.07">
  <defs>
    <style>
      .cls-1 {
        fill: #ff7b4f;
      }

      .cls-1, .cls-2, .cls-3 {
        fill-rule: evenodd;
      }

      .cls-2 {
        fill: #ba5740;
      }

      .cls-3 {
        fill: #ff674f;
      }
    </style>
  </defs>
  <path class="cls-1" d="M2804.95,2803.61c-19.74-46.73-2.55-91.21,14.73-106.39,22.1-19.4,282.05-206.49,282.05-206.49s-13.33-84.62,25.8-96.31c14.3-4.27,170.85,163.59,168.31,177.75-6.13,34.24-66.96,34.26-91.57,37.64-4.55.63-7.46,1.03-7.46,1.03L3016,2846S2806.06,2805.07,2804.95,2803.61Z" transform="translate(-2796.16 -2394.31)"/>
  <path class="cls-2" d="M2800.99,2762.3h100.08c25.45,0,1.39,68.38,80.91,68.38s59.82-68.38,85.98-68.38h90.38v236.07H2800.99V2762.3Z" transform="translate(-2796.16 -2394.31)"/>
  <path id="Rectangle_34_copy" data-name="Rectangle 34 copy" class="cls-3" d="M3059.43,2504.25l22.16-21.27a14.172,14.172,0,0,1,20.04.41l112.9,117.59a14.181,14.181,0,0,1-.41,20.04l-22.16,21.27a14.172,14.172,0,0,1-20.04-.41l-112.9-117.58A14.193,14.193,0,0,1,3059.43,2504.25Zm-78.95,51.12,22.16-21.27a14.172,14.172,0,0,1,20.04.41l136.79,146.3a14.172,14.172,0,0,1-.41,20.04l-22.16,21.27a14.172,14.172,0,0,1-20.04-.41l-136.79-146.3A14.171,14.171,0,0,1,2980.48,2555.37Z" transform="translate(-2796.16 -2394.31)"/>
</svg>
