<svg id="SVG_SN_BG3_Flags" xmlns="http://www.w3.org/2000/svg" width="1134" height="484" viewBox="0 0 1134 484">
  <defs>
    <style>
      .cls-1 {
        fill: #53e0b6;
      }

      .cls-1, .cls-2, .cls-3 {
        fill-rule: evenodd;
      }

      .cls-2 {
        fill: #ff6b8b;
      }

      .cls-3 {
        fill: #ffb286;
      }
    </style>
  </defs>
  <path id="Фигура_5_копия_3_copy_3" data-name="Фигура 5 копия 3 copy 3" class="cls-1" d="M2931.41,3354.53c-8.07,10.08-17.38,8.17-20.69-4.25l-29.38-109.92a21.887,21.887,0,0,1-.67-8.84,26.725,26.725,0,0,1,.69-2.73l126.15,24.43a23.927,23.927,0,0,1-.22,3.08,20.79,20.79,0,0,1-4.46,8.98Zm400.15-33.44c-12.8,1.69-18.2-6.13-12-17.39l54.87-99.68a21.749,21.749,0,0,1,5.63-6.84,24.543,24.543,0,0,1,2.38-1.49l74.17,104.93a24.138,24.138,0,0,1-2.29,2.07,20.951,20.951,0,0,1-9.44,3.4Z" transform="translate(-2609 -3007)"/>
  <path id="Фигура_5_копия_3_copy_4" data-name="Фигура 5 копия 3 copy 4" class="cls-2" d="M2726.6,3280.91c-10.76,7.11-19.04,2.44-18.39-10.39l5.75-113.64a21.6,21.6,0,0,1,2.07-8.61,26.754,26.754,0,0,1,1.49-2.39l112.59,61.93a23.634,23.634,0,0,1-1.16,2.87,20.765,20.765,0,0,1-6.99,7.18Zm477.43,64.26c-3.62,12.39-12.96,14.17-20.75,3.96l-69.03-90.46a21.771,21.771,0,0,1-3.99-7.91,26.628,26.628,0,0,1-.4-2.79l125.95-25.46a23.83,23.83,0,0,1,.97,2.93,20.965,20.965,0,0,1-.7,10Zm317.26,143.1c-11.23,6.36-19.16,1.12-17.63-11.64l13.59-112.96a21.8,21.8,0,0,1,2.66-8.45,25.733,25.733,0,0,1,1.66-2.28l108.03,69.56a23.921,23.921,0,0,1-1.35,2.78,20.837,20.837,0,0,1-7.47,6.68Z" transform="translate(-2609 -3007)"/>
  <path class="cls-3" d="M3741.75,3458c-2.96-.27-73.38-6.97-156.44-48.97-48.81-24.69-91.73-56.51-127.55-94.57-42.46-45.1-74.98-99.1-96.77-160.64-50.23,44.91-116.2,77.4-191.55,94.2-75.8,16.91-157.59,17.44-236.54,1.54-71.74-14.44-138.5-42.29-193.05-80.51-59.74-41.86-103.76-94.49-130.85-156.43l12.83-5.62c50.47,115.42,164.86,198.83,313.83,228.83,160.12,32.24,326.41-6.82,423.64-99.52l8.01-7.63,3.47,10.5c47.69,144.31,146.16,219.46,220.36,257.09,80.74,40.95,151.16,47.71,151.86,47.77Z" transform="translate(-2609 -3007)"/>
</svg>
