<svg xmlns="http://www.w3.org/2000/svg" width="1498.53" height="225" viewBox="0 0 1498.53 225">
  <defs>
    <style>
      .cls-1 {
        fill: #40c2a4;
        fill-rule: evenodd;
      }
    </style>
  </defs>
  <path id="SVG_SN_BG3_Carpet" class="cls-1" d="M4298.04,4353.87h-31.08c-4.7,1.48-12.53,2.15-24.96,1.55H2879.63c-10.41.49-17.36-.18-21.86-1.57-0.21.01-.41,0.02-0.62,0.02h-38.89a9.38,9.38,0,0,1,0-18.76h37.24c0.63-.9,1.17-1.69,1.51-2.3l12.57-19.53h-28.76a9.335,9.335,0,1,1,0-18.67h39.05a9.78,9.78,0,0,1,1.63.14l14.2-22.05h-28.36a9.34,9.34,0,0,1,0-18.68h39.04a8.971,8.971,0,0,1,1.28.09l13.61-21.15h-30.49a9.34,9.34,0,1,1,0-18.68h42.51l14.05-21.82h-31.65a9.355,9.355,0,0,1-9.35-9.35v-0.06a9.355,9.355,0,0,1,9.35-9.35h43.72l14.05-21.83h-28.87a9.349,9.349,0,0,1-9.35-9.35v-0.06a9.346,9.346,0,0,1,9.35-9.34h50.64a64.956,64.956,0,0,1,14.29-2.32c5.37-.41,20.49.18,24.95,0l1085.68,0.78a28.854,28.854,0,0,1,10.29,1.82,9.741,9.741,0,0,1,2.31-.28h38.95a9.34,9.34,0,0,1,9.35,9.34v0.06a9.342,9.342,0,0,1-9.35,9.35h-23.22c0.23,0.5.47,1,.7,1.51l13.07,20.32h38.35a9.349,9.349,0,0,1,9.35,9.35v0.06a9.349,9.349,0,0,1-9.35,9.35h-26.28l14.04,21.82h37.16a9.34,9.34,0,0,1,0,18.68h-25.14l13.55,21.06h35.03a9.34,9.34,0,1,1,0,18.68h-23.01l14.09,21.91h35.44a9.335,9.335,0,1,1,0,18.67h-23.43l12.56,19.53c0.47,0.73,1.01,1.5,1.6,2.3h31.83A9.38,9.38,0,0,1,4298.04,4353.87Z" transform="translate(-2808.88 -4130.66)"/>
</svg>
