<?xml version="1.0" encoding="utf-8"?>
<!-- Generator: Adobe Illustrator 24.0.1, SVG Export Plug-In . SVG Version: 6.00 Build 0)  -->
<svg version="1.1" id="SVG_SN_BG3_Rope" xmlns="http://www.w3.org/2000/svg" xmlns:xlink="http://www.w3.org/1999/xlink" x="0px"
	 y="0px" viewBox="0 0 1188.8 192.1" style="enable-background:new 0 0 1188.8 192.1;" xml:space="preserve">
<style type="text/css">
	.st0{fill:#DA9770;}
</style>
<g>
	<path class="st0" d="M342.5,192.1c-59.4,0-114.1-7.9-162.6-23.5c-39.2-12.6-74.5-30.2-104.8-52.4C22.5,77.8,2.7,39,1.9,37.3
		C-2.5,28.7,1,18.2,9.7,13.8c8.6-4.3,19.1-0.8,23.5,7.7c0.3,0.6,18.1,34.4,64.4,67.6c43.1,31,120.6,67.9,245,67.9
		c124.7,0,207.1-40.3,254.3-74.1C648,46.3,670.2,9.1,670.4,8.7c4.8-8.4,15.5-11.2,23.9-6.4c8.4,4.8,11.2,15.6,6.4,23.9
		c-1,1.7-25.2,43-81.8,84c-32.9,23.8-70.2,42.8-110.8,56.4C457.7,183.5,402,192.1,342.5,192.1z"/>
</g>
<g id="Shape_33_copy">
	<path class="st0" d="M994.8,164.9c-67.4,0-114.3-26.9-141.8-49.5c-30-24.6-44-49.5-44.6-50.5c-4.7-8.4-1.7-19.1,6.8-23.8
		c8.4-4.7,19.1-1.7,23.8,6.7c0.3,0.5,12.2,21.2,37.4,41.4c33.4,27,73.3,40.6,118.5,40.6c45.4,0,86.3-13.9,121.5-41.4
		c26.7-20.8,40-42.1,40.1-42.3c5-8.3,15.8-10.8,24-5.8c8.3,5,10.9,15.8,5.8,24.1c-0.6,1-16,26-47.2,50.6
		C1110.4,137.8,1062.1,164.9,994.8,164.9z"/>
</g>
</svg>
