<svg id="SVG_SN_BG3_Pufic" xmlns="http://www.w3.org/2000/svg" width="396.38" height="256.91" viewBox="0 0 396.38 256.91">
  <defs>
    <style>
      .cls-1 {
        fill: #ffceba;
      }

      .cls-1, .cls-3 {
        fill-rule: evenodd;
      }

      .cls-2 {
        fill: #ffdfc0;
      }

      .cls-3 {
        fill: #c2d8ff;
      }

      .cls-4 {
        fill: #d9e7ff;
      }
    </style>
  </defs>
  <path class="cls-1" d="M3557.93,5789.27H3378.69c-29,0-47.38-28.28-42.36-59.31l21.19-131.21c2.56-15.86,14.62-28.9,29.58-34.25,18.7-7.86,48.12-12.94,81.24-12.94,33.34,0,62.94,5.14,81.62,13.09a46.862,46.862,0,0,1,12.35,6.82c0.4,0.3.78,0.61,1.15,0.91,0.07,0.06.15,0.12,0.22,0.18,0.38,0.31.76,0.63,1.11,0.95a43.033,43.033,0,0,1,14.31,25.24l21.2,131.21C3605.31,5760.99,3586.93,5789.27,3557.93,5789.27Z" transform="translate(-3335.5 -5551.56)"/>
  <rect class="cls-2" x="6.69" y="66.91" width="252.28" height="30.34"/>
  <path id="Ellipse_1469_copy" data-name="Ellipse 1469 copy" class="cls-3" d="M3697.42,5808.47H3554.44c-23.13,0-37.79-22.56-33.79-47.32l16.91-104.66c2.03-12.59,11.56-22.95,23.42-27.26,14.91-6.31,38.47-10.39,64.99-10.39,26.85,0,50.68,4.18,65.55,10.63a37.351,37.351,0,0,1,8.37,4.51,26.41,26.41,0,0,1,3.78,3.09,34.136,34.136,0,0,1,10.64,19.42l16.9,104.66C3735.21,5785.91,3720.55,5808.47,3697.42,5808.47Z" transform="translate(-3335.5 -5551.56)"/>
  <rect id="Rectangle_1453_copy" data-name="Rectangle 1453 copy" class="cls-4" x="189.81" y="120.66" width="201.25" height="24.19"/>
</svg>
