<?xml version="1.0" encoding="utf-8"?>
<!-- Generator: Adobe Illustrator 23.0.5, SVG Export Plug-In . SVG Version: 6.00 Build 0)  -->
<svg version="1.1" id="SVG_SN_BG3_Map" xmlns="http://www.w3.org/2000/svg" xmlns:xlink="http://www.w3.org/1999/xlink" x="0px"
	 y="0px" viewBox="0 0 487.6 299.8" style="enable-background:new 0 0 487.6 299.8;" xml:space="preserve">
<style type="text/css">
	.st0{fill-rule:evenodd;clip-rule:evenodd;fill:#C2F7AB;}
	.st1{fill:#DFFFEA;}
	.st2{fill-rule:evenodd;clip-rule:evenodd;fill:#ABF7F1;}
</style>
<path class="st0" d="M63.3,0.2h328.4l14.8,28.2l25.6-28.2h43.5c6.6,0,12,5.4,12,12v178.6l-18.4,9.7l18.4,9.6V229l-37.2,7.1
	l37.2,15.5v36.2c0,6.6-5.4,12-12,12H156.7l-6.5-28.2l-7.7,28.2H12.3c-6.6,0-12-5.4-12-12v-226c0-12.8-2.1-18,6.4-25.9L40.1,5.1
	C47.1-1.4,48.8,0.2,63.3,0.2z"/>
<path class="st1" d="M55,39.1h376.7c7.7,0,14,6.3,14,14v196c0,7.7-6.3,14-14,14H55c-7.7,0-14-6.3-14-14v-196
	C41,45.4,47.3,39.1,55,39.1z"/>
<path class="st2" d="M125.2,151.1c-0.5-10.8,2.8-14.2,11-16.7c13.9-4.3,24.1-7.8,30-13.9c8.1-8.4,5-15.2,13.9-23.4
	c5.8-5.4,9.4-6.2,12.4-9.5c3.3-3.5-0.1-8.3-5.1-8.8c-8.9-0.8-7.8,1-22.6,2.2c-4,0.3-11.1-17.7-14.6-21.1c-4.8-4.6-13.2-1.7-17.5-0.7
	c-15.5,3.4-23.5,1.6-32.1,8.8c-6.5,5.3-14.8,28-13.1,62.3c0.1,2.4,0.3,4.8,0.5,7c0,0,6,3.7,14.9,7.3c3.9,1.6,11.1-0.9,15.6,0.3
	C122.4,146.2,125.2,151.7,125.2,151.1z M105.5,210.5c-4.1-10.7-18-10.1-24.1-21.2c-5.5-10-3.3-48.2,2.1-51.4
	c4.3-2.5,11.5,5,17.8,6.6c6.3,1.6,16.5-2.2,21,2.9c4.6,5.3,17.4,42.1,20.6,48.9c3,6.5,16.9,7.2,17.2,11.9
	c0.5,10.4-10.7,12.7-20.1,17.7c-12.8,6.8-12.4,12.3-13.3,16.5c-1.5,7.4,3.2,12.9-3.6,14.7c-3.8,1-16.7-8.8-19-22.6
	C102.4,225,108.6,218.7,105.5,210.5z M298.8,167.4c-7.9-3.6-17.1,1.2-21.7-3.4c-5-5-0.4-16.4,7.3-35.8c-0.1-2.2,5.6,3.5,16.1,4.5
	c17.6,2,14.4,28.5,29.6,32.6c30.1-8.8,35.3-19,37.3-14.2c3.8,9.1-1,18.6,9.4,26.2c5,3.7,15.8,4.6,12.6,14.1
	c-4.4,12.8-21.5,7-33,20.3c-6.3,7.3-10.1,21.3-22.3,29.4c-10.6,7-25.2,9.8-29.5,4.6c-6.1-7.4,13.8-28.1,10.6-50.8
	C314.2,189.4,310.8,172.8,298.8,167.4z M341.6,160.6c-1.9,1.6-7.9,6-13.9,4.4c-9.3-2.5-9.5-19.8-19-29.2c-4.3-4.3-25.6-3.8-23.4-9.8
	c3.6-9.6,9.5-18.5,4.5-27.4c-4-7.1-19.2-3.2-19-2.8c0.2,0,0.3,0,0.5,0c-10.1,1.2-19.9,1.4-21.2-2.9c-3.3-10.7,8.2-12.5,11.7-19.7
	c3.5-7.1,4-12,9.5-16.1c5.1-3.8,11.4-4.6,16.1-4.4c11.3,0.6,14.9,9,24.8,8.8c10.4-0.2,14.3-9.9,24.8-12.4
	c11.7-2.8,20.4,4.9,31.4,5.9c10.2,0.9,19.2-4,30.7,0c8.8,3.1,13.5,10.9,22.6,19.7c9.5,9.2,16,13.7,16.1,21.9c0,2.8-2.3,9.5-8,16.1
	c-3.8,4.3-8.5,6-11,11c-4.5,9,1.8,16.2-2.2,25.6c-3.3,7.6-11.6,13.4-16.1,11.7c-6.3-2.4-2.2-18.6-11-24.8
	c-4.7-3.3-20.7-3.5-22.4,13.7C366.7,154.8,345.5,157.3,341.6,160.6z"/>
</svg>
