<svg id="SVG_SN_BG3_Telescope" xmlns="http://www.w3.org/2000/svg" width="228.5" height="209.28" viewBox="0 0 228.5 209.28">
  <defs>
    <style>
      .cls-1 {
        fill: #93c8ff;
      }

      .cls-2 {
        fill: #a18aff;
      }

      .cls-2, .cls-3, .cls-4, .cls-5 {
        fill-rule: evenodd;
      }

      .cls-3 {
        fill: #8375ff;
      }

      .cls-4 {
        fill: #bfa3ff;
      }

      .cls-5 {
        fill: #9378ff;
      }
    </style>
  </defs>
  <circle class="cls-1" cx="34" cy="48.78" r="34"/>
  <path class="cls-2" d="M4170.48,5664.66l30.83-75.11,169.2,102.78-10.28,26.09Z" transform="translate(-4151.5 -5578.72)"/>
  <path class="cls-3" d="M4223.64,5603.11l40.36,24.52-24.07,56.71-44.51-12.61Z" transform="translate(-4151.5 -5578.72)"/>
  <path class="cls-2" d="M4195.79,5579.11l14.78,5.63c3.67,1.4,5.23,6.23,3.49,10.8l-28.7,75.29c-1.74,4.57-6.13,7.13-9.8,5.73l-14.78-5.63c-3.67-1.4-5.24-6.23-3.5-10.8l28.71-75.3C4187.73,5580.27,4192.12,5577.71,4195.79,5579.11Z" transform="translate(-4151.5 -5578.72)"/>
  <path class="cls-4" d="M4276.42,5743.72l-23.71,41.91h-30.05l41.11-64.04Zm42.7,0,34,44.28H4380l-52.18-67.21Z" transform="translate(-4151.5 -5578.72)"/>
  <path id="Rectangle_26_copy" data-name="Rectangle 26 copy" class="cls-5" d="M4368.88,5679.87l7.43,2.81c1.85,0.7,2.64,3.11,1.76,5.39l-14.44,37.57c-0.87,2.28-3.08,3.56-4.93,2.86l-7.43-2.81c-1.85-.7-2.63-3.11-1.76-5.39l14.44-37.57C4364.83,5680.45,4367.03,5679.17,4368.88,5679.87Z" transform="translate(-4151.5 -5578.72)"/>
</svg>
