<svg xmlns="http://www.w3.org/2000/svg" width="159.78" height="166.47" viewBox="0 0 159.78 166.47">
  <defs>
    <style>
      .cls-1 {
        fill: #ff6674;
        fill-rule: evenodd;
      }
    </style>
  </defs>
  <path id="SVG_SN_BG3_Bag" class="cls-1" d="M3102.82,6197.68c0-.95-0.04-1.88-0.06-2.81,0.02-.3.06-0.59,0.06-0.89v3.7Zm-20.4,11.63H2963.43c-10.87,0-19.73-6.4-20.34-14.44,1-41.96,24.41-77.17,56.36-88.95a9.308,9.308,0,0,1,7.22-14.42c0.04-.32.08-0.63,0.13-0.95,0,0-7.72-24.01-11.44-35.49-2.83-8.73,2.36-13.2,9.67-12.04l53.65,8.51c7.31,1.16,8.85,7.14,3.53,14.14-4.14,5.45-15.09,20.72-19.73,27.21a9.3,9.3,0,0,1,3.03,12.74c32.4,11.45,56.23,46.91,57.25,89.25C3102.15,6202.91,3093.29,6209.31,3082.42,6209.31Zm-139.39-15.33a8.867,8.867,0,0,0,.06.89c-0.03.93-.06,1.86-0.06,2.81v-3.7Z" transform="translate(-2943.03 -6042.84)"/>
</svg>
