<svg id="SVG_SN_BG3_BedBoat" xmlns="http://www.w3.org/2000/svg" width="1091.37" height="399.9" viewBox="0 0 1091.37 399.9">
  <defs>
    <style>
      .cls-1 {
        fill: #fffff7;
      }

      .cls-1, .cls-2, .cls-3, .cls-4 {
        fill-rule: evenodd;
      }

      .cls-2 {
        fill: #ffcd75;
      }

      .cls-3 {
        fill: #ffb561;
      }

      .cls-4 {
        fill: #ffa857;
      }
    </style>
  </defs>
  <path class="cls-1" d="M2221.03,5664.15c22.67-52.08,316.67-146.47,517.86-52.3,54.69-75.78,247.65-139.43,371.62-8.23,77.3,60.55-22.3,85.04-22.3,85.04H2348.55S2180,5758.43,2221.03,5664.15Z" transform="translate(-2214.63 -5527.91)"/>
  <path class="cls-2" d="M2232.81,5651.83s610.37,1.05,631.29,1.05,81-62.07,106.27-62.07h305.12s-22.23,190.83-131.97,320.9c-52.04,36.19-908.6,0-908.6,0Z" transform="translate(-2214.63 -5527.91)"/>
  <path class="cls-3" d="M2970.37,5590.81h305.12s-1.38,11.81-5.14,31.56h-282.1c-25.74,0-85.08,65.99-109.42,65.99h-635.5l2.29-36.51c87.92,0.15,599.36,1.03,618.48,1.03C2885.01,5652.88,2945.1,5590.81,2970.37,5590.81Z" transform="translate(-2214.63 -5527.91)"/>
  <path id="Rectangle_31_copy" data-name="Rectangle 31 copy" class="cls-3" d="M2348.75,5739.16H2936.5a6.5,6.5,0,0,1,6.5,6.5v0.68a6.5,6.5,0,0,1-6.5,6.5H2348.75a6.5,6.5,0,0,1-6.5-6.5v-0.68A6.5,6.5,0,0,1,2348.75,5739.16Zm-63.16,58.93h587.78a6.5,6.5,0,0,1,6.5,6.5v0.66a6.5,6.5,0,0,1-6.5,6.5H2285.59a6.5,6.5,0,0,1-6.5-6.5v-0.66A6.5,6.5,0,0,1,2285.59,5798.09Z" transform="translate(-2214.63 -5527.91)"/>
  <path class="cls-4" d="M3249.09,5571.87s-11.02,92.45-27.35,149.4c-34.09,118.83-108.86,179.25-120.24,179.25-38.57,0-842.61,3.48-842.61,3.48l-0.04,23.44,854.82,0.02c34.23-10.69,113.54-87.03,151.3-197.77,30.77-90.26,41.03-157.82,41.03-157.82s-5.68-12.63-14.14-12.63h-26.22C3255.87,5559.24,3249.09,5571.87,3249.09,5571.87Z" transform="translate(-2214.63 -5527.91)"/>
</svg>
