<svg id="SVG_SN_BG3_Chair" xmlns="http://www.w3.org/2000/svg" width="226" height="408.66" viewBox="0 0 226 408.66">
  <defs>
    <style>
      .cls-1 {
        fill: #9cc749;
      }

      .cls-1, .cls-2 {
        fill-rule: evenodd;
      }

      .cls-2 {
        fill: #b4de63;
      }
    </style>
  </defs>
  <path id="Rectangle_16_copy" data-name="Rectangle 16 copy" class="cls-1" d="M2443.8,4848.5l-6.14-62.15L2437,4789l-76.17-82.16-76.74,80.69-6.32,61.47-27.78.65,15.29-159.64,28.49,3.35-5.16,50.22L2322,4705l30.58-7.06L2348,4693l13,3,13-3-4.68,4.92L2400,4705l33.44,38.65-4.98-50.39,25.99-3.35L2469,4847Zm-40.81-167.85,7.53-76.65H2295.27l7.52,76.16-23.83,3.34-15.34-155.24,23.83-3.35,5.74,58.09h119.39l5.7-57.99,23.73,3.35L2426.71,4684Z" transform="translate(-2243 -4441)"/>
  <path class="cls-2" d="M2354,4441c105.33,0,107,37,107,37v46a14,14,0,0,1-14,14H2264a14,14,0,0,1-14-14v-46S2252.67,4441,2354,4441Zm-101,226.56h206a10,10,0,0,1,10,10V4694a10,10,0,0,1-10,10H2253a10,10,0,0,1-10-10v-16.44A10,10,0,0,1,2253,4667.56Z" transform="translate(-2243 -4441)"/>
</svg>
