<svg id="SVG_SN_BG3_Shovel" xmlns="http://www.w3.org/2000/svg" width="135.88" height="232.69" viewBox="0 0 135.88 232.69">
  <defs>
    <style>
      .cls-1 {
        fill: #ffbe85;
      }

      .cls-1, .cls-2 {
        fill-rule: evenodd;
      }

      .cls-2 {
        fill: #ffa467;
      }
    </style>
  </defs>
  <path id="Rectangle_30_copy" data-name="Rectangle 30 copy" class="cls-1" d="M3150.71,6007.1l-10.71,2.52a7.013,7.013,0,0,0-5.21,8.42l24.05,102.21a7.013,7.013,0,0,0,8.42,5.21l10.71-2.52a7.005,7.005,0,0,0,5.21-8.42l-24.05-102.21A7.013,7.013,0,0,0,3150.71,6007.1Z" transform="translate(-3103 -5981.53)"/>
  <path id="Rectangle_30_copy_2" data-name="Rectangle 30 copy 2" class="cls-2" d="M3175.56,5981.73l-67.17,15.81a7.013,7.013,0,0,0-5.21,8.42l4.58,19.47a7.013,7.013,0,0,0,8.42,5.21l67.17-15.81a7.008,7.008,0,0,0,5.21-8.42l-4.58-19.47A7.013,7.013,0,0,0,3175.56,5981.73Zm39.51,106.79-94.42,22.22a7.013,7.013,0,0,0-5.21,8.42l14.2,60.35a45.02,45.02,0,0,0,54.12,33.5l20.44-4.81a45.006,45.006,0,0,0,33.49-54.12l-14.2-60.35A7.008,7.008,0,0,0,3215.07,6088.52Z" transform="translate(-3103 -5981.53)"/>
</svg>
