<?xml version="1.0" encoding="utf-8"?>
<!-- Generator: Adobe Illustrator 24.0.1, SVG Export Plug-In . SVG Version: 6.00 Build 0)  -->
<svg version="1.1" id="SVG_SN_BG3_BedsidTable" xmlns="http://www.w3.org/2000/svg" xmlns:xlink="http://www.w3.org/1999/xlink"
	 x="0px" y="0px" viewBox="0 0 287 245" style="enable-background:new 0 0 287 245;" xml:space="preserve">
<style type="text/css">
	.st0{fill:#FFB070;}
	.st1{fill-rule:evenodd;clip-rule:evenodd;fill:#FFC278;}
	.st2{fill:#FFA366;}
</style>
<path class="st0" d="M17,15h255v219c0,6.1-4.9,11-11,11H28c-6.1,0-11-4.9-11-11V15z"/>
<path id="Rectangle_12_copy_2" class="st1" d="M51.9,45.9h182.2c7.7,0,14,6.3,14,14c0,0,0,0,0,0v50.1c0,7.7-6.3,14-14,14l0,0H51.9
	c-7.7,0-14-6.3-14-14l0,0V59.9C37.9,52.2,44.2,45.9,51.9,45.9C51.9,45.9,51.9,45.9,51.9,45.9z M51.9,142.9h182.2c7.7,0,14,6.3,14,14
	l0,0v50.1c0,7.7-6.3,14-14,14c0,0,0,0,0,0H51.9c-7.7,0-14-6.3-14-14c0,0,0,0,0,0v-50.1C37.9,149.2,44.2,142.9,51.9,142.9L51.9,142.9
	z"/>
<path class="st2" d="M8,0h271c4.4,0,8,3.6,8,8v14c0,4.4-3.6,8-8,8H8c-4.4,0-8-3.6-8-8V8C0,3.6,3.6,0,8,0z"/>
</svg>
