<svg id="SVG_SN_BG3_Boat" xmlns="http://www.w3.org/2000/svg" width="571.94" height="581.03" viewBox="0 0 571.94 581.03">
  <defs>
    <style>
      .cls-1 {
        fill: #fff;
      }

      .cls-1, .cls-2, .cls-3, .cls-4, .cls-5, .cls-6 {
        fill-rule: evenodd;
      }

      .cls-2 {
        fill: #b05cff;
      }

      .cls-3 {
        fill: #a1cff9;
      }

      .cls-4 {
        fill: #bbe2f2;
      }

      .cls-5 {
        fill: #6352ff;
      }

      .cls-6 {
        fill: #ff638d;
      }
    </style>
  </defs>
  <g>
    <path class="cls-1" d="M4366.06,2780.25l-211.21-31.95s-13.61-6.86-6.13-30.45,30.57-150,265.66-264.91c8.06,7.11,10.14,10.86,10.14,10.86s-39.92,60.72-63.12,149.02,17.08,161.2,17.23,162.26S4366.06,2780.25,4366.06,2780.25Z" transform="translate(-3962.94 -2428)"/>
    <path class="cls-1" d="M4478.22,2789.95c0.18-1.5-58.67-179-59.47-218.21-13.5,89.27-35.33,205.56-35.33,205.56C4384.72,2777.49,4478.05,2791.45,4478.22,2789.95Z" transform="translate(-3962.94 -2428)"/>
    <path id="Rectangle_1762_copy" data-name="Rectangle 1762 copy" class="cls-2" d="M4428.76,2529.36a23.217,23.217,0,0,0,9.34-.65l86.68-12.58c11.98-.68,13.77-13.46,2.74-19.09l-78.88-51.63a23.11,23.11,0,0,0-8.73-3.39Z" transform="translate(-3962.94 -2428)"/>
    <path id="Rounded_Rectangle_1764" data-name="Rounded Rectangle 1764" class="cls-3" d="M4438.11,2429.52l-9.29-1.41a11.208,11.208,0,0,0-12.75,9.4L4347.32,2892a11.2,11.2,0,0,0,9.39,12.75l9.29,1.4a11.186,11.186,0,0,0,12.74-9.39l68.76-454.5A11.193,11.193,0,0,0,4438.11,2429.52Z" transform="translate(-3962.94 -2428)"/>
    <path id="Rounded_Rectangle_3417" data-name="Rounded Rectangle 3417" class="cls-4" d="M4468.82,2793.26l-327.55-47.12a10.609,10.609,0,1,0-3.17,20.98l327.55,47.12A10.609,10.609,0,0,0,4468.82,2793.26Z" transform="translate(-3962.94 -2428)"/>
  </g>
  <g>
    <path class="cls-5" d="M4461.63,2833.34l-308.11-46.61s-37.4-2.05-45.31-25.86-11.01-26.05-48.78-31.77-65.57-9.92-65.57-9.92-33.47-7.08-30.75,29.63,41.74,217.33,172.72,237.14c168.84,25.54,196.54,32.44,253.25,7.62,62.03-27.14,88.97-107.56,95.51-127.91C4492.95,2839.67,4473.98,2835.39,4461.63,2833.34Z" transform="translate(-3962.94 -2428)"/>
    <path class="cls-6" d="M4484.59,2865.66c-1.72,5.37-4.87,14.92-9.7,26.56l-348.62-52.74s-33.88-.2-45.71-27.01-22.56-26.91-32.13-28.36c-8.17-1.23-65.39-9.89-81.92-12.39a206.865,206.865,0,0,1-3.4-22.91c-2.72-36.71,30.75-29.63,30.75-29.63s27.8,4.21,65.57,9.92,40.87,7.96,48.78,31.77,45.31,25.86,45.31,25.86l308.11,46.61C4473.98,2835.39,4492.95,2839.67,4484.59,2865.66Z" transform="translate(-3962.94 -2428)"/>
  </g>
</svg>
