<svg id="SVG_SN_BG3_Chest" xmlns="http://www.w3.org/2000/svg" width="472.37" height="339.47" viewBox="0 0 472.37 339.47">
  <defs>
    <style>
      .cls-1 {
        fill: #ef8d4a;
      }

      .cls-1, .cls-2, .cls-3, .cls-4, .cls-5 {
        fill-rule: evenodd;
      }

      .cls-2 {
        fill: #f79a57;
      }

      .cls-3 {
        fill: #f2eb4a;
      }

      .cls-4 {
        fill: #ebce1c;
      }

      .cls-5 {
        fill: #cc8e1d;
      }
    </style>
  </defs>
  <path id="Эллипс_22_копия_2" data-name="Эллипс 22 копия 2" class="cls-1" d="M2480,4345.67H2293.37V4072.24c37.14-27.19,101.69-41.15,186.63-41.81,87.4,0.67,153.22,15.44,189.8,44.2v271.04H2480Z" transform="translate(-2246.97 -4030.44)"/>
  <path id="Прямоугольник_25_копия_2" data-name="Прямоугольник 25 копия 2" class="cls-2" d="M2592.83,4345.67h-13.71V4038.92c4.68,0.88,9.26,1.82,13.71,2.83v303.92Zm-224.6-304.16q6.675-1.5,13.71-2.78v306.94h-13.71V4041.51Zm118.1-11v315.16h-13.71V4030.52q3.66-.06,7.38-0.09C2482.13,4030.44,2484.23,4030.48,2486.33,4030.51Z" transform="translate(-2246.97 -4030.44)"/>
  <path id="Прямоугольник_25_копия" data-name="Прямоугольник 25 копия" class="cls-3" d="M2719.36,4369.92H2246.97V4093.66a23.2,23.2,0,0,1,23.2-23.2h22.14a8.433,8.433,0,0,1,8.44,8.43v222.49h0v3.69a14.217,14.217,0,0,0,12.65,14.14v0.1h339.53v-0.1a14.223,14.223,0,0,0,12.65-14.13v-3.7h0V4078.89a8.433,8.433,0,0,1,8.44-8.43h22.14a23.2,23.2,0,0,1,23.2,23.2v276.26Z" transform="translate(-2246.97 -4030.44)"/>
  <path id="Эллипс_22" data-name="Эллипс 22" class="cls-4" d="M2554.85,4195.94c0,0.17.02,0.35,0.02,0.52a69.065,69.065,0,1,1-138.13,0c0-.17.01-0.35,0.01-0.52h138.1Z" transform="translate(-2246.97 -4030.44)"/>
  <path id="Эллипс_23" data-name="Эллипс 23" class="cls-5" d="M2495.13,4225.88c3.59,7.13,5.96,15.92,5.96,18.56,0,4.66-6.84,8.44-15.29,8.44s-15.29-3.78-15.29-8.44c0-2.61,1.98-11.21,5.2-18.29A14.765,14.765,0,1,1,2495.13,4225.88Z" transform="translate(-2246.97 -4030.44)"/>
  <path id="Прямоугольник_24" data-name="Прямоугольник 24" class="cls-3" d="M2264.9,4141.11h420.72v54.83H2264.9v-54.83Z" transform="translate(-2246.97 -4030.44)"/>
</svg>
