<svg xmlns="http://www.w3.org/2000/svg" width="429" height="382" viewBox="0 0 429 382">
  <defs>
    <style>
      .cls-1 {
        fill: #19e3e5;
      }

      .cls-1, .cls-2, .cls-3 {
        fill-rule: evenodd;
      }

      .cls-2 {
        fill: #19dce6;
      }

      .cls-3 {
        fill: #18cee4;
      }
    </style>
  </defs>
  <path id="Ellipse_1_copy_12_копия_3" data-name="Ellipse 1 copy 12 копия 3" class="cls-1" d="M403,227l-35.974,10.716v129.31H14.974V14.974H55.906L68,44,99,57l30-12,16.681-30.026h91.225L249,44l31,13,30-12,16.681-30.026h40.345V145.582L402,156l18,36Z"/>
  <path id="Rectangle_1766_copy_11" data-name="Rectangle 1766 copy 11" class="cls-2" d="M237.37,316.941c5.522-7.709,10.963-11.855,16.367-13.795l-0.015-.026C264.943,299,276,304.451,287.286,307.4a57.416,57.416,0,0,0,7.756,1.581q1.308,0.133,2.555.18c4.12,0.077,7.506-.973,12.454-3.162,25.862-11.445,31.334-35.694,47.727-58.579,5.523-7.709,10.964-11.856,16.368-13.795l-0.015-.027a25.737,25.737,0,0,1,11.263-1.356l-18.368,5.472v40c-14.019,21.434-20.419,43.211-44.514,53.873-4.948,2.19-8.334,3.24-12.454,3.163q-1.247-.048-2.554-0.18A57.4,57.4,0,0,1,299.747,333c-11.285-2.95-22.343-8.4-33.564-4.282l0.015,0.026c-5.4,1.939-10.845,6.086-16.367,13.8-5.879,8.207-10.354,16.587-14.867,24.491H203.185C218.183,354.227,224.322,335.156,237.37,316.941ZM391.491,172.994c-4.948,2.189-8.334,3.239-12.454,3.162q-1.246-.048-2.555-0.18a57.251,57.251,0,0,1-7.756-1.582c-11.285-2.95-22.343-8.405-33.564-4.282l0.015,0.027c-5.4,1.94-10.845,6.086-16.367,13.795-16.394,22.885-21.866,47.135-47.728,58.579-4.948,2.189-8.334,3.24-12.454,3.163q-1.246-.048-2.554-0.181a57.241,57.241,0,0,1-7.757-1.581c-11.285-2.95-22.343-8.405-33.564-4.282l0.015,0.026c-5.4,1.94-10.845,6.086-16.367,13.8-16.394,22.886-21.866,47.135-47.727,58.579-4.948,2.19-8.335,3.24-12.455,3.163q-1.246-.048-2.554-0.18a57.385,57.385,0,0,1-7.756-1.581c-11.286-2.951-22.343-8.405-33.564-4.282l0.015,0.026c-5.4,1.94-10.845,6.086-16.367,13.8-11.128,15.535-17.23,31.693-28.087,44.053H14.974v-9.887c0.9-.35,1.824-0.736,2.83-1.181,25.862-11.444,31.334-35.694,47.728-58.579,5.523-7.709,10.964-11.855,16.367-13.8l-0.015-.026c11.221-4.123,22.278,1.332,33.563,4.282a57.416,57.416,0,0,0,7.756,1.581q1.309,0.133,2.555.18c4.12,0.077,7.507-.973,12.454-3.162,25.862-11.445,31.334-35.694,47.728-58.579,5.522-7.709,10.963-11.855,16.367-13.8l-0.015-.027c11.221-4.123,22.279,1.332,33.564,4.282a57.282,57.282,0,0,0,7.756,1.582q1.308,0.134,2.555.18c4.12,0.077,7.506-.973,12.454-3.163,25.862-11.445,31.334-35.694,47.727-58.579,5.523-7.709,10.964-11.855,16.368-13.8l-0.015-.026c11.221-4.123,22.278,1.332,33.563,4.282a57.4,57.4,0,0,0,7.757,1.581q1.308,0.133,2.555.181a24.336,24.336,0,0,0,10.007-2.134L402,156l3.886,7.772A54.753,54.753,0,0,1,391.491,172.994ZM170.01,67.449c-4.947,2.19-8.333,3.24-12.453,3.163q-1.246-.049-2.554-0.18a57.292,57.292,0,0,1-7.757-1.581C135.96,65.9,124.9,60.445,113.682,64.567l0.015,0.026c-5.4,1.94-10.845,6.086-16.367,13.8C80.936,101.274,75.464,125.523,49.6,136.968c-4.948,2.189-8.335,3.24-12.454,3.163q-1.247-.048-2.555-0.18a57.41,57.41,0,0,1-7.756-1.582c-3.977-1.04-7.926-2.386-11.863-3.519V112.925a55.141,55.141,0,0,0,7.158,1.432q1.308,0.133,2.555.18c4.12,0.077,7.506-.974,12.454-3.163C63,99.93,68.475,75.68,84.868,52.8c0.323-.451.646-0.888,0.969-1.315L99,57l30-12,1.626-2.926c1.383,0.417,2.769.818,4.159,1.182a57.406,57.406,0,0,0,7.756,1.582q1.308,0.133,2.555.18c4.12,0.077,7.506-.973,12.454-3.163,13.707-6.066,21.686-15.73,28.6-26.881h27.47C200.218,35.951,193.581,57.018,170.01,67.449Zm197.016-2.09c-6.194,8.921-13.663,16.557-25.177,21.653C336.9,89.2,333.516,90.25,329.4,90.173q-1.247-.048-2.555-0.18a57.353,57.353,0,0,1-7.756-1.582c-11.285-2.95-22.343-8.405-33.564-4.282l0.015,0.026c-5.4,1.94-10.845,6.086-16.368,13.8-16.393,22.885-21.865,47.134-47.727,58.579-4.948,2.189-8.334,3.24-12.455,3.163q-1.245-.048-2.554-0.181a57.23,57.23,0,0,1-7.756-1.581c-11.285-2.95-22.343-8.405-33.564-4.282l0.015,0.026c-5.4,1.94-10.845,6.086-16.367,13.795-16.394,22.886-21.866,47.135-47.728,58.579-4.947,2.19-8.334,3.24-12.454,3.163q-1.247-.048-2.555-0.18a57.388,57.388,0,0,1-7.756-1.581c-11.285-2.951-22.343-8.405-33.564-4.282l0.015,0.026c-5.4,1.94-10.845,6.086-16.368,13.8a234.393,234.393,0,0,0-13.377,21.868V212.7c0.3-.435.6-0.872,0.916-1.307,5.523-7.709,10.964-11.855,16.367-13.795l-0.015-.026c11.221-4.123,22.279,1.332,33.564,4.282a57.392,57.392,0,0,0,7.756,1.581q1.308,0.133,2.555.18c4.12,0.077,7.507-.973,12.454-3.162,25.862-11.445,31.334-35.694,47.727-58.579,5.523-7.709,10.964-11.855,16.368-13.8l-0.015-.027c11.221-4.123,22.279,1.332,33.564,4.282a57.437,57.437,0,0,0,7.756,1.582q1.308,0.133,2.555.18c4.12,0.077,7.506-.973,12.454-3.163,25.862-11.445,31.333-35.694,47.727-58.579,5.523-7.709,10.964-11.855,16.368-13.8l-0.016-.026c11.221-4.123,22.279,1.332,33.564,4.282a57.4,57.4,0,0,0,7.756,1.581q1.309,0.133,2.555.18c4.121,0.077,7.507-.973,12.454-3.163,19.826-8.773,27.671-25.073,37.638-42.513V65.358Z"/>
  <path id="Line" class="cls-3" d="M429,192a53.986,53.986,0,0,1-46,53.379V382H40A40,40,0,0,1,0,342V0H63.014V11h0.013A36.491,36.491,0,0,0,136,11h0.013V0h109V11h0.012A36.491,36.491,0,0,0,318,11h0.013V0H383V138.621A53.986,53.986,0,0,1,429,192Zm-53-36v-0.013H365V17H335.523a53.976,53.976,0,0,1-107.046,0H153.523A53.975,53.975,0,0,1,46.477,17H17V340a25,25,0,0,0,25,25H365V228.986h11v-0.012A36.491,36.491,0,0,0,376,156Z"/>
</svg>
