<svg xmlns="http://www.w3.org/2000/svg" width="384" height="429" viewBox="0 0 384 429">
  <defs>
    <style>
      .cls-1 {
        fill: #19e3e5;
      }

      .cls-1, .cls-2, .cls-3 {
        fill-rule: evenodd;
      }

      .cls-2 {
        fill: #19dce6;
      }

      .cls-3 {
        fill: #18cee4;
      }
    </style>
  </defs>
  <path id="Ellipse_1_copy_12_копия_3" data-name="Ellipse 1 copy 12 копия 3" class="cls-1" d="M369,414H340v-0.26H16.241V286.082l21.224-9.7,15.15-31.31-12.12-39.39-24.254-9.555V62.26H125V62h15.68L162,21,192,8l34,12,14.509,42H265v0.26H368.731V386H369v28Z"/>
  <path id="Rectangle_1766_copy_13" data-name="Rectangle 1766 copy 13" class="cls-2" d="M66.545,363.1l-0.015-.026c11.221-4.123,22.279,1.332,33.564,4.282a57.282,57.282,0,0,0,7.756,1.582q1.308,0.132,2.555.18c4.119,0.077,7.506-.973,12.454-3.163,25.862-11.445,31.334-35.694,47.728-58.579,5.522-7.709,10.963-11.855,16.367-13.8l-0.015-.026c11.22-4.123,22.278,1.332,33.564,4.282a57.354,57.354,0,0,0,7.756,1.581q1.308,0.133,2.555.18c4.119,0.077,7.506-.973,12.453-3.162,25.862-11.445,31.335-35.7,47.728-58.579,5.522-7.709,10.964-11.856,16.368-13.8l-0.015-.026c11.22-4.123,22.278,1.332,33.563,4.282a57.417,57.417,0,0,0,7.757,1.582q1.308,0.132,2.554.18c4.12,0.077,7.507-.973,12.454-3.163,1.781-.788,3.457-1.643,5.055-2.548v30.775a20.669,20.669,0,0,1-5.048.53q-1.245-.049-2.554-0.181a57.241,57.241,0,0,1-7.757-1.581c-11.285-2.95-22.343-8.405-33.564-4.282l0.016,0.026c-5.4,1.94-10.845,6.086-16.368,13.795-16.393,22.886-21.865,47.135-47.727,58.579-4.947,2.19-8.334,3.24-12.454,3.163q-1.247-.048-2.555-0.18a57.251,57.251,0,0,1-7.756-1.582c-11.285-2.95-22.343-8.4-33.564-4.282l0.015,0.026c-5.4,1.941-10.845,6.087-16.367,13.8-16.394,22.885-21.866,47.134-47.728,58.579-4.947,2.189-8.334,3.24-12.454,3.162q-1.247-.046-2.554-0.179a57.386,57.386,0,0,1-7.757-1.582c-11.285-2.95-22.343-8.4-33.564-4.282l0.015,0.026c-5.4,1.94-16.362,9.909-20.66,18.362-1.2,2.364-2.475,4.587-3.8,6.686H19.322C43.433,373.832,61.547,364.893,66.545,363.1ZM326.5,166.525c-4.948,2.189-8.333,3.239-12.454,3.163q-1.246-.049-2.554-0.181a57.21,57.21,0,0,1-7.757-1.581c-11.285-2.95-22.343-8.405-33.563-4.282l0.014,0.026c-5.4,1.94-10.844,6.086-16.367,13.8-16.394,22.886-21.866,47.135-47.727,58.579-4.948,2.19-8.335,3.24-12.454,3.163q-1.248-.048-2.555-0.18a57.251,57.251,0,0,1-7.756-1.582c-11.286-2.95-22.343-8.4-33.564-4.282l0.015,0.026c-5.4,1.941-10.845,6.087-16.368,13.8-16.393,22.885-21.865,47.134-47.727,58.579-4.947,2.189-8.334,3.24-12.454,3.162q-1.246-.048-2.555-0.179a57.406,57.406,0,0,1-7.756-1.582c-11.285-2.95-22.343-8.4-33.564-4.282l0.015,0.026c-4.342,1.559-8.71,4.548-13.124,9.661V286.082l19.631-8.974c4.839,1.236,9.688,2.984,14.581,4.263a57.257,57.257,0,0,0,7.756,1.582q1.308,0.132,2.554.18c4.12,0.077,7.507-.973,12.454-3.163,25.862-11.445,31.334-35.694,47.727-58.579,5.523-7.709,10.964-11.856,16.368-13.795l-0.016-.026c11.221-4.123,22.279,1.332,33.564,4.282a57.416,57.416,0,0,0,7.756,1.581q1.31,0.132,2.556.18c4.119,0.077,7.506-.973,12.453-3.162,25.862-11.445,31.334-35.695,47.728-58.579,5.522-7.709,10.964-11.856,16.368-13.8l-0.016-.026c11.221-4.123,22.279,1.332,33.564,4.282a57.241,57.241,0,0,0,7.757,1.581q1.308,0.133,2.554.181c4.12,0.077,7.506-.973,12.454-3.163,25.862-11.445,31.334-35.694,47.728-58.579a49.577,49.577,0,0,1,6.968-7.968v41.853C356.222,136.478,349.248,156.457,326.5,166.525ZM222.017,396.456c5.522-7.709,10.963-11.856,16.367-13.8l-0.015-.027c11.22-4.123,22.278,1.332,33.564,4.282a57.376,57.376,0,0,0,7.756,1.582q1.308,0.132,2.555.18c4.12,0.077,7.507-.973,12.454-3.163,25.861-11.444,31.334-35.694,47.727-58.579,5.522-7.709,10.964-11.855,16.368-13.795l-0.016-.027a25.168,25.168,0,0,1,9.954-1.442v28.139c-4.574,2.245-9.181,6.208-13.845,12.719-16.393,22.885-21.865,47.134-47.727,58.579a40.683,40.683,0,0,1-7.4,2.631h-9.907c-1.629-.292-3.411-0.694-5.461-1.23-11.285-2.95-22.343-8.4-33.564-4.282l0.015,0.026a27.944,27.944,0,0,0-9.018,5.486H214.686A40.676,40.676,0,0,1,222.017,396.456ZM275.066,77.443c-4.948,2.19-8.334,3.24-12.454,3.163q-1.247-.049-2.554-0.18a57.353,57.353,0,0,1-7.757-1.581c-11.285-2.951-22.343-8.405-33.564-4.282l0.015,0.026c-5.4,1.94-10.844,6.086-16.367,13.8-16.394,22.885-21.866,47.134-47.727,58.579-4.948,2.189-8.335,3.24-12.455,3.163q-1.246-.05-2.555-0.181a57.25,57.25,0,0,1-7.755-1.581c-11.286-2.95-22.344-8.405-33.564-4.282l0.015,0.026c-5.4,1.94-10.845,6.087-16.367,13.795-14.5,20.238-20.464,41.536-39.533,54.109l-1.948-6.332-24.254-9.555v-3.1a50.058,50.058,0,0,0,5.547-2.137c25.862-11.445,31.334-35.694,47.728-58.58,5.522-7.709,10.964-11.855,16.367-13.8l-0.015-.026c11.22-4.123,22.278,1.332,33.563,4.282a57.437,57.437,0,0,0,7.756,1.582q1.31,0.132,2.555.18c4.12,0.077,7.507-.974,12.454-3.163,25.862-11.444,31.335-35.694,47.727-58.579,5.523-7.709,10.964-11.855,16.369-13.8l-0.016-.026c10.357-3.805,20.575.545,30.96,3.558L240.509,62H265v0.26h30.276A55.591,55.591,0,0,1,275.066,77.443Z"/>
  <path id="Line" class="cls-3" d="M383.986,389a40,40,0,0,1-40,40h-344V281H0v-5.014H11v-0.012A36.491,36.491,0,0,0,11,203v-0.013H0V196H-0.014V47H139.477a53.976,53.976,0,0,1,107.046,0H383.986V389Zm-17-325h-137V53h-0.012A36.491,36.491,0,0,0,157,53h-0.013V64h-139V185.619a53.971,53.971,0,0,1,0,106.762V412h324a25,25,0,0,0,25-25V64Z"/>
</svg>
