<svg xmlns="http://www.w3.org/2000/svg" width="429" height="382" viewBox="0 0 429 382">
  <defs>
    <style>
      .cls-1 {
        fill: #0cbdff;
      }

      .cls-1, .cls-2, .cls-3 {
        fill-rule: evenodd;
      }

      .cls-2 {
        fill: #0bb7ff;
      }

      .cls-3 {
        fill: #0eaafb;
      }
    </style>
  </defs>
  <path id="Ellipse_1_copy_12_копия_3" data-name="Ellipse 1 copy 12 копия 3" class="cls-1" d="M403,227l-35.974,10.716v129.31H14.974V14.974H55.906L68,44,99,57l30-12,16.681-30.026h91.225L249,44l31,13,30-12,16.681-30.026h40.345V145.582L402,156l18,36Z"/>
  <path id="Rounded_Rectangle_2_copy_12" data-name="Rounded Rectangle 2 copy 12" class="cls-2" d="M411.851,208.777l-63.876,29.162a19.566,19.566,0,0,1-14.309,0L205.448,179.4,77.23,237.939a15.3,15.3,0,0,1-3.528,1.1,15.223,15.223,0,0,1-9.944-.944L14.974,215.828V182.1L70.318,207.37l126.6-57.8a15.356,15.356,0,0,1,8.152-2.459c0.128,0,.255-0.006.383-0.008s0.256,0,.384.008a15.357,15.357,0,0,1,8.152,2.46L340.821,207.48l70.765-32.307L420,192ZM14.974,290.617l55.52,25.347,126.419-57.715a15.356,15.356,0,0,1,8.152-2.459c0.128,0,.255-0.006.383-0.007s0.256,0,.384.007a15.357,15.357,0,0,1,8.152,2.46l126.837,57.9,26.2-11.964v33.725l-19.051,8.7a19.566,19.566,0,0,1-14.309,0L205.448,288.077,77.23,346.614a15.219,15.219,0,0,1-6.736,1.363,15.219,15.219,0,0,1-6.736-1.363L14.974,324.342V290.617ZM367.026,90.677V124.4l-19.051,8.7a19.566,19.566,0,0,1-14.309,0L205.448,74.563,77.23,133.1a15.22,15.22,0,0,1-6.736,1.364,15.22,15.22,0,0,1-6.736-1.364L14.974,110.828V77.1l55.52,25.347L196.913,44.735a15.355,15.355,0,0,1,8.152-2.459c0.128,0,.255-0.006.383-0.008s0.256,0,.384.008a15.353,15.353,0,0,1,8.152,2.459l126.837,57.906Z"/>
  <path id="Line" class="cls-3" d="M429,192a53.986,53.986,0,0,1-46,53.379V382H40A40,40,0,0,1,0,342V0H63.014V11h0.013A36.491,36.491,0,0,0,136,11h0.013V0h109V11h0.012A36.491,36.491,0,0,0,318,11h0.013V0H383V138.621A53.986,53.986,0,0,1,429,192Zm-53-36v-0.013H365V17H335.523a53.976,53.976,0,0,1-107.046,0H153.523A53.975,53.975,0,0,1,46.477,17H17V340a25,25,0,0,0,25,25H365V228.986h11v-0.012A36.491,36.491,0,0,0,376,156Z"/>
</svg>
