<svg xmlns="http://www.w3.org/2000/svg" width="383" height="429" viewBox="0 0 383 429">
  <defs>
    <style>
      .cls-1 {
        fill: #0cbdff;
      }

      .cls-1, .cls-2, .cls-3 {
        fill-rule: evenodd;
      }

      .cls-2 {
        fill: #0bb7ff;
      }

      .cls-3 {
        fill: #0eaafb;
      }
    </style>
  </defs>
  <path id="Ellipse_1_copy_12_копия_3" data-name="Ellipse 1 copy 12 копия 3" class="cls-1" d="M366.74,325v41.74h-42.6L317,406l-35,16-36-18-5.323-37.26H141.138L134,406,99,422,63,404l-5.323-37.26H15.26V15.26H366.74V57H351L328,91l-2,25,23,25h17.74V241H351l-23,34-2,25,23,25h17.74Z"/>
  <path id="Rounded_Rectangle_2_copy_12" data-name="Rounded Rectangle 2 copy 12" class="cls-2" d="M70.494,103.178L196.913,45.463A15.354,15.354,0,0,1,205.065,43c0.128,0,.255-0.006.383-0.008s0.256,0,.384.008a15.354,15.354,0,0,1,8.152,2.459L327.5,97.286,326,116l17.556,19.083a15.385,15.385,0,0,1-2.735.1,15.225,15.225,0,0,1-7.155-1.355L205.448,75.291,77.23,133.827a15.206,15.206,0,0,1-6.736,1.364,15.206,15.206,0,0,1-6.736-1.364l-48.5-22.141V77.962ZM347.975,238.667a19.566,19.566,0,0,1-14.309,0L205.448,180.131,77.23,238.667a15.289,15.289,0,0,1-3.527,1.1,15.226,15.226,0,0,1-9.945-.944l-48.5-22.141V182.962L70.318,208.1l126.6-57.8a15.355,15.355,0,0,1,8.152-2.458c0.128,0,.255-0.007.383-0.008s0.256,0,.384.008a15.347,15.347,0,0,1,8.152,2.459l126.837,57.905,25.919-11.833V230.1ZM15.26,291.476l55.234,25.216,126.419-57.714a15.347,15.347,0,0,1,8.152-2.459c0.128,0,.255-0.007.383-0.008s0.256,0,.384.008a15.347,15.347,0,0,1,8.152,2.459l126.837,57.9,0.5-.229L349,325h17.74v13.775l-18.765,8.567a19.566,19.566,0,0,1-14.309,0L205.448,288.806,77.23,347.342a15.234,15.234,0,0,1-6.736,1.364,15.234,15.234,0,0,1-6.736-1.364L15.26,325.2V291.476Z"/>
  <path id="Line" class="cls-3" d="M372,319v0.013h11V326h0v56H335.523a53.976,53.976,0,0,1-107.046,0H153.523a53.975,53.975,0,0,1-107.046,0H0V40A40,40,0,0,1,40,0H383V55h0v8.014H372v0.013A36.491,36.491,0,0,0,372,136v0.013h11V143h0v97h0v6.014H372v0.012A36.491,36.491,0,0,0,372,319Zm-7-89.38V153.379a53.971,53.971,0,0,1,0-106.758V17H42A25,25,0,0,0,17,42V365H63.014v11h0.013A36.491,36.491,0,0,0,136,376h0.013V365h109v11h0.012A36.491,36.491,0,0,0,318,376h0.013V365H365V336.379A53.971,53.971,0,0,1,365,229.621Z"/>
</svg>
