<svg xmlns="http://www.w3.org/2000/svg" width="430" height="382" viewBox="0 0 430 382">
  <defs>
    <style>
      .cls-1 {
        fill: #0cbdff;
      }

      .cls-1, .cls-2, .cls-3, .cls-4, .cls-5 {
        fill-rule: evenodd;
      }

      .cls-2 {
        fill: #0bb7ff;
      }

      .cls-3 {
        fill: #0eaafb;
      }

      .cls-4 {
        fill: #ffce23;
      }

      .cls-5 {
        fill: #fff;
      }
    </style>
  </defs>
  <path id="Ellipse_1_copy_12_копия_3" data-name="Ellipse 1 copy 12 копия 3" class="cls-1" d="M416.476,52V368.48H280.882l-7.192-25.5L240,328l-39,14s-3.926,18.892-5.439,26.48H60.5V325H30L7,300l2-25,23-34H60.5V141H30L7,116,9,91,32,57H60.5V13.52H391V13h26V52h-0.524Z"/>
  <path id="Rounded_Rectangle_2_copy_9" data-name="Rounded Rectangle 2 copy 9" class="cls-2" d="M155.969,147.844c0.128,0,.256-0.007.384-0.008s0.255,0,.383.008a15.347,15.347,0,0,1,8.152,2.459l126.837,57.905,124.751-56.953V184.98l-117.6,53.687a19.563,19.563,0,0,1-14.308,0L156.353,180.131,60.5,223.893V190.168L147.817,150.3A15.355,15.355,0,0,1,155.969,147.844Zm-8.152,111.134a15.347,15.347,0,0,1,8.152-2.459c0.128,0,.256-0.007.384-0.008s0.255,0,.383.008a15.347,15.347,0,0,1,8.152,2.459l126.837,57.9L416.476,259.93v33.724l-117.6,53.688a19.563,19.563,0,0,1-14.308,0L156.353,288.806,60.5,332.568V325H30l-7.927-8.616ZM298.879,133.827a19.563,19.563,0,0,1-14.308,0L156.353,75.291,28.134,133.827a15.048,15.048,0,0,1-3.688,1.136L7,116,8.5,97.288l12.9,5.89L147.817,45.463A15.354,15.354,0,0,1,155.969,43c0.128,0,.256-0.006.384-0.008s0.255,0,.383.008a15.354,15.354,0,0,1,8.152,2.459l126.837,57.906L417,46.176V52h-0.524V80.14Z"/>
  <path id="Line" class="cls-3" d="M293,382H275.986V371h-0.012A36.491,36.491,0,0,0,203,371h-0.013v11h-157V336.377a53.971,53.971,0,0,1,0-106.754V153.377a53.971,53.971,0,0,1,0-106.754V0h344a40,40,0,0,1,40,40V382H293ZM412.986,42a25,25,0,0,0-25-25h-324V46H64V63.014H53v0.013A36.491,36.491,0,0,0,53,136v0.013H64V154H63.986v75H64v17.014H53v0.012A36.491,36.491,0,0,0,53,319v0.013H64V337H63.986v28H185.477a53.976,53.976,0,0,1,107.046,0H412.986V42Z"/>
  <path id="Прямоугольник_605" data-name="Прямоугольник 605" class="cls-4" d="M174.111,276.266l-41.244,30.15-0.021-.012c-0.857.985-2.682,1.054-4.271,0.137-1.706-.983-2.569-2.774-1.911-4.035l5.4-50.485Z"/>
  <path id="Эллипс_607" data-name="Эллипс 607" class="cls-5" d="M182.135,266.33a15.833,15.833,0,0,1-4.476,4.954l-17.342-10-8.095-4.667-17.343-10a15.936,15.936,0,0,1,17.94-14.2,16.077,16.077,0,0,1,27.912,15.951A15.981,15.981,0,0,1,182.135,266.33Z"/>
  <path id="Прямоугольник_604" data-name="Прямоугольник 604" class="cls-4" d="M137.528,243.149L178.551,266.8a5.6,5.6,0,0,1,2.055,7.653l-0.566.981a5.6,5.6,0,0,1-7.652,2.056l-41.023-23.652a5.6,5.6,0,0,1-2.055-7.653l0.566-.981A5.6,5.6,0,0,1,137.528,243.149Z"/>
  <path id="Прямоугольник_605-2" data-name="Прямоугольник 605" class="cls-4" d="M260.111,276.266l-41.244,30.15-0.021-.012c-0.857.985-2.682,1.054-4.271,0.137-1.706-.983-2.569-2.774-1.911-4.035l5.4-50.485Z"/>
  <path id="Эллипс_607-2" data-name="Эллипс 607" class="cls-5" d="M268.135,266.33a15.833,15.833,0,0,1-4.476,4.954l-17.342-10-8.095-4.667-17.343-10a15.936,15.936,0,0,1,17.94-14.2,16.077,16.077,0,0,1,27.912,15.951A15.981,15.981,0,0,1,268.135,266.33Z"/>
  <path id="Прямоугольник_604-2" data-name="Прямоугольник 604" class="cls-4" d="M223.528,243.149L264.551,266.8a5.6,5.6,0,0,1,2.055,7.653l-0.566.981a5.6,5.6,0,0,1-7.652,2.056l-41.023-23.652a5.6,5.6,0,0,1-2.055-7.653l0.566-.981A5.6,5.6,0,0,1,223.528,243.149Z"/>
  <path id="Прямоугольник_605-3" data-name="Прямоугольник 605" class="cls-4" d="M345.111,276.266l-41.244,30.15-0.021-.012c-0.857.985-2.682,1.054-4.271,0.137-1.706-.983-2.569-2.774-1.911-4.035l5.4-50.485Z"/>
  <path id="Эллипс_607-3" data-name="Эллипс 607" class="cls-5" d="M353.135,266.33a15.833,15.833,0,0,1-4.476,4.954l-17.342-10-8.1-4.667-17.343-10a15.936,15.936,0,0,1,17.94-14.2,16.077,16.077,0,0,1,27.912,15.951A15.981,15.981,0,0,1,353.135,266.33Z"/>
  <path id="Прямоугольник_604-3" data-name="Прямоугольник 604" class="cls-4" d="M308.528,243.149L349.551,266.8a5.6,5.6,0,0,1,2.055,7.653l-0.566.981a5.6,5.6,0,0,1-7.652,2.056l-41.023-23.652a5.6,5.6,0,0,1-2.055-7.653l0.566-.981A5.6,5.6,0,0,1,308.528,243.149Z"/>
  <path id="Прямоугольник_605-4" data-name="Прямоугольник 605" class="cls-4" d="M174.111,191.266l-41.244,30.15-0.021-.012c-0.857.985-2.682,1.054-4.271,0.137-1.706-.983-2.569-2.774-1.911-4.035l5.4-50.485Z"/>
  <path id="Эллипс_607-4" data-name="Эллипс 607" class="cls-5" d="M182.135,181.33a15.833,15.833,0,0,1-4.476,4.954l-17.342-10-8.095-4.667-17.343-10a15.936,15.936,0,0,1,17.94-14.2,16.077,16.077,0,0,1,27.912,15.951A15.981,15.981,0,0,1,182.135,181.33Z"/>
  <path id="Прямоугольник_604-4" data-name="Прямоугольник 604" class="cls-4" d="M137.528,158.149L178.551,181.8a5.6,5.6,0,0,1,2.055,7.653l-0.566.981a5.6,5.6,0,0,1-7.652,2.056l-41.023-23.652a5.6,5.6,0,0,1-2.055-7.653l0.566-.981A5.6,5.6,0,0,1,137.528,158.149Z"/>
  <path id="Прямоугольник_605-5" data-name="Прямоугольник 605" class="cls-4" d="M260.111,191.266l-41.244,30.15-0.021-.012c-0.857.985-2.682,1.054-4.271,0.137-1.706-.983-2.569-2.774-1.911-4.035l5.4-50.485Z"/>
  <path id="Эллипс_607-5" data-name="Эллипс 607" class="cls-5" d="M268.135,181.33a15.833,15.833,0,0,1-4.476,4.954l-17.342-10-8.095-4.667-17.343-10a15.936,15.936,0,0,1,17.94-14.2,16.077,16.077,0,0,1,27.912,15.951A15.981,15.981,0,0,1,268.135,181.33Z"/>
  <path id="Прямоугольник_604-5" data-name="Прямоугольник 604" class="cls-4" d="M223.528,158.149L264.551,181.8a5.6,5.6,0,0,1,2.055,7.653l-0.566.981a5.6,5.6,0,0,1-7.652,2.056l-41.023-23.652a5.6,5.6,0,0,1-2.055-7.653l0.566-.981A5.6,5.6,0,0,1,223.528,158.149Z"/>
  <path id="Прямоугольник_605-6" data-name="Прямоугольник 605" class="cls-4" d="M345.111,191.266l-41.244,30.15-0.021-.012c-0.857.985-2.682,1.054-4.271,0.137-1.706-.983-2.569-2.774-1.911-4.035l5.4-50.485Z"/>
  <path id="Эллипс_607-6" data-name="Эллипс 607" class="cls-5" d="M353.135,181.33a15.833,15.833,0,0,1-4.476,4.954l-17.342-10-8.1-4.667-17.343-10a15.936,15.936,0,0,1,17.94-14.2,16.077,16.077,0,0,1,27.912,15.951A15.981,15.981,0,0,1,353.135,181.33Z"/>
  <path id="Прямоугольник_604-6" data-name="Прямоугольник 604" class="cls-4" d="M308.528,158.149L349.551,181.8a5.6,5.6,0,0,1,2.055,7.653l-0.566.981a5.6,5.6,0,0,1-7.652,2.056l-41.023-23.652a5.6,5.6,0,0,1-2.055-7.653l0.566-.981A5.6,5.6,0,0,1,308.528,158.149Z"/>
  <path id="Прямоугольник_605-7" data-name="Прямоугольник 605" class="cls-4" d="M174.111,100.266l-41.244,30.15-0.021-.012c-0.857.985-2.682,1.054-4.271,0.137-1.706-.983-2.569-2.774-1.911-4.035l5.4-50.485Z"/>
  <path id="Эллипс_607-7" data-name="Эллипс 607" class="cls-5" d="M182.135,90.33a15.834,15.834,0,0,1-4.476,4.954l-17.342-10-8.095-4.667-17.343-10a15.935,15.935,0,0,1,17.94-14.2,16.077,16.077,0,0,1,27.912,15.951A15.98,15.98,0,0,1,182.135,90.33Z"/>
  <path id="Прямоугольник_604-7" data-name="Прямоугольник 604" class="cls-4" d="M137.528,67.149L178.551,90.8a5.6,5.6,0,0,1,2.055,7.652l-0.566.982a5.6,5.6,0,0,1-7.652,2.055L131.365,77.839a5.6,5.6,0,0,1-2.055-7.652l0.566-.982A5.6,5.6,0,0,1,137.528,67.149Z"/>
  <path id="Прямоугольник_605-8" data-name="Прямоугольник 605" class="cls-4" d="M260.111,100.266l-41.244,30.15-0.021-.012c-0.857.985-2.682,1.054-4.271,0.137-1.706-.983-2.569-2.774-1.911-4.035l5.4-50.485Z"/>
  <path id="Эллипс_607-8" data-name="Эллипс 607" class="cls-5" d="M268.135,90.33a15.834,15.834,0,0,1-4.476,4.954l-17.342-10-8.095-4.667-17.343-10a15.935,15.935,0,0,1,17.94-14.2,16.077,16.077,0,0,1,27.912,15.951A15.98,15.98,0,0,1,268.135,90.33Z"/>
  <path id="Прямоугольник_604-8" data-name="Прямоугольник 604" class="cls-4" d="M223.528,67.149L264.551,90.8a5.6,5.6,0,0,1,2.055,7.652l-0.566.982a5.6,5.6,0,0,1-7.652,2.055L217.365,77.839a5.6,5.6,0,0,1-2.055-7.652l0.566-.982A5.6,5.6,0,0,1,223.528,67.149Z"/>
  <path id="Прямоугольник_605-9" data-name="Прямоугольник 605" class="cls-4" d="M345.111,100.266l-41.244,30.15-0.021-.012c-0.857.985-2.682,1.054-4.271,0.137-1.706-.983-2.569-2.774-1.911-4.035l5.4-50.485Z"/>
  <path id="Эллипс_607-9" data-name="Эллипс 607" class="cls-5" d="M353.135,90.33a15.834,15.834,0,0,1-4.476,4.954l-17.342-10-8.1-4.667-17.343-10a15.935,15.935,0,0,1,17.94-14.2,16.077,16.077,0,0,1,27.912,15.951A15.98,15.98,0,0,1,353.135,90.33Z"/>
  <path id="Прямоугольник_604-9" data-name="Прямоугольник 604" class="cls-4" d="M308.528,67.149L349.551,90.8a5.6,5.6,0,0,1,2.055,7.652l-0.566.982a5.6,5.6,0,0,1-7.652,2.055L302.365,77.839a5.6,5.6,0,0,1-2.055-7.652l0.566-.982A5.6,5.6,0,0,1,308.528,67.149Z"/>
</svg>
