<svg xmlns="http://www.w3.org/2000/svg" width="429" height="382" viewBox="0 0 429 382">
  <defs>
    <style>
      .cls-1 {
        fill: #abe73a;
      }

      .cls-1, .cls-2, .cls-3 {
        fill-rule: evenodd;
      }

      .cls-2 {
        fill: #9fe335;
      }

      .cls-3 {
        fill: #92dd28;
      }
    </style>
  </defs>
  <path id="Ellipse_1_copy_12_копия_3" data-name="Ellipse 1 copy 12 копия 3" class="cls-1" d="M403,227l-35.974,10.716v129.31H14.974V14.974H55.906L68,44,99,57l30-12,16.681-30.026h91.225L249,44l31,13,30-12,16.681-30.026h40.345V145.582L402,156l18,36Z"/>
  <path id="Rectangle_1766_copy_16" data-name="Rectangle 1766 copy 16" class="cls-2" d="M103.38,134.364c-11.672,25.287-29.861,41.848-27.057,69.683,0.536,5.326,1.289,8.751,3.371,12.257q0.651,1.048,1.405,2.108a56.562,56.562,0,0,0,5.155,5.9c8.06,8.262,18.163,15.106,20.1,26.77H106.33c0.974,5.6.068,12.3-3.864,20.821-11.672,25.286-29.861,41.848-27.056,69.683,0.536,5.325,1.29,8.751,3.371,12.256q0.651,1.049,1.4,2.11a56.786,56.786,0,0,0,5.155,5.9l-28.119,1.8a56.705,56.705,0,0,1-5.155-5.9q-0.754-1.059-1.4-2.109c-2.082-3.505-2.835-6.931-3.371-12.256-2.8-27.836,15.385-44.4,27.057-69.684,3.932-8.518,4.838-15.225,3.863-20.82h0.03c-1.942-11.664-12.045-18.507-20.105-26.769a56.761,56.761,0,0,1-5.156-5.9q-0.754-1.059-1.4-2.108c-2.082-3.506-2.835-6.931-3.372-12.257-2.8-27.835,15.385-44.4,27.057-69.683,3.932-8.518,4.838-15.225,3.863-20.821h0.03c-1.942-11.666-12.046-18.508-20.105-26.77a56.694,56.694,0,0,1-5.155-5.9q-0.754-1.06-1.4-2.109c-2.082-3.505-2.835-6.931-3.372-12.256-1.67-16.582,4.11-29.164,11.523-41.972L68,44l10.422,4.37a54.046,54.046,0,0,0-1.185,18.141c0.537,5.325,1.29,8.751,3.371,12.257q0.651,1.048,1.4,2.108a56.742,56.742,0,0,0,5.156,5.9c8.059,8.263,18.163,15.105,20.1,26.77h-0.03C108.218,119.139,107.312,125.845,103.38,134.364Zm101.814,0.675c-11.672,25.287-29.861,41.848-27.057,69.683,0.537,5.326,1.29,8.752,3.372,12.257q0.651,1.048,1.4,2.109a56.929,56.929,0,0,0,5.156,5.9c8.06,8.262,18.163,15.1,20.105,26.77h-0.03c0.975,5.6.069,12.3-3.863,20.82-11.673,25.286-29.861,41.848-27.057,69.684,0.536,5.325,1.289,8.75,3.371,12.256q0.651,1.048,1.405,2.109a56.9,56.9,0,0,0,5.155,5.9l-28.119,1.8a56.683,56.683,0,0,1-5.155-5.9q-0.755-1.06-1.405-2.109c-2.082-3.5-2.835-6.932-3.371-12.257-2.8-27.835,15.384-44.4,27.056-69.683,3.932-8.518,4.838-15.225,3.864-20.82h0.03c-1.942-11.665-12.046-18.507-20.106-26.77a56.8,56.8,0,0,1-5.155-5.9q-0.755-1.059-1.4-2.108c-2.083-3.506-2.836-6.931-3.372-12.256-2.8-27.836,15.385-44.4,27.057-69.684,3.932-8.518,4.838-15.224,3.863-20.82h0.03c-1.942-11.665-12.045-18.508-20.1-26.77a56.682,56.682,0,0,1-5.155-5.9q-0.754-1.06-1.405-2.109c-2.082-3.505-2.835-6.931-3.372-12.256-2.185-21.7,8.382-36.543,18.677-54.01h27.055c-9.944,16.7-19.723,31.265-17.612,52.213,0.537,5.325,1.29,8.751,3.372,12.257q0.649,1.048,1.4,2.109a56.853,56.853,0,0,0,5.155,5.9c8.06,8.262,18.164,15.1,20.106,26.771h-0.031C210.032,119.814,209.126,126.521,205.194,135.039Zm104.471,0.693c-11.673,25.287-29.861,41.848-27.057,69.684,0.537,5.325,1.289,8.751,3.371,12.256q0.651,1.049,1.405,2.109a56.785,56.785,0,0,0,5.155,5.9c8.06,8.262,18.164,15.1,20.105,26.77h-0.029c0.974,5.6.068,12.3-3.864,20.82-11.672,25.286-29.861,41.848-27.057,69.684,0.537,5.325,1.29,8.75,3.372,12.256q0.651,1.048,1.4,2.109a56.808,56.808,0,0,0,5.156,5.9l-28.12,1.8a56.8,56.8,0,0,1-5.155-5.9q-0.755-1.06-1.4-2.109c-2.082-3.506-2.835-6.931-3.371-12.257-2.8-27.836,15.385-44.4,27.057-69.683,3.931-8.518,4.838-15.225,3.863-20.82h0.03c-1.942-11.665-12.045-18.508-20.1-26.77a56.823,56.823,0,0,1-5.156-5.9q-0.753-1.059-1.4-2.108c-2.082-3.5-2.835-6.931-3.372-12.256-2.8-27.836,15.385-44.4,27.058-69.684,3.931-8.518,4.837-15.224,3.863-20.82h0.03c-1.942-11.665-12.046-18.508-20.106-26.77a56.832,56.832,0,0,1-5.155-5.9q-0.755-1.06-1.4-2.109c-2.082-3.505-2.835-6.931-3.371-12.256a54.359,54.359,0,0,1,2.254-22.047L280,57l3.645-1.458a54.715,54.715,0,0,0-.124,12.338c0.537,5.325,1.29,8.751,3.372,12.257q0.651,1.048,1.405,2.109a56.614,56.614,0,0,0,5.155,5.9c8.06,8.262,18.163,15.1,20.105,26.77h-0.03C314.5,120.507,313.6,127.214,309.665,135.732Z"/>
  <path id="Line" class="cls-3" d="M429,192a53.986,53.986,0,0,1-46,53.379V382H40A40,40,0,0,1,0,342V0H63.014V11h0.013A36.491,36.491,0,0,0,136,11h0.013V0h109V11h0.012A36.491,36.491,0,0,0,318,11h0.013V0H383V138.621A53.986,53.986,0,0,1,429,192Zm-53-36v-0.013H365V17H335.523a53.976,53.976,0,0,1-107.046,0H153.523A53.975,53.975,0,0,1,46.477,17H17V340a25,25,0,0,0,25,25H365V228.986h11v-0.012A36.491,36.491,0,0,0,376,156Z"/>
</svg>
