<svg xmlns="http://www.w3.org/2000/svg" width="430" height="382" viewBox="0 0 430 382">
  <defs>
    <style>
      .cls-1 {
        fill: #abe73a;
      }

      .cls-1, .cls-2, .cls-3, .cls-4, .cls-5, .cls-6, .cls-7 {
        fill-rule: evenodd;
      }

      .cls-2 {
        fill: #9fe335;
      }

      .cls-3 {
        fill: #92dd28;
      }

      .cls-4 {
        fill: #fff953;
      }

      .cls-5 {
        fill: #2f84e4;
      }

      .cls-6 {
        fill: #18b6ff;
      }

      .cls-7 {
        fill: #248af2;
      }
    </style>
  </defs>
  <path id="Ellipse_1_copy_12_копия_3" data-name="Ellipse 1 copy 12 копия 3" class="cls-1" d="M416.476,52V368.48H280.882l-7.192-25.5L240,328l-39,14s-3.926,18.892-5.439,26.48H60.5V325H30L7,300l2-25,23-34H60.5V141H30L7,116,9,91,32,57H60.5V13.52H391V13h26V52h-0.524Z"/>
  <path id="Rectangle_1766_copy_17" data-name="Rectangle 1766 copy 17" class="cls-2" d="M233.156,200.028h0.03c-1.942-11.665-12.045-18.508-20.105-26.77a56.46,56.46,0,0,1-5.155-5.9q-0.754-1.059-1.405-2.109c-2.082-3.5-2.835-6.93-3.372-12.255-2.8-27.837,15.385-44.4,27.057-69.685,3.932-8.518,4.838-15.224,3.864-20.82h0.03c-1.942-11.665-12.046-18.508-20.106-26.771a56.854,56.854,0,0,1-5.155-5.9q-0.754-1.061-1.405-2.109c-2.081-3.505-2.835-6.931-3.371-12.257l28.119-1.8c0.537,5.325,1.29,8.751,3.372,12.256q0.651,1.049,1.4,2.109a56.825,56.825,0,0,0,5.156,5.9c8.059,8.262,18.163,15.1,20.1,26.77h-0.03c0.975,5.6.068,12.3-3.863,20.82-11.673,25.287-29.862,41.848-27.057,69.684,0.536,5.325,1.29,8.75,3.372,12.256q0.65,1.049,1.4,2.109a56.8,56.8,0,0,0,5.155,5.9c8.06,8.263,18.164,15.106,20.105,26.771h-0.03c0.975,5.6.069,12.3-3.863,20.82-11.672,25.287-29.861,41.848-27.057,69.684,0.537,5.325,1.29,8.751,3.372,12.256q0.651,1.048,1.4,2.109a56.808,56.808,0,0,0,5.156,5.9c8.06,8.262,18.163,15.1,20.1,26.77h-0.03c0.077,0.443.121,0.906,0.174,1.364L240,328l-9.621,3.454c-3.776-8.178-11.667-13.951-18.212-20.66a56.9,56.9,0,0,1-5.155-5.9q-0.755-1.06-1.405-2.108c-2.082-3.506-2.835-6.932-3.371-12.257-2.8-27.836,15.384-44.4,27.057-69.684C233.224,212.33,234.13,205.624,233.156,200.028ZM133.739,25.244q0.653,1.049,1.405,2.109a56.833,56.833,0,0,0,5.155,5.9c8.06,8.263,18.164,15.105,20.1,26.77h-0.03c0.975,5.6.069,12.3-3.863,20.82-11.672,25.287-29.861,41.848-27.057,69.684,0.537,5.325,1.29,8.75,3.372,12.257q0.651,1.047,1.4,2.108a56.825,56.825,0,0,0,5.156,5.9c8.059,8.262,18.163,15.1,20.105,26.77h-0.03c0.974,5.595.069,12.3-3.863,20.82-11.672,25.287-29.861,41.848-27.057,69.683,0.536,5.326,1.29,8.751,3.371,12.257q0.651,1.049,1.405,2.109a56.9,56.9,0,0,0,5.155,5.9c8.06,8.262,18.164,15.105,20.1,26.77h-0.029c0.974,5.6.068,12.3-3.864,20.821-2.041,4.422-4.283,8.573-6.575,12.568h-27.1c1.935-3.442,3.818-7.009,5.555-10.772,3.932-8.518,4.837-15.224,3.863-20.819h0.03c-1.942-11.665-12.045-18.508-20.105-26.77a56.7,56.7,0,0,1-5.156-5.9q-0.753-1.059-1.4-2.108c-2.082-3.506-2.835-6.931-3.372-12.256-2.8-27.836,15.385-44.4,27.057-69.684,3.932-8.518,4.838-15.225,3.863-20.82h0.031c-1.942-11.665-12.046-18.508-20.105-26.77a56.705,56.705,0,0,1-5.156-5.9q-0.754-1.059-1.405-2.109c-2.082-3.5-2.834-6.931-3.371-12.256-2.8-27.836,15.385-44.4,27.057-69.684,3.932-8.518,4.838-15.224,3.863-20.82h0.03c-1.942-11.665-12.045-18.508-20.1-26.77a56.747,56.747,0,0,1-5.156-5.9q-0.753-1.061-1.4-2.109c-2.082-3.505-2.835-6.931-3.372-12.257l19.8-1.265h8.38C130.961,18.535,131.73,21.861,133.739,25.244ZM332.85,359.077c3.931-8.518,4.838-15.225,3.863-20.82h0.03c-1.942-11.665-12.045-18.507-20.105-26.77a56.825,56.825,0,0,1-5.156-5.9q-0.753-1.06-1.4-2.109c-2.082-3.5-2.835-6.931-3.372-12.256-2.8-27.835,15.385-44.4,27.057-69.684,3.932-8.517,4.838-15.224,3.864-20.82h0.029c-1.941-11.665-12.045-18.508-20.105-26.77a56.7,56.7,0,0,1-5.155-5.9q-0.755-1.059-1.405-2.109c-2.082-3.5-2.835-6.93-3.371-12.256-2.8-27.836,15.385-44.4,27.057-69.684,3.931-8.518,4.838-15.224,3.863-20.82h0.03c-1.942-11.665-12.046-18.508-20.105-26.77a56.726,56.726,0,0,1-5.156-5.9q-0.753-1.06-1.4-2.108c-2.082-3.506-2.836-6.932-3.372-12.257l28.12-1.8c0.536,5.325,1.289,8.751,3.371,12.256q0.651,1.049,1.4,2.109a56.672,56.672,0,0,0,5.155,5.9c8.06,8.263,18.163,15.105,20.105,26.77h-0.03c0.975,5.6.069,12.3-3.863,20.82-11.672,25.287-29.861,41.848-27.057,69.683,0.537,5.326,1.29,8.751,3.372,12.257q0.651,1.049,1.4,2.109a56.706,56.706,0,0,0,5.156,5.9c8.059,8.263,18.163,15.1,20.105,26.771h-0.03c0.974,5.595.069,12.3-3.863,20.819-11.673,25.287-29.862,41.848-27.057,69.684,0.536,5.325,1.289,8.751,3.371,12.256q0.651,1.048,1.4,2.109a56.785,56.785,0,0,0,5.155,5.9c8.06,8.262,18.163,15.105,20.105,26.77h-0.03c0.975,5.6.069,12.3-3.863,20.82-1.809,3.918-3.774,7.626-5.793,11.2H328.059C329.725,365.462,331.342,362.343,332.85,359.077Z"/>
  <path id="Line" class="cls-3" d="M293,382H275.986V371h-0.012A36.491,36.491,0,0,0,203,371h-0.013v11h-157V336.377a53.971,53.971,0,0,1,0-106.754V153.377a53.971,53.971,0,0,1,0-106.754V0h344a40,40,0,0,1,40,40V382H293ZM412.986,42a25,25,0,0,0-25-25h-324V46H64V63.014H53v0.013A36.491,36.491,0,0,0,53,136v0.013H64V154H63.986v75H64v17.014H53v0.012A36.491,36.491,0,0,0,53,319v0.013H64V337H63.986v28H185.477a53.976,53.976,0,0,1,107.046,0H412.986V42Z"/>
  <path id="Shape_9_copy" data-name="Shape 9 copy" class="cls-4" d="M149.061,147.906a26.743,26.743,0,0,1-6.671,10.613c-7.967,7.878-8.138,7.486-10.948-2.753a27.487,27.487,0,0,1-.544-12.583,27.037,27.037,0,0,1,5.338-11.53l13.739,3.573A26.385,26.385,0,0,1,149.061,147.906Z"/>
  <path id="Фигура_2_копия_copy" data-name="Фигура 2 копия copy" class="cls-5" d="M168.761,127.147c4.294,6.234,7.591,8.179,2.594,20.867s-4.636,14.987-8.574,9.264S150.42,139.14,150.42,139.14,164.466,120.914,168.761,127.147Zm-43.6-12.321c-7.208,2.312-11.007,1.839-14.8,14.937s-5.484,14.7,1.129,12.572,20.866-6.811,20.866-6.811S132.369,112.514,125.161,114.826Z"/>
  <path id="Фигура_1" data-name="Фигура 1" class="cls-6" d="M155.042,64.48c7.029-4.128,9.833-2.724,12.635,2.923,2.437,4.912,12.113,22.356,8.672,41.884a62.112,62.112,0,0,1-18.623,34.106c-2.664,2.277-5.152,1.105-6.464.813s-19.074-4.95-21.585-5.784-4.524-2.256-5.129-7.62-4.428-19.9,2.288-36.17S148.013,68.608,155.042,64.48Z"/>
  <path id="Фигура_3" data-name="Фигура 3" class="cls-7" d="M167.677,67.4c1.563,3.152,6.1,11.469,8.251,22.181a48.338,48.338,0,0,0-17.843-9.4,65.1,65.1,0,0,0-20.4-2.035A78.62,78.62,0,0,1,155.042,64.48C162.071,60.351,164.875,61.756,167.677,67.4Z"/>
  <path id="Shape_9_copy-2" data-name="Shape 9 copy" class="cls-4" d="M244.061,147.906a26.743,26.743,0,0,1-6.671,10.613c-7.967,7.878-8.138,7.486-10.948-2.753a27.487,27.487,0,0,1-.544-12.583,27.037,27.037,0,0,1,5.338-11.53l13.739,3.573A26.385,26.385,0,0,1,244.061,147.906Z"/>
  <path id="Фигура_2_копия_copy-2" data-name="Фигура 2 копия copy" class="cls-5" d="M263.761,127.147c4.294,6.234,7.591,8.179,2.594,20.867s-4.636,14.987-8.574,9.264S245.42,139.14,245.42,139.14,259.466,120.914,263.761,127.147Zm-43.6-12.321c-7.208,2.312-11.007,1.839-14.8,14.937s-5.484,14.7,1.129,12.572,20.866-6.811,20.866-6.811S227.369,112.514,220.161,114.826Z"/>
  <path id="Фигура_1-2" data-name="Фигура 1" class="cls-6" d="M250.042,64.48c7.029-4.128,9.833-2.724,12.635,2.923,2.437,4.912,12.113,22.356,8.672,41.884a62.112,62.112,0,0,1-18.623,34.106c-2.664,2.277-5.152,1.105-6.464.813s-19.074-4.95-21.585-5.784-4.524-2.256-5.129-7.62-4.428-19.9,2.288-36.17S243.013,68.608,250.042,64.48Z"/>
  <path id="Фигура_3-2" data-name="Фигура 3" class="cls-7" d="M262.677,67.4c1.563,3.152,6.1,11.469,8.251,22.181a48.338,48.338,0,0,0-17.843-9.4,65.1,65.1,0,0,0-20.4-2.035A78.62,78.62,0,0,1,250.042,64.48C257.071,60.351,259.875,61.756,262.677,67.4Z"/>
  <path id="Shape_9_copy-3" data-name="Shape 9 copy" class="cls-4" d="M340.061,147.906a26.743,26.743,0,0,1-6.671,10.613c-7.967,7.878-8.138,7.486-10.948-2.753a27.487,27.487,0,0,1-.544-12.583,27.037,27.037,0,0,1,5.338-11.53l13.739,3.573A26.385,26.385,0,0,1,340.061,147.906Z"/>
  <path id="Фигура_2_копия_copy-3" data-name="Фигура 2 копия copy" class="cls-5" d="M359.761,127.147c4.294,6.234,7.591,8.179,2.594,20.867s-4.636,14.987-8.574,9.264S341.42,139.14,341.42,139.14,355.466,120.914,359.761,127.147Zm-43.6-12.321c-7.208,2.312-11.007,1.839-14.8,14.937s-5.484,14.7,1.129,12.572,20.866-6.811,20.866-6.811S323.369,112.514,316.161,114.826Z"/>
  <path id="Фигура_1-3" data-name="Фигура 1" class="cls-6" d="M346.042,64.48c7.029-4.128,9.833-2.724,12.635,2.923,2.437,4.912,12.113,22.356,8.672,41.884a62.112,62.112,0,0,1-18.623,34.106c-2.664,2.277-5.152,1.105-6.464.813s-19.074-4.95-21.585-5.784-4.524-2.256-5.129-7.62-4.428-19.9,2.288-36.17S339.013,68.608,346.042,64.48Z"/>
  <path id="Фигура_3-3" data-name="Фигура 3" class="cls-7" d="M358.677,67.4c1.563,3.152,6.1,11.469,8.251,22.181a48.338,48.338,0,0,0-17.843-9.4,65.1,65.1,0,0,0-20.4-2.035A78.62,78.62,0,0,1,346.042,64.48C353.071,60.351,355.875,61.756,358.677,67.4Z"/>
  <path id="Shape_9_copy-4" data-name="Shape 9 copy" class="cls-4" d="M149.061,278.906a26.743,26.743,0,0,1-6.671,10.613c-7.967,7.878-8.138,7.486-10.948-2.753a27.487,27.487,0,0,1-.544-12.583,27.037,27.037,0,0,1,5.338-11.53l13.739,3.573A26.385,26.385,0,0,1,149.061,278.906Z"/>
  <path id="Фигура_2_копия_copy-4" data-name="Фигура 2 копия copy" class="cls-5" d="M168.761,258.147c4.294,6.234,7.591,8.179,2.594,20.867s-4.636,14.987-8.574,9.264S150.42,270.14,150.42,270.14,164.466,251.914,168.761,258.147Zm-43.6-12.321c-7.208,2.312-11.007,1.839-14.8,14.937s-5.484,14.7,1.129,12.572,20.866-6.811,20.866-6.811S132.369,243.514,125.161,245.826Z"/>
  <path id="Фигура_1-4" data-name="Фигура 1" class="cls-6" d="M155.042,195.48c7.029-4.129,9.833-2.724,12.635,2.922,2.437,4.913,12.113,22.357,8.672,41.884a62.112,62.112,0,0,1-18.623,34.106c-2.664,2.277-5.152,1.105-6.464.813s-19.074-4.95-21.585-5.784-4.524-2.256-5.129-7.62-4.428-19.9,2.288-36.17S148.013,199.608,155.042,195.48Z"/>
  <path id="Фигура_3-4" data-name="Фигура 3" class="cls-7" d="M167.677,198.4c1.563,3.153,6.1,11.47,8.251,22.182a48.336,48.336,0,0,0-17.843-9.4,65.106,65.106,0,0,0-20.4-2.035,78.6,78.6,0,0,1,17.353-13.668C162.071,191.351,164.875,192.756,167.677,198.4Z"/>
  <path id="Shape_9_copy-5" data-name="Shape 9 copy" class="cls-4" d="M244.061,278.906a26.743,26.743,0,0,1-6.671,10.613c-7.967,7.878-8.138,7.486-10.948-2.753a27.487,27.487,0,0,1-.544-12.583,27.037,27.037,0,0,1,5.338-11.53l13.739,3.573A26.385,26.385,0,0,1,244.061,278.906Z"/>
  <path id="Фигура_2_копия_copy-5" data-name="Фигура 2 копия copy" class="cls-5" d="M263.761,258.147c4.294,6.234,7.591,8.179,2.594,20.867s-4.636,14.987-8.574,9.264S245.42,270.14,245.42,270.14,259.466,251.914,263.761,258.147Zm-43.6-12.321c-7.208,2.312-11.007,1.839-14.8,14.937s-5.484,14.7,1.129,12.572,20.866-6.811,20.866-6.811S227.369,243.514,220.161,245.826Z"/>
  <path id="Фигура_1-5" data-name="Фигура 1" class="cls-6" d="M250.042,195.48c7.029-4.129,9.833-2.724,12.635,2.922,2.437,4.913,12.113,22.357,8.672,41.884a62.112,62.112,0,0,1-18.623,34.106c-2.664,2.277-5.152,1.105-6.464.813s-19.074-4.95-21.585-5.784-4.524-2.256-5.129-7.62-4.428-19.9,2.288-36.17S243.013,199.608,250.042,195.48Z"/>
  <path id="Фигура_3-5" data-name="Фигура 3" class="cls-7" d="M262.677,198.4c1.563,3.153,6.1,11.47,8.251,22.182a48.336,48.336,0,0,0-17.843-9.4,65.106,65.106,0,0,0-20.4-2.035,78.6,78.6,0,0,1,17.353-13.668C257.071,191.351,259.875,192.756,262.677,198.4Z"/>
  <path id="Shape_9_copy-6" data-name="Shape 9 copy" class="cls-4" d="M340.061,278.906a26.743,26.743,0,0,1-6.671,10.613c-7.967,7.878-8.138,7.486-10.948-2.753a27.487,27.487,0,0,1-.544-12.583,27.037,27.037,0,0,1,5.338-11.53l13.739,3.573A26.385,26.385,0,0,1,340.061,278.906Z"/>
  <path id="Фигура_2_копия_copy-6" data-name="Фигура 2 копия copy" class="cls-5" d="M359.761,258.147c4.294,6.234,7.591,8.179,2.594,20.867s-4.636,14.987-8.574,9.264S341.42,270.14,341.42,270.14,355.466,251.914,359.761,258.147Zm-43.6-12.321c-7.208,2.312-11.007,1.839-14.8,14.937s-5.484,14.7,1.129,12.572,20.866-6.811,20.866-6.811S323.369,243.514,316.161,245.826Z"/>
  <path id="Фигура_1-6" data-name="Фигура 1" class="cls-6" d="M346.042,195.48c7.029-4.129,9.833-2.724,12.635,2.922,2.437,4.913,12.113,22.357,8.672,41.884a62.112,62.112,0,0,1-18.623,34.106c-2.664,2.277-5.152,1.105-6.464.813s-19.074-4.95-21.585-5.784-4.524-2.256-5.129-7.62-4.428-19.9,2.288-36.17S339.013,199.608,346.042,195.48Z"/>
  <path id="Фигура_3-6" data-name="Фигура 3" class="cls-7" d="M358.677,198.4c1.563,3.153,6.1,11.47,8.251,22.182a48.336,48.336,0,0,0-17.843-9.4,65.106,65.106,0,0,0-20.4-2.035,78.6,78.6,0,0,1,17.353-13.668C353.071,191.351,355.875,192.756,358.677,198.4Z"/>
</svg>
