<svg xmlns="http://www.w3.org/2000/svg" width="383" height="429" viewBox="0 0 383 429">
  <defs>
    <style>
      .cls-1 {
        fill: #abe73a;
      }

      .cls-1, .cls-2, .cls-3 {
        fill-rule: evenodd;
      }

      .cls-2 {
        fill: #9fe335;
      }

      .cls-3 {
        fill: #92dd28;
      }
    </style>
  </defs>
  <path id="Ellipse_1_copy_12_копия_3" data-name="Ellipse 1 copy 12 копия 3" class="cls-1" d="M366.74,325v41.74h-42.6L317,406l-35,16-36-18-5.323-37.26H141.138L134,406,99,422,63,404l-5.323-37.26H15.26V15.26H366.74V57H351L328,91l-2,25,23,25h17.74V241H351l-23,34-2,25,23,25h17.74Z"/>
  <path id="Rectangle_1766_copy_14" data-name="Rectangle 1766 copy 14" class="cls-2" d="M266.247,34.415a56.836,56.836,0,0,1-5.156-5.9q-0.753-1.06-1.4-2.109c-1.932-3.252-2.716-6.456-3.248-11.15h28.349a23.711,23.711,0,0,0,3.019,9.353q0.649,1.049,1.4,2.109a56.8,56.8,0,0,0,5.155,5.9c8.06,8.263,18.164,15.105,20.105,26.77h-0.029c0.974,5.6.068,12.3-3.864,20.82-11.672,25.287-29.861,41.848-27.057,69.684,0.537,5.325,1.29,8.75,3.372,12.256q0.651,1.049,1.405,2.109a56.665,56.665,0,0,0,5.155,5.9c8.06,8.262,18.163,15.1,20.105,26.77h-0.03c0.975,5.595.069,12.3-3.863,20.819-11.673,25.287-29.861,41.848-27.057,69.684,0.537,5.325,1.289,8.751,3.371,12.256q0.651,1.048,1.405,2.109a56.785,56.785,0,0,0,5.155,5.9c8.06,8.262,18.164,15.105,20.105,26.77h-0.029c0.974,5.6.068,12.3-3.864,20.82-11.213,24.292-28.429,40.537-27.281,66.455l-26.66-13.33c4.32-17.922,16.949-32.106,25.822-51.328,3.931-8.518,4.838-15.225,3.863-20.82h0.03c-1.942-11.665-12.045-18.507-20.1-26.77a56.825,56.825,0,0,1-5.156-5.9q-0.753-1.06-1.4-2.108c-2.082-3.506-2.835-6.932-3.372-12.257-2.8-27.835,15.385-44.4,27.058-69.684,3.931-8.517,4.837-15.224,3.863-20.82h0.03c-1.942-11.665-12.046-18.508-20.106-26.77a56.7,56.7,0,0,1-5.155-5.9q-0.755-1.059-1.4-2.109c-2.082-3.5-2.835-6.93-3.371-12.255-2.8-27.837,15.385-44.4,27.057-69.684,3.932-8.518,4.838-15.224,3.863-20.82h0.03C284.41,49.521,274.307,42.678,266.247,34.415Zm-104.471-.693a56.874,56.874,0,0,1-5.155-5.9q-0.755-1.061-1.405-2.109c-1.836-3.093-2.638-6.129-3.17-10.457h28.369a22.917,22.917,0,0,0,2.921,8.66q0.651,1.049,1.4,2.109a56.8,56.8,0,0,0,5.156,5.9c8.06,8.262,18.163,15.105,20.105,26.77h-0.03c0.975,5.6.068,12.3-3.863,20.82-11.672,25.287-29.862,41.848-27.057,69.684,0.537,5.325,1.29,8.75,3.372,12.256q0.649,1.049,1.4,2.109a56.9,56.9,0,0,0,5.155,5.9c8.06,8.262,18.164,15.105,20.106,26.77h-0.031c0.975,5.6.069,12.3-3.863,20.82-11.672,25.287-29.861,41.848-27.057,69.684,0.537,5.325,1.29,8.751,3.372,12.256q0.651,1.05,1.4,2.109a56.929,56.929,0,0,0,5.156,5.9c8.06,8.262,18.163,15.1,20.105,26.77h-0.03c0.975,5.6.069,12.3-3.863,20.82-1.971,4.269-4.128,8.285-6.338,12.153h-27.1c1.853-3.314,3.655-6.744,5.322-10.356,3.932-8.518,4.838-15.225,3.864-20.82h0.03c-1.942-11.665-12.046-18.507-20.106-26.77a56.8,56.8,0,0,1-5.155-5.9q-0.755-1.06-1.4-2.108c-2.083-3.506-2.836-6.932-3.372-12.257-2.8-27.835,15.385-44.4,27.057-69.684,3.932-8.517,4.838-15.224,3.863-20.82h0.03c-1.942-11.665-12.045-18.507-20.1-26.77a56.579,56.579,0,0,1-5.155-5.9q-0.754-1.059-1.405-2.109c-2.082-3.5-2.835-6.93-3.372-12.255-2.8-27.837,15.385-44.4,27.057-69.685,3.932-8.518,4.838-15.224,3.864-20.82h0.03C179.94,48.828,169.836,41.985,161.776,33.723ZM59.962,33.047a56.773,56.773,0,0,1-5.156-5.9q-0.754-1.061-1.4-2.109a24.2,24.2,0,0,1-3.079-9.782h28.4a22.33,22.33,0,0,0,2.8,7.984q0.652,1.049,1.4,2.109a56.725,56.725,0,0,0,5.155,5.9c8.06,8.263,18.163,15.105,20.1,26.77h-0.029c0.974,5.6.068,12.3-3.864,20.82-11.672,25.286-29.86,41.848-27.057,69.684,0.537,5.325,1.29,8.751,3.371,12.257q0.651,1.047,1.4,2.108a56.628,56.628,0,0,0,5.156,5.9c8.059,8.263,18.163,15.1,20.1,26.77h-0.03c0.975,5.595.069,12.3-3.863,20.82-11.672,25.287-29.861,41.848-27.057,69.683,0.536,5.326,1.289,8.752,3.371,12.257q0.651,1.049,1.405,2.109a56.768,56.768,0,0,0,5.155,5.9c8.06,8.262,18.163,15.105,20.1,26.77H106.33c0.974,5.6.068,12.3-3.864,20.82-9.7,21-23.876,36-26.8,56.422L63,404l-3.185-22.3c4.786-8.139,10.123-16.445,14.532-26,3.932-8.519,4.838-15.225,3.863-20.82h0.03c-1.942-11.665-12.045-18.508-20.105-26.77a56.866,56.866,0,0,1-5.156-5.9q-0.754-1.06-1.4-2.109c-2.082-3.506-2.835-6.931-3.372-12.256-2.8-27.836,15.385-44.4,27.057-69.684,3.932-8.518,4.838-15.225,3.863-20.82h0.03c-1.942-11.665-12.046-18.508-20.105-26.77a56.693,56.693,0,0,1-5.155-5.9q-0.754-1.059-1.4-2.109c-2.082-3.5-2.835-6.931-3.372-12.256-2.8-27.836,15.385-44.4,27.057-69.684,3.932-8.518,4.838-15.224,3.863-20.82h0.03C78.125,48.152,68.022,41.31,59.962,33.047Z"/>
  <path id="Line" class="cls-3" d="M372,319v0.013h11V326h0v56H335.523a53.976,53.976,0,0,1-107.046,0H153.523a53.975,53.975,0,0,1-107.046,0H0V40A40,40,0,0,1,40,0H383V55h0v8.014H372v0.013A36.491,36.491,0,0,0,372,136v0.013h11V143h0v97h0v6.014H372v0.012A36.491,36.491,0,0,0,372,319Zm-7-89.38V153.379a53.971,53.971,0,0,1,0-106.758V17H42A25,25,0,0,0,17,42V365H63.014v11h0.013A36.491,36.491,0,0,0,136,376h0.013V365h109v11h0.012A36.491,36.491,0,0,0,318,376h0.013V365H365V336.379A53.971,53.971,0,0,1,365,229.621Z"/>
</svg>
