<svg xmlns="http://www.w3.org/2000/svg" width="430" height="382" viewBox="0 0 430 382">
  <defs>
    <style>
      .cls-1 {
        fill: #8896ff;
      }

      .cls-1, .cls-2, .cls-3, .cls-4, .cls-5 {
        fill-rule: evenodd;
      }

      .cls-2 {
        fill: #868efe;
      }

      .cls-3 {
        fill: #7a82fd;
      }

      .cls-4 {
        fill: #a7e645;
      }

      .cls-5 {
        fill: #fff;
        opacity: 0.5;
        mix-blend-mode: overlay;
      }
    </style>
  </defs>
  <path id="Ellipse_1_copy_12_копия_3" data-name="Ellipse 1 copy 12 копия 3" class="cls-1" d="M416.476,52V368.48H280.882l-7.192-25.5L240,328l-39,14s-3.926,18.892-5.439,26.48H60.5V325H30L7,300l2-25,23-34H60.5V141H30L7,116,9,91,32,57H60.5V13.52H391V13h26V52h-0.524Z"/>
  <path id="Rectangle_1766_copy_17" data-name="Rectangle 1766 copy 17" class="cls-2" d="M305.367,170.833a59.794,59.794,0,0,1,6.2-5.422q1.116-.793,2.219-1.478c3.688-2.19,7.292-2.982,12.895-3.546,29.287-2.949,46.712,16.182,73.317,28.46,6.366,2.938,11.767,4.263,16.474,4.421v29.456a45.491,45.491,0,0,1-14.584-4.3c-26.605-12.277-44.03-31.409-73.316-28.46-5.6.565-9.207,1.357-12.9,3.547q-1.1.684-2.218,1.477a59.715,59.715,0,0,0-6.2,5.423c-8.694,8.478-15.893,19.1-28.166,21.148v-0.033c-5.887,1.026-12.943.073-21.9-4.063-26.605-12.277-44.029-31.409-73.316-28.46-5.6.565-9.207,1.357-12.9,3.547q-1.1.684-2.219,1.477a59.715,59.715,0,0,0-6.2,5.423c-8.693,8.478-15.893,19.105-28.166,21.147v-0.031c-5.887,1.025-12.944.072-21.9-4.063-19.5-9-34.068-21.666-51.986-26.637V160.843c17.065,5.308,31.288,17.4,50.1,26.082,8.962,4.136,16.018,5.089,21.906,4.064v0.031c12.273-2.042,19.473-12.67,28.166-21.148a59.587,59.587,0,0,1,6.2-5.422q1.115-.793,2.218-1.477c3.689-2.191,7.292-2.983,12.895-3.547,29.287-2.949,46.711,16.183,73.316,28.46,8.962,4.135,16.018,5.088,21.906,4.063v0.032C289.475,189.939,296.674,179.311,305.367,170.833ZM23.322,302.954a59.722,59.722,0,0,0-6.2,5.422L15.228,278.8a59.616,59.616,0,0,1,6.2-5.423q1.115-.793,2.219-1.478c3.688-2.189,7.292-2.981,12.9-3.545,29.287-2.95,46.711,16.182,73.316,28.459,8.962,4.136,16.019,5.089,21.905,4.064v0.031c12.273-2.042,19.473-12.67,28.166-21.147a59.61,59.61,0,0,1,6.205-5.423q1.114-.793,2.218-1.478c3.688-2.189,7.292-2.982,12.9-3.546,29.286-2.95,46.711,16.183,73.316,28.46,8.962,4.136,16.018,5.089,21.906,4.064v0.031c12.273-2.042,19.472-12.67,28.165-21.147a59.7,59.7,0,0,1,6.2-5.423q1.116-.793,2.219-1.478c3.688-2.19,7.292-2.981,12.9-3.546,29.287-2.949,46.712,16.183,73.317,28.46,6.7,3.09,12.327,4.4,17.2,4.441v29.5a44.481,44.481,0,0,1-15.313-4.359c-26.605-12.277-44.03-31.409-73.316-28.459-5.6.564-9.207,1.356-12.9,3.546q-1.1.684-2.218,1.478a59.793,59.793,0,0,0-6.2,5.422c-8.693,8.478-15.892,19.105-28.165,21.147v-0.031c-5.887,1.025-12.943.072-21.9-4.063-26.605-12.278-44.029-31.41-73.316-28.46-5.6.564-9.207,1.356-12.895,3.546q-1.1.685-2.219,1.477a59.715,59.715,0,0,0-6.2,5.423c-8.693,8.478-15.893,19.105-28.166,21.148v-0.032c-5.888,1.025-12.944.073-21.9-4.063-26.6-12.278-44.03-31.41-73.317-28.46-5.6.564-9.207,1.356-12.895,3.546Q24.438,302.162,23.322,302.954ZM402.6,111.331C376,99.054,358.573,79.922,329.286,82.871c-5.6.564-9.206,1.357-12.895,3.546q-1.1.685-2.219,1.477a59.792,59.792,0,0,0-6.2,5.423c-8.693,8.478-15.892,19.106-28.165,21.148v-0.032c-5.887,1.025-12.943.073-21.906-4.063-26.6-12.277-44.029-31.409-73.315-28.46-5.6.564-9.208,1.356-12.9,3.546q-1.1.685-2.218,1.478a59.711,59.711,0,0,0-6.2,5.423c-8.692,8.477-15.892,19.105-28.165,21.147v-0.031c-5.888,1.024-12.944.072-21.906-4.064C86.588,97.132,69.163,78,39.876,80.949c-5.6.564-9.207,1.356-12.895,3.546q-1.1.685-2.219,1.477a59.783,59.783,0,0,0-6.2,5.423L17.71,78.125,32,57H60.5V53.525C77.88,58.714,92.233,71.032,111.3,79.832c8.962,4.136,16.018,5.089,21.9,4.064v0.032c12.273-2.043,19.472-12.67,28.165-21.147a59.81,59.81,0,0,1,6.2-5.423q1.114-.793,2.218-1.477c3.689-2.19,7.293-2.982,12.9-3.546,29.286-2.95,46.711,16.182,73.316,28.46,8.962,4.136,16.018,5.088,21.906,4.063v0.032c12.274-2.042,19.473-12.67,28.166-21.147a59.655,59.655,0,0,1,6.2-5.423q1.114-.793,2.219-1.478c3.688-2.19,7.292-2.982,12.9-3.546,29.287-2.95,46.711,16.183,73.316,28.46a43.906,43.906,0,0,0,15.764,4.39v29.408A46.444,46.444,0,0,1,402.6,111.331Z"/>
  <path id="Line" class="cls-3" d="M293,382H275.986V371h-0.012A36.491,36.491,0,0,0,203,371h-0.013v11h-157V336.377a53.971,53.971,0,0,1,0-106.754V153.377a53.971,53.971,0,0,1,0-106.754V0h344a40,40,0,0,1,40,40V382H293ZM412.986,42a25,25,0,0,0-25-25h-324V46H64V63.014H53v0.013A36.491,36.491,0,0,0,53,136v0.013H64V154H63.986v75H64v17.014H53v0.012A36.491,36.491,0,0,0,53,319v0.013H64V337H63.986v28H185.477a53.976,53.976,0,0,1,107.046,0H412.986V42Z"/>
  <path id="Эллипс_1" data-name="Эллипс 1" class="cls-4" d="M161.614,226.9a33.02,33.02,0,1,1-40.48,23.3A33.016,33.016,0,0,1,161.614,226.9Z"/>
  <path id="Эллипс_3_копия_copy" data-name="Эллипс 3 копия copy" class="cls-5" d="M143.5,227.173c3.637,8.047,4.019,19.568.287,29.953-3.007,8.367-9.989,17.993-16.231,22.674a33.2,33.2,0,0,1-4.834-7.9c4.771-4.368,10.159-10.987,12.569-17.693,3.015-8.391,2.126-16.238.074-23.319A33.2,33.2,0,0,1,143.5,227.173Zm35.21,10.865a33.184,33.184,0,0,1,4.62,7.644c-5.757,4.648-11,10.592-13.334,19.236-1.885,6.994-1.194,15.676.275,22.015a33.155,33.155,0,0,1-8.453,3.677c-2.535-7.385-2.8-19.459-.462-28.152C164.227,251.8,171.125,242.563,178.709,238.038Z"/>
  <path id="Эллипс_1-2" data-name="Эллипс 1" class="cls-4" d="M247.614,226.9a33.02,33.02,0,1,1-40.48,23.3A33.016,33.016,0,0,1,247.614,226.9Z"/>
  <path id="Эллипс_3_копия_copy-2" data-name="Эллипс 3 копия copy" class="cls-5" d="M229.5,227.173c3.637,8.047,4.019,19.568.287,29.953-3.007,8.367-9.989,17.993-16.231,22.674a33.2,33.2,0,0,1-4.834-7.9c4.771-4.368,10.159-10.987,12.569-17.693,3.015-8.391,2.126-16.238.074-23.319A33.2,33.2,0,0,1,229.5,227.173Zm35.21,10.865a33.184,33.184,0,0,1,4.62,7.644c-5.757,4.648-11,10.592-13.334,19.236-1.885,6.994-1.194,15.676.275,22.015a33.155,33.155,0,0,1-8.453,3.677c-2.535-7.385-2.8-19.459-.462-28.152C250.227,251.8,257.125,242.563,264.709,238.038Z"/>
  <path id="Эллипс_1-3" data-name="Эллипс 1" class="cls-4" d="M206.614,142.9a33.02,33.02,0,1,1-40.48,23.3A33.016,33.016,0,0,1,206.614,142.9Z"/>
  <path id="Эллипс_3_копия_copy-3" data-name="Эллипс 3 копия copy" class="cls-5" d="M188.5,143.173c3.637,8.047,4.019,19.568.287,29.953-3.007,8.367-9.989,17.993-16.231,22.674a33.2,33.2,0,0,1-4.834-7.9c4.771-4.368,10.159-10.987,12.569-17.693,3.015-8.391,2.126-16.238.074-23.319A33.2,33.2,0,0,1,188.5,143.173Zm35.21,10.865a33.184,33.184,0,0,1,4.62,7.644c-5.757,4.648-11,10.592-13.334,19.236-1.885,6.994-1.194,15.676.275,22.015a33.155,33.155,0,0,1-8.453,3.677c-2.535-7.385-2.8-19.459-.462-28.152C209.227,167.8,216.125,158.563,223.709,154.038Z"/>
  <path id="Эллипс_1-4" data-name="Эллипс 1" class="cls-4" d="M292.614,142.9a33.02,33.02,0,1,1-40.48,23.3A33.016,33.016,0,0,1,292.614,142.9Z"/>
  <path id="Эллипс_3_копия_copy-4" data-name="Эллипс 3 копия copy" class="cls-5" d="M274.5,143.173c3.637,8.047,4.019,19.568.287,29.953-3.007,8.367-9.989,17.993-16.231,22.674a33.2,33.2,0,0,1-4.834-7.9c4.771-4.368,10.159-10.987,12.569-17.693,3.015-8.391,2.126-16.238.074-23.319A33.2,33.2,0,0,1,274.5,143.173Zm35.21,10.865a33.184,33.184,0,0,1,4.62,7.644c-5.757,4.648-11,10.592-13.334,19.236-1.885,6.994-1.194,15.676.275,22.015a33.155,33.155,0,0,1-8.453,3.677c-2.535-7.385-2.8-19.459-.462-28.152C295.227,167.8,302.125,158.563,309.709,154.038Z"/>
  <path id="Эллипс_1-5" data-name="Эллипс 1" class="cls-4" d="M334.614,226.9a33.02,33.02,0,1,1-40.48,23.3A33.016,33.016,0,0,1,334.614,226.9Z"/>
  <path id="Эллипс_3_копия_copy-5" data-name="Эллипс 3 копия copy" class="cls-5" d="M316.5,227.173c3.637,8.047,4.019,19.568.287,29.953-3.007,8.367-9.989,17.993-16.231,22.674a33.2,33.2,0,0,1-4.834-7.9c4.771-4.368,10.159-10.987,12.569-17.693,3.015-8.391,2.126-16.238.074-23.319A33.2,33.2,0,0,1,316.5,227.173Zm35.21,10.865a33.184,33.184,0,0,1,4.62,7.644c-5.757,4.648-11,10.592-13.334,19.236-1.885,6.994-1.194,15.676.275,22.015a33.155,33.155,0,0,1-8.453,3.677c-2.535-7.385-2.8-19.459-.462-28.152C337.227,251.8,344.125,242.563,351.709,238.038Z"/>
  <path id="Эллипс_1-6" data-name="Эллипс 1" class="cls-4" d="M161.614,59.9a33.02,33.02,0,1,1-40.48,23.3A33.015,33.015,0,0,1,161.614,59.9Z"/>
  <path id="Эллипс_3_копия_copy-6" data-name="Эллипс 3 копия copy" class="cls-5" d="M143.5,60.173c3.637,8.047,4.019,19.568.287,29.953-3.007,8.367-9.989,17.993-16.231,22.674a33.2,33.2,0,0,1-4.834-7.9c4.771-4.368,10.159-10.987,12.569-17.693,3.015-8.39,2.126-16.237.074-23.319A33.2,33.2,0,0,1,143.5,60.173Zm35.21,10.865a33.175,33.175,0,0,1,4.62,7.644c-5.757,4.648-11,10.592-13.334,19.236-1.885,6.994-1.194,15.676.275,22.015a33.155,33.155,0,0,1-8.453,3.677c-2.535-7.385-2.8-19.459-.462-28.152C164.227,84.8,171.125,75.563,178.709,71.038Z"/>
  <path id="Эллипс_1-7" data-name="Эллипс 1" class="cls-4" d="M247.614,59.9a33.02,33.02,0,1,1-40.48,23.3A33.015,33.015,0,0,1,247.614,59.9Z"/>
  <path id="Эллипс_3_копия_copy-7" data-name="Эллипс 3 копия copy" class="cls-5" d="M229.5,60.173c3.637,8.047,4.019,19.568.287,29.953-3.007,8.367-9.989,17.993-16.231,22.674a33.2,33.2,0,0,1-4.834-7.9c4.771-4.368,10.159-10.987,12.569-17.693,3.015-8.39,2.126-16.237.074-23.319A33.2,33.2,0,0,1,229.5,60.173Zm35.21,10.865a33.175,33.175,0,0,1,4.62,7.644c-5.757,4.648-11,10.592-13.334,19.236-1.885,6.994-1.194,15.676.275,22.015a33.155,33.155,0,0,1-8.453,3.677c-2.535-7.385-2.8-19.459-.462-28.152C250.227,84.8,257.125,75.563,264.709,71.038Z"/>
  <path id="Эллипс_1-8" data-name="Эллипс 1" class="cls-4" d="M334.614,59.9a33.02,33.02,0,1,1-40.48,23.3A33.015,33.015,0,0,1,334.614,59.9Z"/>
  <path id="Эллипс_3_копия_copy-8" data-name="Эллипс 3 копия copy" class="cls-5" d="M316.5,60.173c3.637,8.047,4.019,19.568.287,29.953-3.007,8.367-9.989,17.993-16.231,22.674a33.2,33.2,0,0,1-4.834-7.9c4.771-4.368,10.159-10.987,12.569-17.693,3.015-8.39,2.126-16.237.074-23.319A33.2,33.2,0,0,1,316.5,60.173Zm35.21,10.865a33.175,33.175,0,0,1,4.62,7.644c-5.757,4.648-11,10.592-13.334,19.236-1.885,6.994-1.194,15.676.275,22.015a33.155,33.155,0,0,1-8.453,3.677c-2.535-7.385-2.8-19.459-.462-28.152C337.227,84.8,344.125,75.563,351.709,71.038Z"/>
</svg>
