<svg xmlns="http://www.w3.org/2000/svg" width="384" height="429" viewBox="0 0 384 429">
  <defs>
    <style>
      .cls-1 {
        fill: #8896ff;
      }

      .cls-1, .cls-2, .cls-3 {
        fill-rule: evenodd;
      }

      .cls-2 {
        fill: #868efe;
      }

      .cls-3 {
        fill: #7a82fd;
      }
    </style>
  </defs>
  <path id="Ellipse_1_copy_12_копия_3" data-name="Ellipse 1 copy 12 копия 3" class="cls-1" d="M369,414H340v-0.26H16.241V286.082l21.224-9.7,15.15-31.31-12.12-39.39-24.254-9.555V62.26H125V62h15.68L162,21,192,8l34,12,14.509,42H265v0.26H368.731V386H369v28Z"/>
  <path id="Rectangle_1766_copy_17" data-name="Rectangle 1766 copy 17" class="cls-2" d="M272.364,216.981a59.675,59.675,0,0,1,6.2-5.422q1.116-.795,2.22-1.478c3.688-2.19,7.292-2.982,12.894-3.546,29.287-2.95,46.712,16.182,73.317,28.459,0.593,0.274,1.156.5,1.732,0.743V264.5c-26.515-12.28-43.93-31.329-73.158-28.385-5.6.564-9.207,1.357-12.9,3.547q-1.1.684-2.218,1.477a59.691,59.691,0,0,0-6.2,5.422c-8.693,8.478-15.893,19.105-28.166,21.148v-0.032c-5.887,1.025-12.943.073-21.9-4.063-26.6-12.278-44.029-31.409-73.316-28.46-5.6.565-9.207,1.357-12.895,3.546q-1.1.685-2.219,1.478a59.6,59.6,0,0,0-6.2,5.423c-8.693,8.477-15.893,19.1-28.166,21.147v-0.032c-5.887,1.026-12.943.073-21.905-4.063-10.239-4.725-19.118-10.463-27.837-15.569l0.973-2.011-9.659-31.391c10.985,5.878,21.729,13.439,34.632,19.393,8.962,4.136,16.018,5.089,21.905,4.064v0.032c12.273-2.043,19.472-12.67,28.166-21.148a59.57,59.57,0,0,1,6.2-5.422q1.114-.794,2.218-1.478c3.689-2.19,7.293-2.982,12.9-3.546,29.287-2.95,46.711,16.182,73.316,28.459,8.962,4.136,16.019,5.089,21.906,4.064v0.032C256.472,236.086,263.671,225.459,272.364,216.981ZM16.241,314.6c22.141,2.656,38.089,17.963,60.618,28.36,8.962,4.135,16.018,5.089,21.9,4.063v0.032c12.273-2.043,19.473-12.67,28.166-21.148a59.73,59.73,0,0,1,6.2-5.423q1.114-.792,2.218-1.477c3.688-2.19,7.292-2.982,12.895-3.546,29.287-2.95,46.711,16.182,73.316,28.46,8.962,4.135,16.019,5.088,21.906,4.063v0.032c12.273-2.042,19.472-12.67,28.165-21.148a59.939,59.939,0,0,1,6.2-5.423q1.116-.792,2.219-1.478c3.688-2.189,7.292-2.981,12.895-3.545,29.287-2.95,46.712,16.182,73.317,28.46,0.842,0.388,1.652.722,2.461,1.056V374.7c-0.194-.087-0.376-0.155-0.571-0.245-26.605-12.278-44.03-31.41-73.316-28.46-5.6.565-9.207,1.357-12.9,3.546q-1.1.685-2.218,1.478a59.691,59.691,0,0,0-6.2,5.422c-8.694,8.478-15.893,19.105-28.166,21.148v-0.031c-5.887,1.025-12.943.072-21.9-4.064-26.605-12.277-44.029-31.409-73.316-28.46-5.6.565-9.207,1.357-12.9,3.547q-1.1.684-2.219,1.477a59.6,59.6,0,0,0-6.2,5.423c-8.693,8.477-15.893,19.1-28.166,21.147V376.6c-5.887,1.025-12.943.072-21.905-4.064-23.165-10.69-39.373-26.57-62.509-28.553V314.6Zm352.49-157.534c-26.115-12.287-43.483-30.964-72.447-28.048-5.6.565-9.207,1.357-12.9,3.547q-1.1.684-2.218,1.477a59.713,59.713,0,0,0-6.205,5.423c-8.693,8.477-15.892,19.1-28.165,21.147v-0.031c-5.887,1.025-12.943.072-21.9-4.063-26.605-12.278-44.03-31.41-73.316-28.46-5.6.564-9.207,1.356-12.9,3.546q-1.1.684-2.218,1.478a59.673,59.673,0,0,0-6.205,5.422c-8.692,8.478-15.892,19.106-28.165,21.147V159.62c-5.887,1.025-12.944.072-21.906-4.064-23.641-10.909-40.041-27.218-63.948-28.649V97.472c22.894,2.149,39.044,17.887,62.058,28.507,8.962,4.136,16.018,5.089,21.9,4.064v0.031c12.273-2.043,19.472-12.669,28.165-21.147a59.7,59.7,0,0,1,6.205-5.423q1.114-.794,2.219-1.477c3.688-2.19,7.292-2.983,12.895-3.547,29.286-2.95,46.711,16.183,73.316,28.46,8.962,4.136,16.018,5.088,21.906,4.063v0.032c12.274-2.042,19.473-12.67,28.166-21.147a59.6,59.6,0,0,1,6.2-5.423q1.115-.793,2.219-1.478c3.688-2.19,7.292-2.981,12.895-3.546,29.287-2.95,46.711,16.183,73.316,28.46,0.35,0.161.678,0.286,1.022,0.438v28.727Z"/>
  <path id="Line" class="cls-3" d="M383.986,389a40,40,0,0,1-40,40h-344V281H0v-5.014H11v-0.012A36.491,36.491,0,0,0,11,203v-0.013H0V196H-0.014V47H139.477a53.976,53.976,0,0,1,107.046,0H383.986V389Zm-17-325h-137V53h-0.012A36.491,36.491,0,0,0,157,53h-0.013V64h-139V185.619a53.971,53.971,0,0,1,0,106.762V412h324a25,25,0,0,0,25-25V64Z"/>
</svg>
