<svg xmlns="http://www.w3.org/2000/svg" width="512" height="512" viewBox="0 0 512 512">
  <defs>
    <style>
      .cls-1 {
        fill: #fc0;
      }

      .cls-1, .cls-2, .cls-3 {
        fill-rule: evenodd;
      }

      .cls-2 {
        fill: #4da100;
      }

      .cls-3, .cls-4 {
        fill: #ff9600;
      }
    </style>
  </defs>
  <g id="Pear">
    <g id="Pear-2" data-name="Pear">
      <path id="Shape_5_copy" data-name="Shape 5 copy" class="cls-1" d="M2768.4,409.812c-14.6,65.57-80.56,115.061-159.72,115.061-81.1,0-148.35-51.948-160.7-119.913-3.11-17.149-.95-52.361-0.69-54.28,2.12-16.041,8.25-36.464,22.59-60.48,14.87-19.931,31.19-31.44,43.08-48.191,18.26-28.2,14.46-56.852,14.64-53.554-1.16-21.331,2-42.549,3.54-48.012,9.66-34.246,39.7-59.215,75.26-59.215,33.48,0,62.07,22.133,73.36,53.3,7.61,21.006,3.97,34.563,4.82,43.715,1.77,19.025,6.92,45.374,20.01,63.765,11.92,16.751,28.28,28.26,43.19,48.191,16.29,27.2,22.02,49.805,23.31,66.645C2771.67,364.5,2770.56,400.1,2768.4,409.812Z" transform="translate(-2355 -16)"/>
      <path class="cls-2" d="M2729.25,226.967c-0.3,6.434-3.38,8-6,8,0,0-70.83-15.767-110.23-50.059-23.19-20.185-35.69-60.987-16.98-87.776l-0.67-.112s-3.68-41.742-2-65.975c2.2-10.1,3.62-15.792,15.98-13.993s15.99,2,15.99,2,10.57,4.6,4,19.993c-2.87,10.779-6.7,26.994-8.69,38.87,37.95-16.521,66.96,16.284,75.12,26.914C2714.25,128.917,2731.09,169.209,2729.25,226.967Z" transform="translate(-2355 -16)"/>
      <path class="cls-3" d="M2650.92,446.688a26.881,26.881,0,1,1-26.83,26.881A26.852,26.852,0,0,1,2650.92,446.688Z" transform="translate(-2355 -16)"/>
      <circle id="Ellipse_5_copy" data-name="Ellipse 5 copy" class="cls-4" cx="376.86" cy="375.297" r="22.61"/>
      <path id="Ellipse_5_copy_2" data-name="Ellipse 5 copy 2" class="cls-3" d="M2655.19,388.2a16.269,16.269,0,1,1-16.21,16.268A16.241,16.241,0,0,1,2655.19,388.2Z" transform="translate(-2355 -16)"/>
      <circle id="Ellipse_5_copy_3" data-name="Ellipse 5 copy 3" class="cls-4" cx="210.31" cy="471.703" r="16.22"/>
    </g>
  </g>
</svg>
