<svg xmlns="http://www.w3.org/2000/svg" width="512" height="512" viewBox="0 0 512 512">
  <defs>
    <style>
      .cls-1 {
        fill: #507e00;
      }

      .cls-1, .cls-2, .cls-3, .cls-4 {
        fill-rule: evenodd;
      }

      .cls-2 {
        fill: #77a000;
      }

      .cls-3 {
        fill: #ffd131;
      }

      .cls-4 {
        fill: #ffb431;
      }
    </style>
  </defs>
  <g id="PineApple">
    <g id="pineappple">
      <path id="Фигура_1660_копия_3" data-name="Фигура 1660 копия 3" class="cls-1" d="M3265.74,136.737l-85.06,56.777s-55.04-34.314-82.75-52.372c-3.15-6.422-6.22-13.364-9.11-20.83-20.06-51.8-5.34-57.519-5.34-57.519s10.14-12.114,52.77,23.509a254.069,254.069,0,0,1,44.84,48.378,255.573,255.573,0,0,1,43.09-45.958c42.62-35.636,52.76-23.524,52.76-23.524s14.73,5.713-5.32,57.52Q3268.785,130.063,3265.74,136.737Z" transform="translate(-2926 -18)"/>
      <path id="Фигура_1660_копия" data-name="Фигура 1660 копия" class="cls-2" d="M3298.78,167.673c-22.96,50.494-54.71,66.884-54.71,66.884l-27.96,19.459-36.48-2.427-36.48,2.438-27.96-19.452s-31.76-16.381-54.73-66.868-15.49-56.719-7.3-55.931,57.85,13.989,91.2,49.839c0,0-7.81-38.621,6.06-92.41s29.18-49.857,29.18-49.857,15.3-3.938,29.19,49.848,6.09,92.41,6.09,92.41c33.34-35.861,83-49.075,91.19-49.866S3321.74,117.18,3298.78,167.673Z" transform="translate(-2926 -18)"/>
      <path id="Прямоугольник_1662_копия" data-name="Прямоугольник 1662 копия" class="cls-3" d="M3309.75,397.482c-5.2,64.591-45.04,126.749-130.08,127.648-85.03-.875-124.9-63.02-130.12-127.612-4.7-58.169,11.52-109.268,51.77-153.055,1.1-1.19,11.43-11.1,11.43-11.1a467.6,467.6,0,0,1,64.85-4.872c0.67-.006,3.38-0.006,4.06,0a467.448,467.448,0,0,1,64.84,4.855s10.34,9.911,11.44,11.1C3298.2,288.218,3314.44,339.312,3309.75,397.482Z" transform="translate(-2926 -18)"/>
      <path id="Shape_544_copy_3" data-name="Shape 544 copy 3" class="cls-4" d="M3246.34,233.028c1.69,1.063,9.17,8.64,11.65,11.18A493.392,493.392,0,0,1,3203.18,272a621.024,621.024,0,0,0,79.01,22.695c3.05-1.97,5.66-3.711,7.81-5.176a240.5,240.5,0,0,1,10.52,24.985c-4.8-.874-10.17-1.912-16.03-3.135-26,17.292-53.64,31.269-80.58,42.508a620.413,620.413,0,0,0,83.1,22.27c10.38-6.136,18.2-11.271,23.25-14.732,0.32,5.394.38,11.887,0.33,17.876-0.37.261-.75,0.523-1.12,0.783l1.12,0.17c-0.07,7.087-.29,13.333-0.39,16.006-4.89-.722-11.84-1.835-20.43-3.443-27.51,16.692-56.31,29.93-83.81,40.369a617.458,617.458,0,0,0,71.06,17.03c9.07-4.349,17.37-8.608,24.85-12.648a158.1,158.1,0,0,1-14.38,30.5c-2.17-.335-4.63-0.73-7.36-1.192a588.741,588.741,0,0,1-69.8,27.585c14.07,3.33,28.76,6.284,44.03,8.733a147.153,147.153,0,0,1-22,12.2c-13.97-2.726-31.58-6.641-51.38-12.113-20.59,5.687-38.81,9.693-53.03,12.429a110.236,110.236,0,0,1-22.78-12.139c16.15-2.521,31.66-5.61,46.48-9.115a589.132,589.132,0,0,1-69.78-27.6c-3.93.664-7.3,1.192-10.05,1.6a133.613,133.613,0,0,1-14.93-32.683c8.31,4.561,17.69,9.434,28.1,14.427a617.012,617.012,0,0,0,71.04-17.028c-27.49-10.443-56.29-23.682-83.79-40.379-10.13,1.894-17.98,3.1-22.88,3.8-0.46-5.577-.64-11.018-0.67-15.945,1.28-.194,2.57-0.389,3.86-0.589-1.3-.889-2.58-1.79-3.86-2.7,0.06-9,.58-15.759.74-17.574,4.79,3.358,13.42,9.163,25.55,16.341a620.2,620.2,0,0,0,83.08-22.255c-26.93-11.243-54.56-25.221-80.55-42.519-7,1.459-13.29,2.654-18.74,3.621a188.164,188.164,0,0,1,11.37-26.754c2.43,1.688,5.67,3.876,9.67,6.458A621.732,621.732,0,0,0,3158.8,272a491.614,491.614,0,0,1-56.28-28.677c5.64-5.824,10.27-9.942,10.27-9.942l3.55-.5a597.022,597.022,0,0,0,64.65,30.65,598.183,598.183,0,0,0,64.54-30.574Q3245.92,233,3246.34,233.028ZM3109.86,461.447a624.831,624.831,0,0,0,71.12,25.3,624.774,624.774,0,0,0,71.15-25.3,688.8,688.8,0,0,1-71.13-19.4A689.335,689.335,0,0,1,3109.86,461.447Zm-13.9-73.551a610.709,610.709,0,0,0,85.02,37.131,610.991,610.991,0,0,0,85.05-37.122,676.636,676.636,0,0,1-85.04-25.027A677.072,677.072,0,0,1,3095.96,387.9Zm3.2-81.424a593.063,593.063,0,0,0,81.83,39.023,593.9,593.9,0,0,0,81.84-39.009,666.2,666.2,0,0,1-81.84-25.418A666.692,666.692,0,0,1,3099.16,306.472Z" transform="translate(-2926 -18)"/>
    </g>
  </g>
</svg>
