<svg xmlns="http://www.w3.org/2000/svg" width="383" height="429" viewBox="0 0 383 429">
  <defs>
    <style>
      .cls-1 {
        fill: #8896ff;
      }

      .cls-1, .cls-2, .cls-3 {
        fill-rule: evenodd;
      }

      .cls-2 {
        fill: #868efe;
      }

      .cls-3 {
        fill: #7a82fd;
      }
    </style>
  </defs>
  <path id="Ellipse_1_copy_12_копия_3" data-name="Ellipse 1 copy 12 копия 3" class="cls-1" d="M366.74,325v41.74h-42.6L317,406l-35,16-36-18-5.323-37.26H141.138L134,406,99,422,63,404l-5.323-37.26H15.26V15.26H366.74V57H351L328,91l-2,25,23,25h17.74V241H351l-23,34-2,25,23,25h17.74Z"/>
  <path id="Rectangle_1766_copy_14" data-name="Rectangle 1766 copy 14" class="cls-2" d="M251.716,182.337a59.9,59.9,0,0,0,6.2,5.422q1.118,0.794,2.219,1.478c3.689,2.189,7.293,2.981,12.895,3.546,29.287,2.95,46.712-16.182,73.317-28.46,8.212-3.789,14.811-4.885,20.389-4.257v29.82c-0.127-.023-0.247-0.059-0.375-0.081v0.032c-5.888-1.025-12.944-.072-21.906,4.064-26.6,12.277-44.029,31.409-73.316,28.459-5.6-.564-9.207-1.356-12.895-3.546q-1.1-.684-2.219-1.478a59.571,59.571,0,0,1-6.2-5.422c-8.693-8.478-15.892-19.1-28.166-21.147V190.8c-5.888-1.025-12.944-.072-21.906,4.064-26.6,12.277-44.029,31.409-73.316,28.459-5.6-.564-9.207-1.356-12.895-3.546q-1.1-.684-2.218-1.478a59.468,59.468,0,0,1-6.2-5.422c-8.694-8.478-15.893-19.1-28.166-21.148v0.032c-5.887-1.025-12.943-.072-21.905,4.064-14.912,6.881-26.941,15.915-39.79,22.008V189.122c13.571-6.077,26.04-15.659,41.681-22.877,8.962-4.136,16.018-5.089,21.906-4.063V162.15c12.273,2.042,19.473,12.67,28.165,21.147a59.7,59.7,0,0,0,6.2,5.423q1.115,0.793,2.218,1.478c3.689,2.189,7.293,2.981,12.9,3.546,29.287,2.95,46.711-16.182,73.316-28.46,8.962-4.136,16.018-5.088,21.905-4.063v-0.032C235.824,163.232,243.023,173.859,251.716,182.337ZM15.26,325.253V296.53c13.848-6.056,26.478-15.848,42.391-23.191,8.962-4.136,16.018-5.089,21.906-4.064v-0.031c12.273,2.041,19.473,12.669,28.165,21.147a59.675,59.675,0,0,0,6.2,5.422q1.116,0.8,2.219,1.478c3.688,2.19,7.292,2.982,12.9,3.546,29.286,2.95,46.71-16.182,73.315-28.46,8.963-4.135,16.019-5.088,21.906-4.063v-0.031c12.274,2.042,19.473,12.67,28.166,21.147a59.715,59.715,0,0,0,6.2,5.423q1.116,0.792,2.219,1.477c3.689,2.19,7.293,2.982,12.895,3.547,21.516,2.166,36.632-7.586,53.687-17.781L326,300l6.819,7.412c-20.238,11.5-36.445,24.511-60.964,22.042-5.6-.565-9.207-1.356-12.9-3.546q-1.1-.685-2.219-1.478a59.492,59.492,0,0,1-6.2-5.423c-8.693-8.477-15.893-19.105-28.166-21.147v0.032c-5.887-1.026-12.943-.073-21.9,4.063-26.605,12.278-44.03,31.41-73.316,28.46-5.6-.564-9.207-1.356-12.9-3.547q-1.1-.684-2.218-1.477a59.7,59.7,0,0,1-6.2-5.423c-8.693-8.478-15.892-19.1-28.165-21.147v0.031c-5.887-1.025-12.943-.072-21.905,4.064C40.574,309.924,28.378,319.16,15.26,325.253ZM366.74,57H351L328,91l-0.116,1.451c-18.657,10.946-34.377,22.348-57.469,20.022-5.6-.564-9.207-1.356-12.9-3.545q-1.1-.687-2.219-1.478a59.715,59.715,0,0,1-6.2-5.423c-8.693-8.478-15.892-19.106-28.166-21.148v0.031c-5.888-1.025-12.944-.072-21.906,4.064-26.605,12.278-44.03,31.41-73.316,28.46-5.6-.564-9.207-1.356-12.895-3.546q-1.1-.686-2.219-1.477a59.835,59.835,0,0,1-6.2-5.423C95.7,94.51,88.5,83.883,76.226,81.84v0.031c-5.886-1.025-12.943-.072-21.9,4.064C39.692,92.686,27.836,101.5,15.26,107.589V78.9C28.55,72.812,40.852,63.446,56.212,56.358c8.962-4.136,16.018-5.089,21.905-4.064V52.263C90.39,54.305,97.59,64.933,106.282,73.41a59.867,59.867,0,0,0,6.2,5.423q1.116,0.793,2.219,1.477c3.688,2.19,7.293,2.982,12.9,3.546,29.286,2.95,46.711-16.182,73.316-28.46,8.962-4.136,16.018-5.089,21.905-4.063V51.3c12.273,2.043,19.472,12.67,28.165,21.147a59.794,59.794,0,0,0,6.2,5.422q1.116,0.794,2.219,1.478c3.689,2.19,7.293,2.982,12.895,3.546,29.287,2.95,46.712-16.182,73.317-28.46,8.572-3.956,15.388-4.978,21.118-4.164V57Z"/>
  <path id="Line" class="cls-3" d="M372,319v0.013h11V326h0v56H335.523a53.976,53.976,0,0,1-107.046,0H153.523a53.975,53.975,0,0,1-107.046,0H0V40A40,40,0,0,1,40,0H383V55h0v8.014H372v0.013A36.491,36.491,0,0,0,372,136v0.013h11V143h0v97h0v6.014H372v0.012A36.491,36.491,0,0,0,372,319Zm-7-89.38V153.379a53.971,53.971,0,0,1,0-106.758V17H42A25,25,0,0,0,17,42V365H63.014v11h0.013A36.491,36.491,0,0,0,136,376h0.013V365h109v11h0.012A36.491,36.491,0,0,0,318,376h0.013V365H365V336.379A53.971,53.971,0,0,1,365,229.621Z"/>
</svg>
