<svg xmlns="http://www.w3.org/2000/svg" width="430" height="382" viewBox="0 0 430 382">
  <defs>
    <style>
      .cls-1 {
        fill: #8896ff;
      }

      .cls-1, .cls-2, .cls-3, .cls-4, .cls-5, .cls-6 {
        fill-rule: evenodd;
      }

      .cls-2 {
        fill: #868efe;
      }

      .cls-3 {
        fill: #7a82fd;
      }

      .cls-4 {
        fill: #ffe430;
      }

      .cls-5 {
        fill: #ffb516;
      }

      .cls-6 {
        fill: #ffc000;
      }
    </style>
  </defs>
  <path id="Ellipse_1_copy_12_копия_3" data-name="Ellipse 1 copy 12 копия 3" class="cls-1" d="M416.476,52V368.48H280.882l-7.192-25.5L240,328l-39,14s-3.926,18.892-5.439,26.48H60.5V325H30L7,300l2-25,23-34H60.5V141H30L7,116,9,91,32,57H60.5V13.52H391V13h26V52h-0.524Z"/>
  <path id="Rectangle_1766_copy_17" data-name="Rectangle 1766 copy 17" class="cls-2" d="M305.367,170.833a59.794,59.794,0,0,1,6.2-5.422q1.116-.793,2.219-1.478c3.688-2.19,7.292-2.982,12.895-3.546,29.287-2.949,46.712,16.182,73.317,28.46,6.366,2.938,11.767,4.263,16.474,4.421v29.456a45.491,45.491,0,0,1-14.584-4.3c-26.605-12.277-44.03-31.409-73.316-28.46-5.6.565-9.207,1.357-12.9,3.547q-1.1.684-2.218,1.477a59.715,59.715,0,0,0-6.2,5.423c-8.694,8.478-15.893,19.1-28.166,21.148v-0.033c-5.887,1.026-12.943.073-21.9-4.063-26.605-12.277-44.029-31.409-73.316-28.46-5.6.565-9.207,1.357-12.9,3.547q-1.1.684-2.219,1.477a59.715,59.715,0,0,0-6.2,5.423c-8.693,8.478-15.893,19.105-28.166,21.147v-0.031c-5.887,1.025-12.944.072-21.9-4.063-19.5-9-34.068-21.666-51.986-26.637V160.843c17.065,5.308,31.288,17.4,50.1,26.082,8.962,4.136,16.018,5.089,21.906,4.064v0.031c12.273-2.042,19.473-12.67,28.166-21.148a59.587,59.587,0,0,1,6.2-5.422q1.115-.793,2.218-1.477c3.689-2.191,7.292-2.983,12.895-3.547,29.287-2.949,46.711,16.183,73.316,28.46,8.962,4.135,16.018,5.088,21.906,4.063v0.032C289.475,189.939,296.674,179.311,305.367,170.833ZM23.322,302.954a59.722,59.722,0,0,0-6.2,5.422L15.228,278.8a59.616,59.616,0,0,1,6.2-5.423q1.115-.793,2.219-1.478c3.688-2.189,7.292-2.981,12.9-3.545,29.287-2.95,46.711,16.182,73.316,28.459,8.962,4.136,16.019,5.089,21.905,4.064v0.031c12.273-2.042,19.473-12.67,28.166-21.147a59.61,59.61,0,0,1,6.205-5.423q1.114-.793,2.218-1.478c3.688-2.189,7.292-2.982,12.9-3.546,29.286-2.95,46.711,16.183,73.316,28.46,8.962,4.136,16.018,5.089,21.906,4.064v0.031c12.273-2.042,19.472-12.67,28.165-21.147a59.7,59.7,0,0,1,6.2-5.423q1.116-.793,2.219-1.478c3.688-2.19,7.292-2.981,12.9-3.546,29.287-2.949,46.712,16.183,73.317,28.46,6.7,3.09,12.327,4.4,17.2,4.441v29.5a44.481,44.481,0,0,1-15.313-4.359c-26.605-12.277-44.03-31.409-73.316-28.459-5.6.564-9.207,1.356-12.9,3.546q-1.1.684-2.218,1.478a59.793,59.793,0,0,0-6.2,5.422c-8.693,8.478-15.892,19.105-28.165,21.147v-0.031c-5.887,1.025-12.943.072-21.9-4.063-26.605-12.278-44.029-31.41-73.316-28.46-5.6.564-9.207,1.356-12.895,3.546q-1.1.685-2.219,1.477a59.715,59.715,0,0,0-6.2,5.423c-8.693,8.478-15.893,19.105-28.166,21.148v-0.032c-5.888,1.025-12.944.073-21.9-4.063-26.6-12.278-44.03-31.41-73.317-28.46-5.6.564-9.207,1.356-12.895,3.546Q24.438,302.162,23.322,302.954ZM402.6,111.331C376,99.054,358.573,79.922,329.286,82.871c-5.6.564-9.206,1.357-12.895,3.546q-1.1.685-2.219,1.477a59.792,59.792,0,0,0-6.2,5.423c-8.693,8.478-15.892,19.106-28.165,21.148v-0.032c-5.887,1.025-12.943.073-21.906-4.063-26.6-12.277-44.029-31.409-73.315-28.46-5.6.564-9.208,1.356-12.9,3.546q-1.1.685-2.218,1.478a59.711,59.711,0,0,0-6.2,5.423c-8.692,8.477-15.892,19.105-28.165,21.147v-0.031c-5.888,1.024-12.944.072-21.906-4.064C86.588,97.132,69.163,78,39.876,80.949c-5.6.564-9.207,1.356-12.895,3.546q-1.1.685-2.219,1.477a59.783,59.783,0,0,0-6.2,5.423L17.71,78.125,32,57H60.5V53.525C77.88,58.714,92.233,71.032,111.3,79.832c8.962,4.136,16.018,5.089,21.9,4.064v0.032c12.273-2.043,19.472-12.67,28.165-21.147a59.81,59.81,0,0,1,6.2-5.423q1.114-.793,2.218-1.477c3.689-2.19,7.293-2.982,12.9-3.546,29.286-2.95,46.711,16.182,73.316,28.46,8.962,4.136,16.018,5.088,21.906,4.063v0.032c12.274-2.042,19.473-12.67,28.166-21.147a59.655,59.655,0,0,1,6.2-5.423q1.114-.793,2.219-1.478c3.688-2.19,7.292-2.982,12.9-3.546,29.287-2.95,46.711,16.183,73.316,28.46a43.906,43.906,0,0,0,15.764,4.39v29.408A46.444,46.444,0,0,1,402.6,111.331Z"/>
  <path id="Line" class="cls-3" d="M293,382H275.986V371h-0.012A36.491,36.491,0,0,0,203,371h-0.013v11h-157V336.377a53.971,53.971,0,0,1,0-106.754V153.377a53.971,53.971,0,0,1,0-106.754V0h344a40,40,0,0,1,40,40V382H293ZM412.986,42a25,25,0,0,0-25-25h-324V46H64V63.014H53v0.013A36.491,36.491,0,0,0,53,136v0.013H64V154H63.986v75H64v17.014H53v0.012A36.491,36.491,0,0,0,53,319v0.013H64V337H63.986v28H185.477a53.976,53.976,0,0,1,107.046,0H412.986V42Z"/>
  <path id="Shape_3256_copy" data-name="Shape 3256 copy" class="cls-4" d="M219.735,237.855h-1.221v12.2h0.066c-3.147,10.348-17.225,5.191-11.655,18.511,15.325,29.507-26.276,22.762-26.276,22.762s-8.214-1.544-13.579-5.658c-5.484-4.21-7.675-13.053-6.926-17.148,0.418-2.283,2.435-2.653,6.19,1.526,2.6,2.9,9.828-1.811,16.894-3.175,6.485-1.257,8.978-5.37,1.538-10.352-8.424-5.757-16.9-20.678-4.7-34.682,3.905-4.1,8.515-5.807,13.384-6.74a25.467,25.467,0,0,1,15,1.211,18.976,18.976,0,0,1,10.824,10.652C221.325,231.755,219.211,235.178,219.735,237.855Z"/>
  <path id="Shape_3270_copy_2" data-name="Shape 3270 copy 2" class="cls-5" d="M217.525,251.046c-4.066-4.225-1.184-11.076.34-13.117,2.044-2.738,2.416.363,4.607,1.905,2.6,1.828,5.606,2.81,5.606,4.287C228.078,248.367,218.213,251.761,217.525,251.046Z"/>
  <path id="Shape_787_copy_2" data-name="Shape 787 copy 2" class="cls-6" d="M165.719,271.241A22.484,22.484,0,0,0,172.707,280c5.089,3.863,12.359,4.619,18.9.157s5.124-11.2,3.026-13.261c-2.13-2.092-5.593-3.339-11.035-1.075a56.054,56.054,0,0,1-11.032,3.695,15.19,15.19,0,0,1-5.64-.025S164.726,268.613,165.719,271.241Z"/>
  <path id="Shape_3256_copy-2" data-name="Shape 3256 copy" class="cls-4" d="M305.735,237.855h-1.221v12.2h0.066c-3.147,10.348-17.225,5.191-11.655,18.511,15.325,29.507-26.276,22.762-26.276,22.762s-8.214-1.544-13.579-5.658c-5.484-4.21-7.675-13.053-6.926-17.148,0.418-2.283,2.435-2.653,6.19,1.526,2.6,2.9,9.828-1.811,16.894-3.175,6.485-1.257,8.978-5.37,1.538-10.352-8.424-5.757-16.9-20.678-4.7-34.682,3.9-4.1,8.515-5.807,13.384-6.74a25.467,25.467,0,0,1,15,1.211,18.976,18.976,0,0,1,10.824,10.652C307.325,231.755,305.211,235.178,305.735,237.855Z"/>
  <path id="Shape_3270_copy_2-2" data-name="Shape 3270 copy 2" class="cls-5" d="M303.525,251.046c-4.066-4.225-1.184-11.076.34-13.117,2.044-2.738,2.416.363,4.607,1.905,2.6,1.828,5.606,2.81,5.606,4.287C314.078,248.367,304.213,251.761,303.525,251.046Z"/>
  <path id="Shape_787_copy_2-2" data-name="Shape 787 copy 2" class="cls-6" d="M251.719,271.241A22.484,22.484,0,0,0,258.707,280c5.089,3.863,12.359,4.619,18.9.157s5.124-11.2,3.026-13.261c-2.13-2.092-5.593-3.339-11.035-1.075a56.054,56.054,0,0,1-11.032,3.695,15.19,15.19,0,0,1-5.64-.025S250.726,268.613,251.719,271.241Z"/>
  <path id="Shape_3256_copy-3" data-name="Shape 3256 copy" class="cls-4" d="M219.735,65.855h-1.221v12.2h0.066c-3.147,10.348-17.225,5.191-11.655,18.511,15.325,29.507-26.276,22.762-26.276,22.762s-8.214-1.544-13.579-5.658c-5.484-4.21-7.675-13.053-6.926-17.148,0.418-2.283,2.435-2.653,6.19,1.526,2.6,2.9,9.828-1.812,16.894-3.175,6.485-1.258,8.978-5.37,1.538-10.352-8.424-5.757-16.9-20.678-4.7-34.682,3.905-4.1,8.515-5.806,13.384-6.74a25.469,25.469,0,0,1,15,1.211,18.975,18.975,0,0,1,10.824,10.653C221.325,59.755,219.211,63.178,219.735,65.855Z"/>
  <path id="Shape_3270_copy_2-3" data-name="Shape 3270 copy 2" class="cls-5" d="M217.525,79.046c-4.066-4.226-1.184-11.077.34-13.118,2.044-2.738,2.416.363,4.607,1.905,2.6,1.829,5.606,2.81,5.606,4.287C228.078,76.367,218.213,79.761,217.525,79.046Z"/>
  <path id="Shape_787_copy_2-3" data-name="Shape 787 copy 2" class="cls-6" d="M165.719,99.241A22.484,22.484,0,0,0,172.707,108c5.089,3.863,12.359,4.619,18.9.157s5.124-11.2,3.026-13.261c-2.13-2.092-5.593-3.339-11.035-1.075a56.019,56.019,0,0,1-11.032,3.695,15.182,15.182,0,0,1-5.64-.025S164.726,96.613,165.719,99.241Z"/>
  <path id="Shape_3256_copy-4" data-name="Shape 3256 copy" class="cls-4" d="M305.735,65.855h-1.221v12.2h0.066c-3.147,10.348-17.225,5.191-11.655,18.511,15.325,29.507-26.276,22.762-26.276,22.762s-8.214-1.544-13.579-5.658c-5.484-4.21-7.675-13.053-6.926-17.148,0.418-2.283,2.435-2.653,6.19,1.526,2.6,2.9,9.828-1.812,16.894-3.175,6.485-1.258,8.978-5.37,1.538-10.352-8.424-5.757-16.9-20.678-4.7-34.682,3.9-4.1,8.515-5.806,13.384-6.74a25.469,25.469,0,0,1,15,1.211,18.975,18.975,0,0,1,10.824,10.653C307.325,59.755,305.211,63.178,305.735,65.855Z"/>
  <path id="Shape_3270_copy_2-4" data-name="Shape 3270 copy 2" class="cls-5" d="M303.525,79.046c-4.066-4.226-1.184-11.077.34-13.118,2.044-2.738,2.416.363,4.607,1.905,2.6,1.829,5.606,2.81,5.606,4.287C314.078,76.367,304.213,79.761,303.525,79.046Z"/>
  <path id="Shape_787_copy_2-4" data-name="Shape 787 copy 2" class="cls-6" d="M251.719,99.241A22.484,22.484,0,0,0,258.707,108c5.089,3.863,12.359,4.619,18.9.157s5.124-11.2,3.026-13.261c-2.13-2.092-5.593-3.339-11.035-1.075a56.019,56.019,0,0,1-11.032,3.695,15.182,15.182,0,0,1-5.64-.025S250.726,96.613,251.719,99.241Z"/>
  <path id="Shape_3256_copy-5" data-name="Shape 3256 copy" class="cls-4" d="M173.735,154.855h-1.221v12.2h0.066c-3.147,10.348-17.225,5.191-11.655,18.511,15.325,29.507-26.276,22.762-26.276,22.762s-8.214-1.544-13.579-5.658c-5.484-4.21-7.675-13.053-6.926-17.148,0.418-2.283,2.435-2.653,6.19,1.526,2.6,2.9,9.828-1.811,16.894-3.175,6.485-1.257,8.978-5.37,1.538-10.352-8.424-5.757-16.9-20.678-4.7-34.682,3.905-4.1,8.515-5.807,13.384-6.74a25.467,25.467,0,0,1,15,1.211,18.976,18.976,0,0,1,10.824,10.652C175.325,148.755,173.211,152.178,173.735,154.855Z"/>
  <path id="Shape_3270_copy_2-5" data-name="Shape 3270 copy 2" class="cls-5" d="M171.525,168.046c-4.066-4.225-1.184-11.076.34-13.117,2.044-2.738,2.416.363,4.607,1.905,2.6,1.828,5.606,2.81,5.606,4.287C182.078,165.367,172.213,168.761,171.525,168.046Z"/>
  <path id="Shape_787_copy_2-5" data-name="Shape 787 copy 2" class="cls-6" d="M119.719,188.241A22.484,22.484,0,0,0,126.707,197c5.089,3.863,12.359,4.619,18.9.157s5.124-11.2,3.026-13.261c-2.13-2.092-5.593-3.339-11.035-1.075a56.054,56.054,0,0,1-11.032,3.695,15.19,15.19,0,0,1-5.64-.025S118.726,185.613,119.719,188.241Z"/>
  <path id="Shape_3256_copy-6" data-name="Shape 3256 copy" class="cls-4" d="M259.735,154.855h-1.221v12.2h0.066c-3.147,10.348-17.225,5.191-11.655,18.511,15.325,29.507-26.276,22.762-26.276,22.762s-8.214-1.544-13.579-5.658c-5.484-4.21-7.675-13.053-6.926-17.148,0.418-2.283,2.435-2.653,6.19,1.526,2.6,2.9,9.828-1.811,16.894-3.175,6.485-1.257,8.978-5.37,1.538-10.352-8.424-5.757-16.9-20.678-4.7-34.682,3.905-4.1,8.515-5.807,13.384-6.74a25.467,25.467,0,0,1,15,1.211,18.976,18.976,0,0,1,10.824,10.652C261.325,148.755,259.211,152.178,259.735,154.855Z"/>
  <path id="Shape_3270_copy_2-6" data-name="Shape 3270 copy 2" class="cls-5" d="M257.525,168.046c-4.066-4.225-1.184-11.076.34-13.117,2.044-2.738,2.416.363,4.607,1.905,2.6,1.828,5.606,2.81,5.606,4.287C268.078,165.367,258.213,168.761,257.525,168.046Z"/>
  <path id="Shape_787_copy_2-6" data-name="Shape 787 copy 2" class="cls-6" d="M205.719,188.241A22.484,22.484,0,0,0,212.707,197c5.089,3.863,12.359,4.619,18.9.157s5.124-11.2,3.026-13.261c-2.13-2.092-5.593-3.339-11.035-1.075a56.054,56.054,0,0,1-11.032,3.695,15.19,15.19,0,0,1-5.64-.025S204.726,185.613,205.719,188.241Z"/>
  <path id="Shape_3256_copy-7" data-name="Shape 3256 copy" class="cls-4" d="M347.735,154.855h-1.221v12.2h0.066c-3.147,10.348-17.225,5.191-11.655,18.511,15.325,29.507-26.276,22.762-26.276,22.762s-8.214-1.544-13.579-5.658c-5.484-4.21-7.675-13.053-6.926-17.148,0.418-2.283,2.435-2.653,6.19,1.526,2.6,2.9,9.828-1.811,16.894-3.175,6.485-1.257,8.978-5.37,1.538-10.352-8.424-5.757-16.9-20.678-4.7-34.682,3.9-4.1,8.515-5.807,13.384-6.74a25.467,25.467,0,0,1,15,1.211,18.976,18.976,0,0,1,10.824,10.652C349.325,148.755,347.211,152.178,347.735,154.855Z"/>
  <path id="Shape_3270_copy_2-7" data-name="Shape 3270 copy 2" class="cls-5" d="M345.525,168.046c-4.066-4.225-1.184-11.076.34-13.117,2.044-2.738,2.416.363,4.607,1.905,2.6,1.828,5.606,2.81,5.606,4.287C356.078,165.367,346.213,168.761,345.525,168.046Z"/>
  <path id="Shape_787_copy_2-7" data-name="Shape 787 copy 2" class="cls-6" d="M293.719,188.241A22.484,22.484,0,0,0,300.707,197c5.089,3.863,12.359,4.619,18.9.157s5.124-11.2,3.026-13.261c-2.13-2.092-5.593-3.339-11.035-1.075a56.054,56.054,0,0,1-11.032,3.695,15.19,15.19,0,0,1-5.64-.025S292.726,185.613,293.719,188.241Z"/>
</svg>
