<svg xmlns="http://www.w3.org/2000/svg" width="430" height="382" viewBox="0 0 430 382">
  <defs>
    <style>
      .cls-1 {
        fill: #c186fd;
      }

      .cls-1, .cls-2, .cls-3, .cls-4, .cls-5 {
        fill-rule: evenodd;
      }

      .cls-2 {
        fill: #be80fd;
      }

      .cls-3 {
        fill: #b376f2;
      }

      .cls-4 {
        fill: #ffdf30;
      }

      .cls-5 {
        fill: #fff;
      }
    </style>
  </defs>
  <path id="Ellipse_1_copy_12_копия_3" data-name="Ellipse 1 copy 12 копия 3" class="cls-1" d="M416.476,52V368.48H280.882l-7.192-25.5L240,328l-39,14s-3.926,18.892-5.439,26.48H60.5V325H30L7,300l2-25,23-34H60.5V141H30L7,116,9,91,32,57H60.5V13.52H391V13h26V52h-0.524Z"/>
  <path id="Rounded_Rectangle_2_copy_9" data-name="Rounded Rectangle 2 copy 9" class="cls-2" d="M155.969,147.844c0.128,0,.256-0.007.384-0.008s0.255,0,.383.008a15.347,15.347,0,0,1,8.152,2.459l126.837,57.905,124.751-56.953V184.98l-117.6,53.687a19.563,19.563,0,0,1-14.308,0L156.353,180.131,60.5,223.893V190.168L147.817,150.3A15.355,15.355,0,0,1,155.969,147.844Zm-8.152,111.134a15.347,15.347,0,0,1,8.152-2.459c0.128,0,.256-0.007.384-0.008s0.255,0,.383.008a15.347,15.347,0,0,1,8.152,2.459l126.837,57.9L416.476,259.93v33.724l-117.6,53.688a19.563,19.563,0,0,1-14.308,0L156.353,288.806,60.5,332.568V325H30l-7.927-8.616ZM298.879,133.827a19.563,19.563,0,0,1-14.308,0L156.353,75.291,28.134,133.827a15.048,15.048,0,0,1-3.688,1.136L7,116,8.5,97.288l12.9,5.89L147.817,45.463A15.354,15.354,0,0,1,155.969,43c0.128,0,.256-0.006.384-0.008s0.255,0,.383.008a15.354,15.354,0,0,1,8.152,2.459l126.837,57.906L417,46.176V52h-0.524V80.14Z"/>
  <path id="Line" class="cls-3" d="M293,382H275.986V371h-0.012A36.491,36.491,0,0,0,203,371h-0.013v11h-157V336.377a53.971,53.971,0,0,1,0-106.754V153.377a53.971,53.971,0,0,1,0-106.754V0h344a40,40,0,0,1,40,40V382H293ZM412.986,42a25,25,0,0,0-25-25h-324V46H64V63.014H53v0.013A36.491,36.491,0,0,0,53,136v0.013H64V154H63.986v75H64v17.014H53v0.012A36.491,36.491,0,0,0,53,319v0.013H64V337H63.986v28H185.477a53.976,53.976,0,0,1,107.046,0H412.986V42Z"/>
  <path id="Shape_2_copy" data-name="Shape 2 copy" class="cls-4" d="M189.867,227.764c-1.6,11.208-6.118,23.756-13.281,26.3-6.92,2.461-19.359-5.63-26.5-16.838-7.395-11.195-4.247-10.675-19.291-7.106-12.81,2.686-23.481,1.4-26.307-4.862-2.956-6.553,2.539-20.307,9.475-29.291,6.922-8.965,7.3-8.5,2.886-15.921-5.781-9.417-10.32-21.683-7.165-30.347,3.288-9.028,19.853-6.183,31.919-.45,10.1,3.473,9.978,2.521,16.515-5.363,7.183-9.063,18.895-18.662,27.23-16.961l4.132,1.62c7.317,4.829,8.257,19.736,6.849,31.247-0.776,7.854.292,11.083,5.965,12.363,12.377,4.122,28.929,15.145,24.513,24.638-3.537,7.6-13.566,12.439-23.908,15.579C189.5,216.444,191.372,217.235,189.867,227.764Z"/>
  <path id="Фигура_3" data-name="Фигура 3" class="cls-5" d="M156,157s9.407-12.823,14-16c4.352-3.011,7.441-4.029,10-1,1.658,1.963,2.742,4.351-1,8s-11.044,11.832-13,16a6.517,6.517,0,0,1-9,3C153.916,165.242,152.9,162.106,156,157Z"/>
  <path id="Shape_2_copy-2" data-name="Shape 2 copy" class="cls-4" d="M351.867,227.764c-1.6,11.208-6.118,23.756-13.281,26.3-6.92,2.461-19.359-5.63-26.5-16.838-7.395-11.195-4.247-10.675-19.291-7.106-12.81,2.686-23.481,1.4-26.307-4.862-2.956-6.553,2.539-20.307,9.475-29.291,6.922-8.965,7.3-8.5,2.886-15.921-5.781-9.417-10.32-21.683-7.165-30.347,3.288-9.028,19.853-6.183,31.919-.45,10.1,3.473,9.978,2.521,16.515-5.363,7.183-9.063,18.9-18.662,27.23-16.961l4.132,1.62c7.317,4.829,8.257,19.736,6.849,31.247-0.776,7.854.292,11.083,5.965,12.363,12.377,4.122,28.929,15.145,24.513,24.638-3.537,7.6-13.566,12.439-23.908,15.579C351.5,216.444,353.372,217.235,351.867,227.764Z"/>
  <path id="Фигура_3-2" data-name="Фигура 3" class="cls-5" d="M318,157s9.407-12.823,14-16c4.352-3.011,7.441-4.029,10-1,1.658,1.963,2.742,4.351-1,8s-11.044,11.832-13,16a6.517,6.517,0,0,1-9,3C315.916,165.242,314.9,162.106,318,157Z"/>
</svg>
