<svg xmlns="http://www.w3.org/2000/svg" width="384" height="429" viewBox="0 0 384 429">
  <defs>
    <style>
      .cls-1 {
        fill: #c186fd;
      }

      .cls-1, .cls-2, .cls-3 {
        fill-rule: evenodd;
      }

      .cls-2 {
        fill: #be80fd;
      }

      .cls-3 {
        fill: #b376f2;
      }
    </style>
  </defs>
  <path id="Ellipse_1_copy_12_копия_3" data-name="Ellipse 1 copy 12 копия 3" class="cls-1" d="M369,414H340v-0.26H16.241V286.082l21.224-9.7,15.15-31.31-12.12-39.39-24.254-9.555V62.26H125V62h15.68L162,21,192,8l34,12,14.509,42H265v0.26H368.731V386H369v28Z"/>
  <path id="Rounded_Rectangle_2_copy_11" data-name="Rounded Rectangle 2 copy 11" class="cls-2" d="M101.817,196.574a15.356,15.356,0,0,1,8.152-2.459c0.128,0,.256-0.006.384-0.008s0.255,0,.383.008a15.357,15.357,0,0,1,8.152,2.46L245.725,254.48l123.006-56.157v33.725L252.879,284.939a19.563,19.563,0,0,1-14.308,0L110.353,226.4,47.838,254.943l4.777-9.873-7.024-22.827ZM16.241,344.318l85.576-39.069a15.356,15.356,0,0,1,8.152-2.459c0.128,0,.256-0.006.384-0.007s0.255,0,.383.007a15.357,15.357,0,0,1,8.152,2.46l126.837,57.9L368.731,307v33.725L252.879,393.614a19.563,19.563,0,0,1-14.308,0L110.353,335.077,16.241,378.043V344.318ZM368.731,93.484v33.724L252.879,180.1a19.563,19.563,0,0,1-14.308,0L110.353,121.563,16.241,164.528V130.8l85.576-39.069a15.355,15.355,0,0,1,8.152-2.459c0.128,0,.256-0.006.384-0.008s0.255,0,.383.008a15.353,15.353,0,0,1,8.152,2.459l126.837,57.906Z"/>
  <path id="Line" class="cls-3" d="M383.986,389a40,40,0,0,1-40,40h-344V281H0v-5.014H11v-0.012A36.491,36.491,0,0,0,11,203v-0.013H0V196H-0.014V47H139.477a53.976,53.976,0,0,1,107.046,0H383.986V389Zm-17-325h-137V53h-0.012A36.491,36.491,0,0,0,157,53h-0.013V64h-139V185.619a53.971,53.971,0,0,1,0,106.762V412h324a25,25,0,0,0,25-25V64Z"/>
</svg>
