<?xml version="1.0" encoding="utf-8"?>
<!-- Generator: Adobe Illustrator 24.0.1, SVG Export Plug-In . SVG Version: 6.00 Build 0)  -->
<svg version="1.1" id="Слой_1" xmlns="http://www.w3.org/2000/svg" xmlns:xlink="http://www.w3.org/1999/xlink" x="0px" y="0px"
	 viewBox="0 0 3730 1119" style="enable-background:new 0 0 3730 1119;" xml:space="preserve">
<style type="text/css">
	.st0{fill-rule:evenodd;clip-rule:evenodd;fill:#C1EDF5;}
	.st1{fill:#C1EDF5;}
	.st2{fill-rule:evenodd;clip-rule:evenodd;fill:#D2F4FA;}
	.st3{fill:#D2F4FA;}
	.st4{fill-rule:evenodd;clip-rule:evenodd;fill:#FFFFFF;}
	.st5{fill:#86CCC0;}
	.st6{fill:#B6E7E4;}
	.st7{fill:#99D9CE;}
	.st8{fill-rule:evenodd;clip-rule:evenodd;fill:#B4B4B4;}
	.st9{fill-rule:evenodd;clip-rule:evenodd;fill:#6FD6E5;}
	.st10{fill:#9EB1D7;}
	.st11{fill:#B3C4EA;}
	.st12{fill:#FFFBBA;}
	.st13{fill:#9990BB;}
	.st14{fill:#E9FFFC;}
	.st15{fill-rule:evenodd;clip-rule:evenodd;fill:#6AC8D5;}
	.st16{fill:#90D9D5;}
	.st17{fill:#A2DDE8;}
</style>
<path class="st0" d="M0.9-32h1699.2v1152.7H0.9V-32z"/>
<path id="Rectangle_135_copy_3" class="st0" d="M2829.9-32h915.7v1152.7h-915.7V-32z"/>
<rect id="Rectangle_135_copy_2" x="0.9" y="-32" class="st1" width="3739.1" height="254.8"/>
<path id="Rectangle_135_copy" class="st0" d="M0.9,849.2H3740v271.5H0.9V849.2z"/>
<path id="Rectangle_129_copy" class="st2" d="M223.8,0.8h165.4v1125.6H223.8V0.8z"/>
<path id="Rectangle_129_copy_3" class="st2" d="M554.5,0.8h165.4v1125.6H554.5V0.8z"/>
<path id="Rectangle_129_copy_3-2" class="st2" d="M886.2,0.8h165.4v1125.6H886.2V0.8z"/>
<path id="Rectangle_129_copy_4" class="st2" d="M1216.8,0.8h165.4v1125.6h-165.4V0.8z"/>
<path id="Rectangle_129_copy_5" class="st2" d="M1547.5,0.8H1713v1125.6h-165.4V0.8z"/>
<path id="Rectangle_129_copy_5-2" class="st2" d="M1879.2,0.8h165.4v208h-165.4V0.8z"/>
<path id="Rectangle_129_copy_6" class="st2" d="M2209.9,0.8h165.4v208h-165.4V0.8z"/>
<path id="Rectangle_129_copy_7" class="st2" d="M2541.6,0.8H2707v208h-165.4V0.8z"/>
<path id="Rectangle_129_copy_11" class="st2" d="M1879.2,862.4h165.4v264h-165.4V862.4z"/>
<rect id="Rectangle_129_copy_11-2" x="2209.9" y="862.4" class="st3" width="165.4" height="264"/>
<rect id="Rectangle_129_copy_11-3" x="2541.6" y="862.4" class="st3" width="165.4" height="264"/>
<path id="Rectangle_129_copy_8" class="st2" d="M2872.2,0.8h165.4v1125.6h-165.4V0.8z"/>
<path id="Rectangle_129_copy_9" class="st2" d="M3203.9,0.8h165.4v1125.6h-165.4V0.8z"/>
<path id="Rectangle_129_copy_10" class="st2" d="M3534.6,0.8H3700v1125.6h-165.4V0.8z"/>
<path id="Rectangle_137_copy" class="st4" d="M1686.3,232.7h1161.7c13.8,0,25,11.2,25,25V887c0,13.8-11.2,25-25,25H1686.3
	c-13.8,0-25-11.2-25-25V257.7C1661.3,243.9,1672.4,232.7,1686.3,232.7z M1767.8,287h998.7c13.8,0,25,11.2,25,25v501.6
	c0,13.8-11.2,25-25,25h-998.7c-13.8,0-25-11.2-25-25V312C1742.8,298.2,1753.9,287,1767.8,287z"/>
<rect x="1939.9" y="273" class="st5" width="27.5" height="263.1"/>
<rect id="Rectangle_139_copy" x="2561.1" y="273" class="st5" width="27.5" height="263.1"/>
<path id="Rectangle_138_copy" class="st6" d="M1652.9,154.2h1220c11,0,20,9,20,20V292c0,11-9,20-20,20h-1220c-11,0-20-9-20-20V174.2
	C1632.9,163.1,1641.9,154.2,1652.9,154.2z"/>
<path id="Rectangle_138_copy_2" class="st6" d="M1652.9,336.1h1220c11,0,20,9,20,20V432c0,11-9,20-20,20h-1220c-11,0-20-9-20-20
	v-75.9C1632.9,345,1641.9,336.1,1652.9,336.1z"/>
<path id="Rectangle_138_copy_3" class="st6" d="M1652.9,477h1220c11,0,20,9,20,20v103.3c0,11-9,20-20,20h-1220c-11,0-20-9-20-20V497
	C1632.9,486,1641.9,477,1652.9,477z"/>
<path id="Rectangle_138_copy_4" class="st7" d="M1649.9,589H2876c9.4,0,17,7.6,17,17l0,0c0,9.4-7.6,17-17,17H1649.9
	c-9.4,0-17-7.6-17-17l0,0C1632.9,596.6,1640.5,589,1649.9,589z"/>
<path class="st7" d="M1635.5,154.2h1254.9c11,0,20,9,20,20v43c0,11-9,20-20,20H1635.5c-11,0-20-9-20-20v-43
	C1615.5,163.1,1624.5,154.2,1635.5,154.2z"/>
<path class="st8" d="M375.5,988.7c0,0-5.6,39.9-23,80.9s-28.5,58.9-28.5,58.9s-1.3,2.8-8.3,2.8c-8.5,0-11.1,0.3-7.4-13.8
	c3-11.2,20.1-93.7,23.9-132.4C346.8,985.1,361.2,986.3,375.5,988.7z"/>
<path id="Shape_6_copy" class="st8" d="M497,988.7c0,0,5.6,39.9,23,80.9c17.4,41,28.5,58.9,28.5,58.9s1.3,2.8,8.3,2.8
	c8.5,0,11.1,0.3,7.4-13.8c-3-11.2-20.1-93.7-23.9-132.4C525.8,985.1,511.3,986.3,497,988.7z"/>
<path id="Rounded_Rectangle_45_copy" class="st9" d="M549.3,1001.6H368.1c-1.5,0-3-0.1-4.4-0.3c-20.7,2.6-55.1-15.6-63.6-37.5
	c-19.3-49.9-50.4-187-50.1-211.6c0.3-24.8,4.7-47.8,24.8-53.2s26.7,17.6,41.9,45.9c0,0,22.7,52.6,34.9,101.2
	c7.4,29.5,9.9,64.1,10.7,80.5c1.9-0.3,3.9-0.5,5.8-0.5h181.2c20.8,0,37.7,16.9,37.7,37.7S570.1,1001.6,549.3,1001.6z"/>
<path class="st8" d="M949,988.7c0,0,5.6,39.9,23,80.9s28.5,58.9,28.5,58.9s1.3,2.8,8.3,2.8c8.5,0,11.1,0.3,7.3-13.8
	c-3-11.2-20.1-93.7-23.9-132.4C977.8,985.1,963.3,986.3,949,988.7z"/>
<path id="Shape_6_copy-2" class="st8" d="M827.5,988.7c0,0-5.5,39.9-23,80.9s-28.5,58.9-28.5,58.9s-1.3,2.8-8.3,2.8
	c-8.5,0-11.1,0.3-7.4-13.8c3-11.2,20.1-93.7,23.9-132.4C798.8,985.1,813.2,986.3,827.5,988.7z"/>
<path id="Rounded_Rectangle_45_copy-2" class="st9" d="M1024.4,963.9c-8.5,21.9-42.9,40-63.6,37.5c-1.5,0.2-3,0.3-4.5,0.3H775.2
	c-20.8,0-37.7-16.9-37.7-37.7s16.9-37.7,37.7-37.7h181.2c2,0,3.9,0.2,5.9,0.5c0.8-16.4,3.3-51,10.7-80.5
	c12.2-48.6,35-101.2,35-101.2c15.2-28.4,21.7-51.3,41.9-45.9s24.5,28.4,24.8,53.2C1074.8,776.9,1043.7,914,1024.4,963.9z"/>
<path id="Rounded_Rectangle_41_copy" class="st10" d="M645.8,791.1h18.6c11,0,20,9,20,20v305.2c0,11-9,20-20,20h-18.6
	c-11,0-20-9-20-20V811.1C625.8,800,634.8,791.1,645.8,791.1z"/>
<path id="Rounded_Rectangle_41" class="st11" d="M428.2,769.6h463.9c11,0,20,9,20,20v32.1c0,11-9,20-20,20H428.2c-11,0-20-9-20-20
	v-32.1C408.2,778.6,417.2,769.6,428.2,769.6z"/>
<ellipse id="Ellipse_25_copy_2" class="st12" cx="297.4" cy="499" rx="33.1" ry="33.2"/>
<rect x="281.3" y="-5.9" class="st13" width="27.8" height="390"/>
<ellipse id="Ellipse_25_copy_2-2" class="st12" cx="3558.6" cy="561" rx="33.1" ry="33.2"/>
<rect x="3542.6" y="-10.6" class="st13" width="27.9" height="456.7"/>
<circle id="Ellipse_25_copy_2-3" class="st12" cx="3390" cy="199.9" r="33.1"/>
<rect x="3373.9" y="-53.2" class="st13" width="27.8" height="138.2"/>
<path class="st14" d="M939.9,46.8h387.6c9.4,0,17,7.6,17,17v276.3c0,9.4-7.6,17-17,17H939.9c-9.4,0-17-7.6-17-17V63.8
	C922.9,54.5,930.5,46.8,939.9,46.8z"/>
<path class="st15" d="M3357.4,990.4h-134.2v164.4h-65.3V990.4h-133.3c-5.5,0-10-4.5-10-10v-22.6c0-22.1,17.9-40,40-40c0,0,0,0,0,0
	h272.8c22.1,0,40,17.9,40,40v22.6C3367.4,985.9,3362.9,990.4,3357.4,990.4z"/>
<path id="Rectangle_75_copy" class="st15" d="M3839.3,990.4h-134.2v164.4h-65.3V990.4h-133.2c-5.5,0-10-4.5-10-10v-22.6
	c0-22.1,17.9-40,40-40c0,0,0,0,0,0h272.7c22.1,0,40,17.9,40,40c0,0,0,0,0,0v22.6C3849.3,985.9,3844.9,990.4,3839.3,990.4z"/>
<path class="st16" d="M2987.4,750h626.3c22.4,0,40.6,18.2,40.6,40.6v0c0,22.4-18.2,40.6-40.6,40.6h-626.3
	c-22.4,0-40.6-18.2-40.6-40.6v0C2946.8,768.2,2965,750,2987.4,750z"/>
<path class="st17" d="M2972.1,167.7h226.5c12.7,0,23,10.3,23,23v226.5c0,12.7-10.3,23-23,23h-226.5c-12.7,0-23-10.3-23-23V190.7
	C2949.1,178,2959.4,167.7,2972.1,167.7z"/>
<path id="Rectangle_145_copy" class="st3" d="M2985.3,193.8h200.2c5.5,0,10,4.5,10,10V404c0,5.5-4.5,10-10,10h-200.2
	c-5.5,0-10-4.5-10-10V203.8C2975.3,198.3,2979.8,193.8,2985.3,193.8z"/>
</svg>
