<svg xmlns="http://www.w3.org/2000/svg" width="512" height="512" viewBox="0 0 512 512">
  <defs>
    <style>
      .cls-1 {
        fill: #93cfce;
      }

      .cls-1, .cls-2, .cls-3, .cls-4 {
        fill-rule: evenodd;
      }

      .cls-2 {
        fill: #29c714;
      }

      .cls-3 {
        fill: #f6f83f;
      }

      .cls-4 {
        fill: #f8ffe1;
        opacity: 0.71;
      }
    </style>
  </defs>
  <g id="Battery">
    <g id="Battery-2" data-name="Battery">
      <g>
        <path id="Rounded_Rectangle_16" data-name="Rounded Rectangle 16" class="cls-1" d="M1306.71,6.719h175.31a3.791,3.791,0,0,1,3.79,3.789v93.5a3.792,3.792,0,0,1-3.79,3.789H1306.71a3.786,3.786,0,0,1-3.79-3.789v-93.5A3.785,3.785,0,0,1,1306.71,6.719Z" transform="translate(-1141 -7)"/>
        <path id="Rounded_Rectangle_16_copy" data-name="Rounded Rectangle 16 copy" class="cls-1" d="M1281.34,415.982h226.03a2.526,2.526,0,0,1,2.53,2.526v95.915a2.526,2.526,0,0,1-2.53,2.526H1281.34a2.524,2.524,0,0,1-2.52-2.526V418.508A2.524,2.524,0,0,1,1281.34,415.982Z" transform="translate(-1141 -7)"/>
        <path id="Rounded_Rectangle_15" data-name="Rounded Rectangle 15" class="cls-2" d="M1243.14,53.218h301.23a7.576,7.576,0,0,1,7.58,7.578V488.646a7.577,7.577,0,0,1-7.58,7.578H1243.14a7.583,7.583,0,0,1-7.58-7.578V60.8A7.583,7.583,0,0,1,1243.14,53.218Z" transform="translate(-1141 -7)"/>
        <path class="cls-3" d="M1331.88,271.049l26.74-98.47s3.1-18.234,21.73-18.234h36.77s20.78-1.621,13.37,20.057-23.4,67.471-23.4,67.471-6.16,12.764,5.01,12.764h33.43s23.42,1,11.7,27.352S1402.08,398.7,1402.08,398.7s-2.07,8.483-11.7,3.647c-5.51-2.764-3.35-12.765-3.35-12.765l10.03-83.882s2.94-7.294-8.35-7.294h-43.46s-10.67,1.123-15.04-7.294C1326.21,283.406,1331.88,271.049,1331.88,271.049Z" transform="translate(-1141 -7)"/>
        <path id="Rounded_Rectangle_17" data-name="Rounded Rectangle 17" class="cls-4" d="M1268.58,86.952h30.24a2.526,2.526,0,0,1,2.53,2.526v91.337a2.526,2.526,0,0,1-2.53,2.526h-30.24a2.526,2.526,0,0,1-2.53-2.526V89.478A2.526,2.526,0,0,1,1268.58,86.952Z" transform="translate(-1141 -7)"/>
      </g>
    </g>
  </g>
</svg>
