<svg xmlns="http://www.w3.org/2000/svg" width="144" height="83" viewBox="0 0 144 83">
  <defs>
    <style>
      .cls-1 {
        fill: #6e7ffd;
      }

      .cls-1, .cls-2, .cls-3 {
        fill-rule: evenodd;
      }

      .cls-2 {
        fill: #5162df;
      }

      .cls-3 {
        fill: #ffe76a;
      }
    </style>
  </defs>
  <path id="Фигура_892" data-name="Фигура 892" class="cls-1" d="M143.652,31.761a4.281,4.281,0,0,1-3.959,2.593l-16.847-.1L109.781,21.18,109.988,4.2a4.268,4.268,0,0,1,7.291-2.954l25.507,25.9A4.217,4.217,0,0,1,143.652,31.761ZM100.064,60.842l1.01,5.341A14.1,14.1,0,0,1,98,77.9q-0.46.549-.966,1.044a14.216,14.216,0,0,1-10.057,4.066l-45.856-.27A14.039,14.039,0,0,1,27.438,65.746l0.238-1.113a23.239,23.239,0,1,1,8.949-41.812L38.8,12.67l0.974-4.55a4.281,4.281,0,0,1,4.208-3.379L86.024,4.99a4.213,4.213,0,0,1,4.126,3.428l4.91,25.958S98.787,31.669,100,31c0.389,6.728,1.339,17.913,2,27A21.246,21.246,0,0,1,100.064,60.842ZM33.752,35.671A12.175,12.175,0,1,0,29.4,52.325a12.325,12.325,0,0,0,1.064-.7l3.378-15.786C33.808,35.783,33.784,35.726,33.752,35.671Z"/>
  <path id="Фигура_893" data-name="Фигура 893" class="cls-2" d="M121.634,34.247L100.155,60.73c-4.068-19.872-5.1-26.354-5.1-26.354L109.768,22.2,110,20l14,14Z"/>
  <path id="Фигура_891" data-name="Фигура 891" class="cls-3" d="M74.7,46.178s17.109-1.6,6.938-13.832c-10.752-12.927-16.963,2.866-16.963,2.866s-2.649-15.3-14.344-4.494C38.724,41.446,54.784,44.3,54.784,44.3S39.5,47.915,45.532,56.118c11.239,15.274,16.206-.585,16.206-0.585S62.012,70.58,75.56,62.026C88.4,53.92,74.7,46.178,74.7,46.178Z"/>
</svg>
