<svg xmlns="http://www.w3.org/2000/svg" width="107" height="134" viewBox="0 0 107 134">
  <defs>
    <style>
      .cls-1 {
        fill: #7e85b3;
      }

      .cls-1, .cls-2, .cls-3 {
        fill-rule: evenodd;
      }

      .cls-2 {
        fill: #aa5b28;
      }

      .cls-3 {
        fill: #ff6534;
      }
    </style>
  </defs>
  <path id="Фигура_66" data-name="Фигура 66" class="cls-1" d="M95.331,61.225c-10.482-5.1-14.892-4.419-25.806.837A11.705,11.705,0,0,1,56.4,63.752l-1.12-.574-1.862,3.645L35.855,58.344l2.076-4.063a11.742,11.742,0,0,1-6.121-11.532c-2.5.829-6.092,1.265-12.468-.608L14.382,39.6a8.82,8.82,0,0,1-3.825-11.86l11.484-22.5A8.792,8.792,0,0,1,33.88,1.4l4.959,2.54A18.774,18.774,0,0,1,46.049,13.8,11.744,11.744,0,0,1,56.274,9.751c6.23,0.2,27.738,2.8,42.693,28.051C112.581,60.786,104.926,65.9,95.331,61.225Z"/>
  <path id="Фигура_660" data-name="Фигура 660" class="cls-2" d="M55.272,63.194L33.3,106.2c-2.433-2.733-8.9-11.494-13.169-17.078l17.8-34.845a11.675,11.675,0,0,1-1.805-1.223Z"/>
  <path id="Прямоугольник_скругл._углы_18" data-name="Прямоугольник, скругл. углы 18" class="cls-3" d="M41.728,79.977c-3.143-1.647-6.8-3.541-9.958-5.1-5.527-2.714-7.589-3.749-12.333,6.027C13.12,93.926,2.022,114.8,2.022,114.8a11.259,11.259,0,0,0,4.9,15.143l4.752,2.431A11.241,11.241,0,0,0,26.8,127.474s10.811-22.666,18-35.031C49.415,84.519,46.542,82.5,41.728,79.977Z"/>
</svg>
