<svg xmlns="http://www.w3.org/2000/svg" width="1770" height="205" viewBox="0 0 1770 205">
  <defs>
    <style>
      .cls-1 {
        fill: #92bfff;
      }

      .cls-1, .cls-2 {
        fill-rule: evenodd;
      }

      .cls-2, .cls-3 {
        fill: #85b2f5;
      }
    </style>
  </defs>
  <path id="Rounded_Rectangle_570" data-name="Rounded Rectangle 570" class="cls-1" d="M1696,51V205H99V51H1696Z"/>
  <path id="Rounded_Rectangle_860_copy_3" data-name="Rounded Rectangle 860 copy 3" class="cls-2" d="M1170,205V125a10,10,0,0,1,10-10h417a10,10,0,0,1,10,10v80H1170ZM677,115h417a10,10,0,0,1,10,10v80H667V125A10,10,0,0,1,677,115Zm-503,0H591a10,10,0,0,1,10,10v80H164V125A10,10,0,0,1,174,115Z"/>
  <rect id="Rounded_Rectangle_589" data-name="Rounded Rectangle 589" class="cls-3" width="1770" height="52.438" rx="10" ry="10"/>
</svg>
