<svg xmlns="http://www.w3.org/2000/svg" width="3328" height="1124" viewBox="0 0 3328 1124">
  <defs>
    <style>
      .cls-1 {
        fill: #9de4ff;
      }

      .cls-1, .cls-11, .cls-16, .cls-17, .cls-2, .cls-21, .cls-23, .cls-24, .cls-26, .cls-27, .cls-28, .cls-29, .cls-3, .cls-30, .cls-31, .cls-32, .cls-33, .cls-34, .cls-35, .cls-36, .cls-37, .cls-39, .cls-4, .cls-40, .cls-42, .cls-5, .cls-6, .cls-7, .cls-9 {
        fill-rule: evenodd;
      }

      .cls-2 {
        fill: #a7e9ff;
      }

      .cls-3 {
        fill: #92ceff;
      }

      .cls-12, .cls-3, .cls-5, .cls-7 {
        opacity: 0.8;
      }

      .cls-4 {
        fill: #89beff;
      }

      .cls-5 {
        fill: #c2cdf0;
      }

      .cls-6 {
        fill: #b0caff;
        opacity: 0.6;
      }

      .cls-12, .cls-7 {
        fill: #8fdaff;
      }

      .cls-8, .cls-9 {
        fill: #b3d6ff;
      }

      .cls-10 {
        fill: #bddcff;
        opacity: 0.5;
      }

      .cls-11 {
        fill: #91bef5;
      }

      .cls-13 {
        fill: #86c5ff;
      }

      .cls-14 {
        fill: #96d7ff;
      }

      .cls-15 {
        fill: #78dcff;
      }

      .cls-16 {
        fill: #76e4ff;
      }

      .cls-17, .cls-18 {
        fill: #8debff;
      }

      .cls-19 {
        fill: #a8c9ff;
      }

      .cls-20 {
        fill: #bfdbff;
      }

      .cls-21, .cls-25 {
        fill: #98c4fb;
      }

      .cls-22, .cls-24 {
        fill: #aad0ff;
      }

      .cls-23 {
        fill: #b9d8ff;
      }

      .cls-26 {
        fill: #81e6ff;
      }

      .cls-27 {
        fill: #c9f5ff;
      }

      .cls-28 {
        fill: #b9d9ff;
      }

      .cls-29 {
        fill: #72ddf7;
      }

      .cls-30 {
        fill: #6cd5ee;
      }

      .cls-31 {
        fill: #b9fffc;
      }

      .cls-32 {
        fill: #5cccc0;
      }

      .cls-33 {
        fill: #7dd2ff;
      }

      .cls-34 {
        fill: #c9fdff;
      }

      .cls-35 {
        fill: #75d2b7;
      }

      .cls-36 {
        fill: #f4b3d1;
      }

      .cls-37 {
        fill: #9bb9ff;
      }

      .cls-38, .cls-39 {
        fill: #cef8ff;
      }

      .cls-40 {
        fill: #8dcaff;
      }

      .cls-41 {
        fill: #84d6ff;
      }

      .cls-42 {
        fill: #aaefff;
      }
    </style>
  </defs>
  <path class="cls-1" d="M0,1123.19V-0.406H3327.87v1123.6H0ZM2632,113.812H1425.84V1018.69H2632V113.812Z"/>
  <path id="Эллипс_667_копия_6" data-name="Эллипс 667 копия 6" class="cls-2" d="M3327.66,851.469H3137V0h191ZM2745,0h164.66V1115.47H2745V0ZM2354,982.818l164.66,2.477V1115.47H2354V982.818ZM2354,0h164.66V134.3H2354V0ZM1963,990.25l164.66-8.671V1115.47H1963V990.25ZM1963,0h164.66V131.824L1963,130.586V0ZM1571,984.348l164.66-6.869V1115.47H1571V984.348ZM1571,0h164.66V125.593L1571,123.529V0ZM1180,0h164.66V1115.47H1180V0ZM789,0H953.656V1115.47H789V0ZM397,0H561.656V1115.47H397V0ZM0,0H170.656V1115.47H0V0Z"/>
  <path class="cls-3" d="M3328,609l-353,.594a10,10,0,0,1-10-10V195.812a10,10,0,0,1,10-10h354.17Z"/>
  <path id="Rectangle_86_copy" data-name="Rectangle 86 copy" class="cls-4" d="M3328.05,229.5H3023a10,10,0,0,0-10,10V374.687S3180.66,375,3328,375Zm0.04,188.781,0.03,155.625H3023a10,10,0,0,1-10-10V418.281h315.09Z"/>
  <path id="Rectangle_87_copy_2" data-name="Rectangle 87 copy 2" class="cls-5" d="M3104.47,374.969h-56.25a15,15,0,0,1-15-15v-72.25A14.578,14.578,0,0,1,3048,273h9V263a10.108,10.108,0,0,1,9.91-10.219h18.87A10.381,10.381,0,0,1,3096,263v10l8.47-.281a15,15,0,0,1,15,15v72.25A15,15,0,0,1,3104.47,374.969Z"/>
  <path class="cls-6" d="M3181.41,373.782H3142.7a11.4,11.4,0,0,1-11.4-11.4V280.368c0-9.917,9.59-21.293,18.73-25.955V244.75a5,5,0,0,1,5-5h14.72a5,5,0,0,1,5,5v9.665c8.93,4.27,18.06,14.368,18.06,25.953v82.015A11.4,11.4,0,0,1,3181.41,373.782Z"/>
  <path id="Rectangle_88_copy" data-name="Rectangle 88 copy" class="cls-7" d="M3202.63,575.55h-38.68a11.39,11.39,0,0,1-11.39-11.389V502.489c0-9.911,9.59-21.28,18.72-25.936V455.344a5,5,0,0,1,5-5H3191a5,5,0,0,1,5,5v21.227c8.92,4.275,18.02,14.355,18.02,25.918v61.672A11.39,11.39,0,0,1,3202.63,575.55Z"/>
  <rect class="cls-8" x="3218.38" y="463.5" width="53.21" height="109.844" rx="10" ry="10"/>
  <path id="Rectangle_89_copy_5" data-name="Rectangle 89 copy 5" class="cls-9" d="M3141.34,563.844a10,10,0,0,1-10,10h-87.9a10,10,0,0,1-10-10v-74.5s-0.37-12.78,10.44-28.225l17.9-23.012c2.48-3.215,6.36-5.391,9.07-5.391h32.18c2.71,0,6.59,2.176,9.07,5.391l17.78,23.012c11.8,14.345,11.46,28.225,11.46,28.225v74.5Z"/>
  <rect class="cls-10" x="3052.75" y="482.531" width="65.81" height="78.657" rx="10" ry="10"/>
  <path id="Ellipse_26_copy" data-name="Ellipse 26 copy" class="cls-11" d="M3105.2,509.437a7.156,7.156,0,1,1,7.17-7.156A7.163,7.163,0,0,1,3105.2,509.437Zm-16.43,20.532H3064.3a4.765,4.765,0,0,1-4.77-4.766h0a4.765,4.765,0,0,1,4.77-4.766h24.47a4.762,4.762,0,0,1,4.76,4.766h0A4.762,4.762,0,0,1,3088.77,529.969Zm-0.02-22.844h-24.44a4.78,4.78,0,0,1-4.78-4.78v0a4.78,4.78,0,0,1,4.78-4.78h24.44a4.78,4.78,0,0,1,4.78,4.78v0A4.78,4.78,0,0,1,3088.75,507.125Zm16.45,10.594a7.156,7.156,0,1,1-7.17,7.156A7.163,7.163,0,0,1,3105.2,517.719Z"/>
  <rect id="Rectangle_89_copy_4" data-name="Rectangle 89 copy 4" class="cls-12" x="3273.78" y="512.719" width="47.22" height="60.75" rx="10" ry="10"/>
  <rect id="Rectangle_73_copy_5" data-name="Rectangle 73 copy 5" class="cls-13" x="838.406" y="348.781" width="282.594" height="362.625" rx="10" ry="10"/>
  <rect id="Rectangle_73_copy_17" data-name="Rectangle 73 copy 17" class="cls-14" x="866" y="372.938" width="227.41" height="308.468" rx="10" ry="10"/>
  <rect id="Rectangle_73_copy_9" data-name="Rectangle 73 copy 9" class="cls-15" x="348.625" y="232.062" width="317" height="203.688" rx="10" ry="10"/>
  <path id="Rectangle_73_copy_14" data-name="Rectangle 73 copy 14" class="cls-16" d="M640,395l-0.094-126.5a10,10,0,0,0-10-10H383.062a10,10,0,0,0-10,10S373,367.132,373,395H640Z"/>
  <path id="Shape_4_copy" data-name="Shape 4 copy" class="cls-17" d="M639.906,399.219a10,10,0,0,1-10,10H383.062a10,10,0,0,1-10-10V387.948c12.8-1.9,38.071-4.251,77.268-1.977,44.33,2.571,95.564,6.018,131.692,4.37-0.7-2.79-1.541-6.14-2.556-10.2-5.026-20.106-21.224-51.326-26.258-60.766a47.426,47.426,0,0,0-4.185,6.569c-5.385,10.191,2.872,18.826,4.183,23.724,3.331,12.45-13.447-2.116-8.915,1.425-4.789-3.741-13.068-12.82-10.323-24.815A20.186,20.186,0,0,1,546.533,311.5a43.948,43.948,0,0,0-5.205-.273c-11.526.038-19.418,11.018-23.125,14.477-9.423,8.792-4.454-12.863-5.448-7.2,1.05-5.985,4.592-15.854,16.468-19.069a22,22,0,0,1,18.951,3.149c-0.773-1.3-1.663-2.683-2.694-4.141-5.246-7.42-13.159-5.343-17.07-6.168-9.94-2.1,6.283-8.7,2.178-6.775,4.337-2.033,12.309-4.218,19.763,1.989a18.664,18.664,0,0,1,4.1,4.723,18.415,18.415,0,0,1,4.117-5.574c7.063-6.648,15.153-4.951,19.605-3.185-4.214-1.672,12.38,3.934,2.585,6.631-3.854,1.061-11.879-.533-16.664,7.191-0.771,1.245-1.445,2.432-2.047,3.56a21.931,21.931,0,0,1,16.115-6.078c12.3,0.242,18.129,8.958,20.6,14.51-2.337-5.255,7.732,14.551-3.541,8.3-4.434-2.457-13.931-11.443-25.123-8.687a37.571,37.571,0,0,0-9.217,3.431c4.471,4.61,12.909,13.868,25.61,30.024,12.173,15.485,20.8,33.061,25.694,44.45,0.467-.112.955-0.218,1.4-0.336,9.732-2.556,18.653-4.5,26.316-5.979v18.745Z"/>
  <circle class="cls-18" cx="428.5" cy="298.5" r="29.5"/>
  <rect id="Rectangle_73_copy_9-2" data-name="Rectangle 73 copy 9" class="cls-19" x="89.063" y="405.062" width="206.125" height="203.688" rx="10" ry="10"/>
  <rect id="Rectangle_73_copy_14-2" data-name="Rectangle 73 copy 14" class="cls-20" x="111.375" y="426.781" width="160.719" height="160.157" rx="10" ry="10"/>
  <path id="Эллипс_25" data-name="Эллипс 25" class="cls-21" d="M155.262,576.4c0-19.584,14.6-35.421,37.549-35.43,21.338-.008,37.55,11.766,37.55,35.43a91.339,91.339,0,0,1-.611,11.218H155.8A107.622,107.622,0,0,1,155.262,576.4Z"/>
  <path class="cls-21" d="M144.877,487.041s-17.412,10.182-16.757,44.046,3.49,46.95,15.909,45.829,19.592-23.313,11.128-51.176S144.877,487.041,144.877,487.041Z"/>
  <path id="Shape_52_copy" data-name="Shape 52 copy" class="cls-21" d="M241.372,487.041s17.412,10.182,16.756,44.046-3.49,46.95-15.909,45.829S222.628,553.6,231.092,525.74,241.372,487.041,241.372,487.041Z"/>
  <ellipse id="Эллипс_650" data-name="Эллипс 650" class="cls-22" cx="192.391" cy="514.578" rx="58.547" ry="50.297"/>
  <path id="Shape_19_copy_2" data-name="Shape 19 copy 2" class="cls-23" d="M187.131,525.013c-4.262,1.028-8.222.37-14.131,0.987-4.076,1.026-8.53,1.973-8.424,6.746s6.467,10.66,17.4,9.666c5.919-1.181,11.7-2.359,12.243-10.311S187.131,525.013,187.131,525.013Zm9.044,0c4.262,1.028,8.916.37,14.825,0.987,4.076,1.026,7.836,1.973,7.73,6.746s-6.466,10.66-17.4,9.666c-5.92-1.181-11.7-2.359-12.244-10.311S196.175,525.013,196.175,525.013Z"/>
  <path class="cls-24" d="M174.965,479.905a19.913,19.913,0,0,0-15.225-11.6c-8.109-1.274-13.307-7.518,3.625-9.425s24.944,8.472,23.2,13.051C182.7,482.087,174.965,479.905,174.965,479.905Z"/>
  <path id="Shape_53_copy" data-name="Shape 53 copy" class="cls-24" d="M182.086,474.256a19.913,19.913,0,0,0-7.793-17.482c-6.5-5.008-8.07-12.981,7.7-6.531s17.822,19.4,14.1,22.58C187.824,479.881,182.086,474.256,182.086,474.256Z"/>
  <path id="Shape_53_copy_2" data-name="Shape 53 copy 2" class="cls-24" d="M201.977,478.165a17.234,17.234,0,0,1,6.747-15.134c5.629-4.336,6.985-11.238-6.668-5.654s-15.428,16.794-12.2,19.548C197.009,483.034,201.977,478.165,201.977,478.165Z"/>
  <circle id="Эллипс_599_копия" data-name="Эллипс 599 копия" class="cls-25" cx="225.328" cy="512.375" r="8.016"/>
  <circle id="Эллипс_599_копия_4" data-name="Эллипс 599 копия 4" class="cls-25" cx="159.438" cy="512.375" r="8.031"/>
  <path id="Эллипс_597" data-name="Эллипс 597" class="cls-21" d="M192.367,513.471c7.339,0.259,13.3,3.446,13.3,5.444s-5.966,8.787-13.3,9.235-13.3-7.151-13.3-9.235C179.069,516.868,185.023,513.211,192.367,513.471Z"/>
  <path id="Rectangle_73_copy" data-name="Rectangle 73 copy" class="cls-26" d="M3328.01,881.03v231.19l-425.95-6.11V882.094Z"/>
  <path id="Заливка_цветом_829" data-name="Заливка цветом 829" class="cls-27" d="M2958.24,725.059h110.79c6.54,1.467,9.58,7.89,7.15,31.441-1.96,19.089-4.23,30.943-15.47,48.077-5.79,8.83-17.63,17.3-17.63,17.3h-58.89s-11.19-6.479-20.8-22.957c-23.62.33-48.43-17.043-41.42-44.417-0.03.107,3.14-15.078,22.63-18.965l6.48-.332C2951.6,731.588,2952.19,726.578,2958.24,725.059Zm-19.63,30.111c-5.99,8.048-.4,19.333,5.82,23.289,4.88,3.1,12.81,3.826,12.81,3.826s-2.18-6.677-2.66-8.317a120.356,120.356,0,0,1-4.16-23.456S2944.66,747.027,2938.61,755.17Z"/>
  <path id="Фигура_1108" data-name="Фигура 1108" class="cls-28" d="M3278.92,767.2s0.05-.744.07-1.11c1.48-29.55-30.5-30.6-30.5-30.6-10.24-38.158-45.93-27.141-45.93-27.141,4.98,0.269,18.14,9.137.88,10.212s-16.97,16.122-16.97,16.122c-25.49.451-38.03,19.921-37.47,32.311Z"/>
  <path id="Прямоугольник_1107" data-name="Прямоугольник 1107" class="cls-24" d="M3149.04,766.038h129.98l-18.99,59.439h-91.99Z"/>
  <path class="cls-29" d="M3328.03,899.937H2890a10,10,0,0,1-10-10V833.844a10,10,0,0,1,10-10h438.03v76.093Z"/>
  <path class="cls-30" d="M3145.22,1020.91v85.34h-51.13v-85.44c-54.5-.1-102.84-0.22-102.84-0.22s-10-1.52-10-10v-6.81a40,40,0,0,1,40-40L3225,964v57C3206.42,1021,3177,1020.96,3145.22,1020.91Z"/>
  <path id="Shape_6_copy" data-name="Shape 6 copy" class="cls-31" d="M113.236,1050.71l43.478-1.41a375,375,0,0,1-13.5,52H120ZM332.5,1102.5c-3.393-18.42-6.6-37.4-8.591-52.64l-43.034,1.24a375.4,375.4,0,0,0,14.27,53.4Z"/>
  <path id="Rounded_Rectangle_45_copy" data-name="Rounded Rectangle 45 copy" class="cls-32" d="M331.7,1055.12L124,1055l-41.526-37.58S37.43,829.878,32.388,805.832c-5.655-26.97,3.953-53.215,24.778-53.215,31.87,0,60.048,80.381,76.809,147.081,7.415,29.507,9.885,64.033,10.678,80.47a37.942,37.942,0,0,1,5.876-.459H331.7A37.706,37.706,0,1,1,331.7,1055.12Z"/>
  <path id="Rounded_Rectangle_41_copy" data-name="Rounded Rectangle 41 copy" class="cls-33" d="M719.606,872.108H512.218V1122.49h-53.8V872.108H251.029a20,20,0,0,1-20-20V825.892a20,20,0,0,1,20-20H719.606a20,20,0,0,1,20,20v26.216A20,20,0,0,1,719.606,872.108Z"/>
  <path id="Rounded_Rectangle_43" data-name="Rounded Rectangle 43" class="cls-34" d="M706.96,825.607h0.212c5.707,0-39.192,23.159-67.023,36.427L494.031,931.692a24.413,24.413,0,0,1-2.54,1.114h-9.556a24.856,24.856,0,0,1-2.563-1.114L331.828,862.034c-24.3-11.473-61.5-30.335-67.425-35.227a9.975,9.975,0,0,1-3.916-7.923v-7.591a10,10,0,0,1,10-10H699.573a10,10,0,0,1,10,10v7.591A9.952,9.952,0,0,1,706.96,825.607Z"/>
  <path id="Shape_7_copy_2" data-name="Shape 7 copy 2" class="cls-35" d="M536.2,626.249c-21.069,24.472-34.56,31.116-42.965,30.29-4.15,5.5-7.454,4.965-7.454,4.965s-32.054-6.426-34.948-84.61c0.15-36.188,2.667-70.576,26.671-17.474,10.553,23.348,16.651,41.449,19.693,55.425,5.653-4.309,13.223-8.269,23.354-11.255C541.18,599,561.526,596.828,536.2,626.249Z"/>
  <path class="cls-35" d="M523,563l13,10s-36.187,44.4-43,87H475S481.375,610.377,523,563Z"/>
  <path id="Shape_7_copy" data-name="Shape 7 copy" class="cls-36" d="M571.393,572.691c-27.614,15.743-42.806,2.768-46.764-1.509l-0.226.194s-21.3-15.3-2.758-47.823c12.818-22.484,27.762-28.806,34.947-30.349,4.712,0.929,5.751,8.941,3.678,16.554,11.775-5.242,20.65-7.485,25.751-1.839a1,1,0,0,1,.066.1,1.33,1.33,0,0,1,.94.292c5.646,5.1,3.4,13.977-1.839,25.751,7.614-2.072,15.625-1.034,16.554,3.679C600.2,544.928,593.878,559.872,571.393,572.691Z"/>
  <path id="Rounded_Rectangle_45" data-name="Rounded Rectangle 45" class="cls-37" d="M523.4,798.534a9.658,9.658,0,0,1-8.277,2.759H453.589a9.658,9.658,0,0,1-8.277-2.759c-5.33-5.941-3.072-13.663,3.679-29.429,15.632-33.886,17.3-88.078,17.457-95.646h-5.042a7.817,7.817,0,0,1,0-15.634H506.47a7.817,7.817,0,0,1,0,15.634h-4.208c0.158,7.568,1.824,61.76,17.457,95.646C526.47,784.871,528.728,792.593,523.4,798.534Z"/>
  <rect id="Rectangle_61_copy_4" data-name="Rectangle 61 copy 4" class="cls-38" x="1401.38" y="490.969" width="1254.96" height="52.593"/>
  <path id="Rectangle_61_copy_5" data-name="Rectangle 61 copy 5" class="cls-39" d="M2002.56,951.8V138.281h52.6V956.714Z"/>
  <path id="Rectangle_62_copy_3" data-name="Rectangle 62 copy 3" class="cls-40" d="M1351.9,193.2c-26.74,0-48.42-19.65-48.42-43.89V127.281c0-24.24,21.68-43.891,48.42-43.891V193.2Zm141.59-18.422H2565.77V101.812H1495.48ZM2750.34,189.59c17.16-6.753,29.15-22.245,29.15-40.277V127.281c0-18.255-12.29-33.907-29.79-40.523Z"/>
  <rect id="Rectangle_62_copy" data-name="Rectangle 62 copy" class="cls-41" x="1401.41" y="936.812" width="1254.97" height="100.778" rx="10" ry="10"/>
  <path id="Rectangle_63_copy_2" data-name="Rectangle 63 copy 2" class="cls-27" d="M2730.37,72.594H2586.73c-14.32,0-25.94,12.137-25.94,27.108V547.214c0,210.951,85.45,378.725,155.66,417.063h13.92c14.33,0,25.94-12.137,25.94-27.109V99.7C2756.31,84.73,2744.7,72.594,2730.37,72.594Zm-1366.2,0h113.94c11.37,0,20.58,12.168,20.58,27.179V346.542C1498.69,506.4,1431,655.863,1431,725c0,82.531,75.45,241.621-55.79,241.621h-11.04c-11.36,0-20.58-12.168-20.58-27.179V99.773C1343.59,84.762,1352.81,72.594,1364.17,72.594Z"/>
  <path id="Ellipse_879_copy_12" data-name="Ellipse 879 copy 12" class="cls-42" d="M1374.18,98.619c0.22-.051.44-0.075,0.67-0.117a18.373,18.373,0,0,1,35.67-8.11c0.22-.059.43-0.133,0.66-0.184a18.369,18.369,0,0,1,8.69,35.69c0.05,0.2.12,0.394,0.16,0.6a18.377,18.377,0,1,1-35.84,8.149c-0.05-.225-0.07-0.449-0.12-0.674-0.57.189-1.15,0.354-1.74,0.49A18.379,18.379,0,1,1,1374.18,98.619Zm31.11,535.515a13.353,13.353,0,0,1-16.24-9.629c-0.04-.162-0.06-0.324-0.09-0.487-0.41.149-.83,0.28-1.26,0.39a13.351,13.351,0,1,1-6.62-25.869c0.16-.041.33-0.063,0.49-0.1a13.344,13.344,0,0,1,25.74-6.581c0.16-.047.31-0.105,0.48-0.147a13.343,13.343,0,0,1,7,25.748c0.04,0.145.1,0.284,0.13,0.432A13.344,13.344,0,0,1,1405.29,634.134Zm11.03-177.994c0.05,0.192.11,0.376,0.15,0.571a17.431,17.431,0,0,1-34.16,6.963c-0.04-.214-0.06-0.427-0.1-0.641-0.54.167-1.09,0.311-1.66,0.427a17.429,17.429,0,0,1-6.97-34.155c0.22-.044.43-0.062,0.64-0.1a17.423,17.423,0,0,1,33.99-6.93c0.21-.051.42-0.117,0.63-0.161A17.42,17.42,0,0,1,1416.32,456.14Zm8.08-172.551a13.667,13.667,0,0,1-15.81,10.586c-0.03.153-.04,0.305-0.07,0.457a13.67,13.67,0,0,1-26.74-5.7c0.04-.168.09-0.327,0.13-0.492a13.332,13.332,0,0,1-1.33-.215,13.669,13.669,0,1,1,5.7-26.737c0.16,0.036.32,0.089,0.49,0.131a13.665,13.665,0,0,1,26.61,5.67c0.16,0.029.33,0.045,0.5,0.081A13.673,13.673,0,0,1,1424.4,283.589Zm33.3,258.694c0.05-.24.11-0.468,0.16-0.7-0.63-.046-1.26-0.121-1.9-0.231a19.381,19.381,0,1,1,6.6-38.195c0.24,0.041.47,0.108,0.7,0.158a19.383,19.383,0,0,1,20.15-14.23c-4.99,25.438-10.77,49.918-16.62,73.078A19.389,19.389,0,0,1,1457.7,542.283ZM1451,360.471a19.648,19.648,0,0,1,19.65-19.643c0.24,0,.48.028,0.72,0.037a19.608,19.608,0,0,1,27.32-16.161v21.838c0,17.968-.86,35.8-2.38,53.406a19.619,19.619,0,0,1-23.76-19.2c0-.246.03-0.486,0.03-0.73-0.63.062-1.28,0.1-1.93,0.1A19.648,19.648,0,0,1,1451,360.471Zm-95.23,399.542a21.361,21.361,0,0,1,25.16-16.721c0.26,0.053.51,0.134,0.76,0.2a21.354,21.354,0,0,1,41.68,8.393c0.26,0.043.52,0.064,0.78,0.117a21.211,21.211,0,0,1,9.47,4.539c1.25,8.8,2.84,18,4.57,27.44a21.346,21.346,0,0,1-21.83,9.993c-0.04.238-.05,0.476-0.1,0.715a21.36,21.36,0,0,1-41.88-8.434c0.05-.263.14-0.512,0.2-0.77-0.7-.071-1.39-0.173-2.09-0.314A21.358,21.358,0,0,1,1355.77,760.013Zm9.56,156.376a16.1,16.1,0,0,1,16.1-16.1c0.2,0,.4.023,0.6,0.03a16.092,16.092,0,0,1,32.04,0c0.2-.007.4-0.03,0.6-0.03a16.091,16.091,0,0,1,.49,32.174c0.01,0.182.03,0.36,0.03,0.544a16.1,16.1,0,0,1-32.2,0c0-.2.02-0.4,0.03-0.6-0.52.051-1.05,0.079-1.59,0.079A16.1,16.1,0,0,1,1365.33,916.389Zm126.64-700.1c-0.06.175-.09,0.351-0.15,0.525a16.1,16.1,0,1,1-30.52-10.254,5.871,5.871,0,0,1,.22-0.558,15.874,15.874,0,0,1-1.54-.431,16.1,16.1,0,0,1,10.26-30.522c0.19,0.064.37,0.148,0.55,0.218a16.086,16.086,0,0,1,27.9-2.656v44.222A15.979,15.979,0,0,1,1491.97,216.291ZM2749.7,390.528a20.777,20.777,0,0,1-24.24,15.789c-0.04.231-.07,0.461-0.12,0.692a20.783,20.783,0,1,1-40.54-9.181c0.06-.254.14-0.494,0.21-0.744-0.67-.085-1.35-0.2-2.02-0.354a20.784,20.784,0,0,1,9.18-40.541c0.25,0.058.49,0.142,0.74,0.208a20.779,20.779,0,0,1,40.35,9.138c0.25,0.047.5,0.074,0.76,0.132A20.792,20.792,0,0,1,2749.7,390.528Zm-13.51-178.019a19.452,19.452,0,0,1-23.49,13.483c-0.05.213-.09,0.428-0.15,0.641a19.463,19.463,0,0,1-37.42-10.722c0.07-.235.16-0.455,0.24-0.685-0.63-.115-1.25-0.259-1.87-0.437a19.461,19.461,0,1,1,10.72-37.417c0.23,0.067.45,0.159,0.68,0.234a19.457,19.457,0,0,1,37.24,10.671c0.23,0.058.47,0.1,0.7,0.163A19.465,19.465,0,0,1,2736.19,212.509ZM2594.3,100.956c0.18-.033.36-0.044,0.54-0.07a14.552,14.552,0,0,1,28.5-5.216c0.17-.039.34-0.091,0.52-0.124a14.551,14.551,0,0,1,5.68,28.539c0.03,0.161.08,0.316,0.11,0.479a14.558,14.558,0,1,1-28.64,5.241c-0.03-.18-0.04-0.358-0.07-0.537-0.46.13-.92,0.241-1.4,0.328A14.558,14.558,0,1,1,2594.3,100.956Zm20.4,213.023a11.2,11.2,0,0,1-12.22-10.055c-0.01-.14-0.01-0.277-0.02-0.416-0.35.07-.72,0.125-1.09,0.161a11.187,11.187,0,0,1-2.16-22.269c0.14-.014.28-0.011,0.42-0.019a11.182,11.182,0,0,1,22.16-2.149c0.14-.018.27-0.047,0.41-0.06a11.181,11.181,0,0,1,2.5,22.219c0.01,0.125.04,0.247,0.05,0.374A11.179,11.179,0,0,1,2614.7,313.979ZM2594.31,449.3c0.23,0.038.44,0.1,0.67,0.148a18.436,18.436,0,0,1,36.19,6.135c0.22,0.03.45,0.042,0.68,0.08a18.431,18.431,0,0,1-5.61,36.429c-0.03.207-.04,0.412-0.07,0.619a18.439,18.439,0,1,1-36.36-6.164c0.04-.228.1-0.445,0.15-0.67-0.6-.042-1.21-0.112-1.81-0.215A18.44,18.44,0,0,1,2594.31,449.3Zm-1.22,174.9c0.25,0.053.5,0.134,0.75,0.2a21.007,21.007,0,0,1,40.96,8.467c0.25,0.043.51,0.066,0.77,0.119a21,21,0,0,1-7.88,41.251c-0.04.235-.06,0.468-0.11,0.7a21.01,21.01,0,1,1-41.15-8.508c0.06-.258.14-0.5,0.2-0.757-0.68-.073-1.37-0.177-2.05-0.318A21.012,21.012,0,0,1,2593.09,624.2Zm19.82,167.174a19.72,19.72,0,0,1,19.63,17.85c0.24-.009.48-0.037,0.73-0.037a19.712,19.712,0,0,1,.6,39.415c0.01,0.223.04,0.441,0.04,0.666a19.662,19.662,0,0,1-3.32,10.947,552,552,0,0,1-28.29-65.733A19.577,19.577,0,0,1,2612.91,791.373Zm112.73-41.779c0.05,0.15.1,0.293,0.14,0.445a13.78,13.78,0,1,1-26.66,6.989c-0.05-.167-0.07-0.334-0.11-0.5a13.138,13.138,0,0,1-1.3.41,13.781,13.781,0,0,1-6.98-26.663c0.16-.044.33-0.068,0.5-0.105a13.775,13.775,0,0,1,26.53-6.956c0.17-.049.32-0.111,0.49-0.154A13.774,13.774,0,0,1,2725.64,749.594Zm-23.88-211.771a12.273,12.273,0,0,1,14.72,7.492c0.15-.046.29-0.1,0.44-0.143a12.273,12.273,0,0,1,6.84,23.572c0.04,0.133.1,0.26,0.13,0.395a12.281,12.281,0,0,1-23.69,6.489c-0.04-.149-0.06-0.3-0.09-0.447-0.38.143-.76,0.271-1.16,0.379a12.281,12.281,0,1,1-6.49-23.689c0.15-.041.3-0.063,0.45-0.1A12.282,12.282,0,0,1,2701.76,537.823Zm-2.77,396.034a3.718,3.718,0,0,1-.07-0.466c-0.4.122-.8,0.227-1.22,0.312a12.666,12.666,0,0,1-5.07-24.82c0.15-.031.31-0.045,0.46-0.07a12.663,12.663,0,0,1,24.7-5.054c0.15-.037.3-0.086,0.46-0.118a12.66,12.66,0,0,1,5.45,24.723c0.03,0.14.08,0.274,0.11,0.415A12.667,12.667,0,1,1,2698.99,933.857Z"/>
</svg>
