<svg xmlns="http://www.w3.org/2000/svg" width="1005" height="562" viewBox="0 0 1005 562">
  <defs>
    <style>
      .cls-1 {
        fill: #6adafa;
      }

      .cls-1, .cls-2 {
        fill-rule: evenodd;
      }

      .cls-2 {
        fill: #b9f9ff;
      }
    </style>
  </defs>
  <path id="Polygon_2_copy_3" data-name="Polygon 2 copy 3" class="cls-1" d="M667.986,179.008C814.37,345.291,1004.86,561.68,1004.86,561.68H0.1L336.917,179.073Z"/>
  <path id="Ellipse_8_copy_4" data-name="Ellipse 8 copy 4" class="cls-2" d="M625.129,215.52c-20.514,0-39.551-10.276-55.28-27.826C552.4,213.89,529.091,229.9,503.475,229.9s-48.93-16.014-66.375-42.211c-15.732,17.551-34.771,27.829-55.289,27.829-19.9,0-38.412-9.665-53.862-26.261L482.7,13.47l0.014-.022,2.884-3.235c6.8-5.917,22.673-12.345,37.941,4.714L677.966,190.345C662.726,206.278,644.591,215.52,625.129,215.52Z"/>
</svg>
